{
	"patcher" : 	{
		"fileversion" : 1,
		"appversion" : 		{
			"major" : 5,
			"minor" : 1,
			"revision" : 9
		}
,
		"rect" : [ 100.0, 100.0, 349.0, 638.0 ],
		"bglocked" : 0,
		"defrect" : [ 100.0, 100.0, 349.0, 638.0 ],
		"openrect" : [ 0.0, 0.0, 0.0, 0.0 ],
		"openinpresentation" : 1,
		"default_fontsize" : 12.0,
		"default_fontface" : 0,
		"default_fontname" : "Arial",
		"gridonopen" : 0,
		"gridsize" : [ 15.0, 15.0 ],
		"gridsnaponopen" : 0,
		"toolbarvisible" : 1,
		"boxanimatetime" : 200,
		"imprint" : 0,
		"enablehscroll" : 0,
		"enablevscroll" : 0,
		"devicewidth" : 0.0,
		"boxes" : [ 			{
				"box" : 				{
					"maxclass" : "message",
					"text" : "refresh",
					"numoutlets" : 1,
					"patching_rect" : [ 37.0, 316.0, 48.0, 18.0 ],
					"outlettype" : [ "" ],
					"fontsize" : 12.0,
					"id" : "obj-13",
					"fontname" : "Arial",
					"numinlets" : 2
				}

			}
, 			{
				"box" : 				{
					"maxclass" : "button",
					"numoutlets" : 1,
					"patching_rect" : [ 229.0, 252.0, 20.0, 20.0 ],
					"outlettype" : [ "bang" ],
					"id" : "obj-20",
					"numinlets" : 1
				}

			}
, 			{
				"box" : 				{
					"maxclass" : "message",
					"text" : "clear",
					"numoutlets" : 1,
					"patching_rect" : [ 229.0, 273.0, 37.0, 18.0 ],
					"outlettype" : [ "" ],
					"fontsize" : 12.0,
					"id" : "obj-16",
					"fontname" : "Arial",
					"numinlets" : 2
				}

			}
, 			{
				"box" : 				{
					"maxclass" : "bpatcher",
					"numoutlets" : 1,
					"patching_rect" : [ 447.0, 154.0, 243.0, 93.0 ],
					"outlettype" : [ "bang" ],
					"presentation" : 1,
					"name" : "database.query.maxpat",
					"args" : [  ],
					"id" : "obj-5",
					"numinlets" : 1,
					"presentation_rect" : [ 6.0, 126.0, 335.0, 219.0 ]
				}

			}
, 			{
				"box" : 				{
					"maxclass" : "message",
					"text" : "startQuery",
					"numoutlets" : 1,
					"patching_rect" : [ 804.0, 413.0, 67.0, 18.0 ],
					"outlettype" : [ "" ],
					"fontsize" : 12.0,
					"id" : "obj-12",
					"fontname" : "Arial",
					"numinlets" : 2
				}

			}
, 			{
				"box" : 				{
					"maxclass" : "newobj",
					"text" : "thispatcher",
					"numoutlets" : 2,
					"patching_rect" : [ 804.0, 582.0, 69.0, 20.0 ],
					"outlettype" : [ "", "" ],
					"fontsize" : 12.0,
					"id" : "obj-28",
					"fontname" : "Arial",
					"numinlets" : 1,
					"save" : [ "#N", "thispatcher", ";", "#Q", "end", ";" ]
				}

			}
, 			{
				"box" : 				{
					"maxclass" : "newobj",
					"text" : "fromsymbol",
					"numoutlets" : 1,
					"patching_rect" : [ 804.0, 552.0, 73.0, 20.0 ],
					"outlettype" : [ "" ],
					"fontsize" : 12.0,
					"id" : "obj-27",
					"fontname" : "Arial",
					"numinlets" : 1
				}

			}
, 			{
				"box" : 				{
					"maxclass" : "bpatcher",
					"numoutlets" : 0,
					"patching_rect" : [ 447.0, 476.0, 128.0, 128.0 ],
					"presentation" : 1,
					"name" : "database.group.maxpat",
					"args" : [  ],
					"id" : "obj-11",
					"numinlets" : 1,
					"presentation_rect" : [ 343.0, -2.0, 609.0, 595.0 ]
				}

			}
, 			{
				"box" : 				{
					"maxclass" : "newobj",
					"text" : "t b 1",
					"numoutlets" : 2,
					"patching_rect" : [ 117.0, 95.0, 34.0, 20.0 ],
					"outlettype" : [ "bang", "int" ],
					"fontsize" : 12.0,
					"id" : "obj-9",
					"fontname" : "Arial",
					"numinlets" : 1,
					"hidden" : 1
				}

			}
, 			{
				"box" : 				{
					"maxclass" : "newobj",
					"text" : "gate 1 1",
					"numoutlets" : 1,
					"patching_rect" : [ 200.0, 356.0, 54.0, 20.0 ],
					"outlettype" : [ "" ],
					"fontsize" : 12.0,
					"id" : "obj-6",
					"fontname" : "Arial",
					"numinlets" : 2,
					"hidden" : 1
				}

			}
, 			{
				"box" : 				{
					"maxclass" : "newobj",
					"text" : "loadmess clear",
					"numoutlets" : 1,
					"patching_rect" : [ 347.0, 13.0, 91.0, 20.0 ],
					"outlettype" : [ "" ],
					"fontsize" : 12.0,
					"id" : "obj-2",
					"fontname" : "Arial",
					"numinlets" : 1,
					"hidden" : 1
				}

			}
, 			{
				"box" : 				{
					"maxclass" : "newobj",
					"text" : "t 0 refresh",
					"numoutlets" : 2,
					"patching_rect" : [ 200.0, 329.0, 54.0, 17.0 ],
					"outlettype" : [ "int", "refresh" ],
					"fontsize" : 9.0,
					"id" : "obj-15",
					"fontname" : "Arial",
					"numinlets" : 1,
					"hidden" : 1
				}

			}
, 			{
				"box" : 				{
					"maxclass" : "bpatcher",
					"numoutlets" : 0,
					"patching_rect" : [ 16.0, 381.0, 315.0, 242.0 ],
					"presentation" : 1,
					"name" : "database.sounds.maxpat",
					"args" : [  ],
					"id" : "obj-10",
					"numinlets" : 1,
					"presentation_rect" : [ 11.0, 357.0, 329.0, 270.0 ]
				}

			}
, 			{
				"box" : 				{
					"maxclass" : "newobj",
					"text" : "t 0",
					"numoutlets" : 1,
					"patching_rect" : [ 205.0, 205.0, 21.0, 17.0 ],
					"outlettype" : [ "int" ],
					"fontsize" : 9.0,
					"id" : "obj-1",
					"fontname" : "Arial",
					"numinlets" : 1,
					"hidden" : 1
				}

			}
, 			{
				"box" : 				{
					"maxclass" : "newobj",
					"text" : "p getvalues",
					"numoutlets" : 2,
					"patching_rect" : [ 116.0, 257.0, 103.0, 17.0 ],
					"outlettype" : [ "", "" ],
					"fontsize" : 9.0,
					"id" : "obj-4",
					"fontname" : "Arial",
					"numinlets" : 1,
					"hidden" : 1,
					"patcher" : 					{
						"fileversion" : 1,
						"appversion" : 						{
							"major" : 5,
							"minor" : 1,
							"revision" : 9
						}
,
						"rect" : [ 5.0, 84.0, 377.0, 468.0 ],
						"bglocked" : 0,
						"defrect" : [ 5.0, 84.0, 377.0, 468.0 ],
						"openrect" : [ 0.0, 0.0, 0.0, 0.0 ],
						"openinpresentation" : 0,
						"default_fontsize" : 12.0,
						"default_fontface" : 0,
						"default_fontname" : "Arial",
						"gridonopen" : 0,
						"gridsize" : [ 15.0, 15.0 ],
						"gridsnaponopen" : 0,
						"toolbarvisible" : 1,
						"boxanimatetime" : 200,
						"imprint" : 0,
						"enablehscroll" : 1,
						"enablevscroll" : 1,
						"devicewidth" : 0.0,
						"boxes" : [ 							{
								"box" : 								{
									"maxclass" : "message",
									"text" : "clear",
									"numoutlets" : 1,
									"patching_rect" : [ 133.5, 302.0, 42.0, 18.0 ],
									"outlettype" : [ "" ],
									"fontsize" : 12.0,
									"id" : "obj-13",
									"fontname" : "Arial",
									"numinlets" : 2
								}

							}
, 							{
								"box" : 								{
									"maxclass" : "newobj",
									"text" : "prepend append",
									"numoutlets" : 1,
									"patching_rect" : [ 37.5, 361.0, 102.0, 20.0 ],
									"outlettype" : [ "" ],
									"fontsize" : 12.0,
									"id" : "obj-14",
									"fontname" : "Arial",
									"numinlets" : 1
								}

							}
, 							{
								"box" : 								{
									"maxclass" : "message",
									"text" : "line $1",
									"numoutlets" : 1,
									"patching_rect" : [ 258.5, 322.0, 52.0, 18.0 ],
									"outlettype" : [ "" ],
									"fontsize" : 12.0,
									"id" : "obj-15",
									"fontname" : "Arial",
									"numinlets" : 2
								}

							}
, 							{
								"box" : 								{
									"maxclass" : "newobj",
									"text" : "route set",
									"numoutlets" : 2,
									"patching_rect" : [ 37.5, 264.0, 64.0, 20.0 ],
									"outlettype" : [ "", "" ],
									"fontsize" : 12.0,
									"id" : "obj-16",
									"fontname" : "Arial",
									"numinlets" : 1
								}

							}
, 							{
								"box" : 								{
									"maxclass" : "newobj",
									"text" : "uzi",
									"numoutlets" : 3,
									"patching_rect" : [ 229.5, 296.0, 48.0, 20.0 ],
									"outlettype" : [ "bang", "bang", "int" ],
									"fontsize" : 12.0,
									"id" : "obj-17",
									"fontname" : "Arial",
									"numinlets" : 2
								}

							}
, 							{
								"box" : 								{
									"maxclass" : "number",
									"numoutlets" : 2,
									"htextcolor" : [ 0.870588, 0.870588, 0.870588, 1.0 ],
									"triscale" : 0.9,
									"patching_rect" : [ 229.5, 267.0, 37.0, 20.0 ],
									"outlettype" : [ "int", "bang" ],
									"fontsize" : 12.0,
									"bgcolor" : [ 0.866667, 0.866667, 0.866667, 1.0 ],
									"id" : "obj-18",
									"fontname" : "Arial",
									"numinlets" : 1
								}

							}
, 							{
								"box" : 								{
									"maxclass" : "message",
									"text" : "query",
									"numoutlets" : 1,
									"patching_rect" : [ 76.5, 302.0, 46.0, 18.0 ],
									"outlettype" : [ "" ],
									"fontsize" : 12.0,
									"id" : "obj-19",
									"fontname" : "Arial",
									"numinlets" : 2
								}

							}
, 							{
								"box" : 								{
									"maxclass" : "button",
									"numoutlets" : 1,
									"patching_rect" : [ 134.5, 268.0, 15.0, 15.0 ],
									"outlettype" : [ "bang" ],
									"id" : "obj-20",
									"numinlets" : 1
								}

							}
, 							{
								"box" : 								{
									"maxclass" : "button",
									"numoutlets" : 1,
									"patching_rect" : [ 38.5, 185.0, 15.0, 15.0 ],
									"outlettype" : [ "bang" ],
									"id" : "obj-21",
									"numinlets" : 1
								}

							}
, 							{
								"box" : 								{
									"maxclass" : "newobj",
									"text" : "route 403",
									"numoutlets" : 2,
									"patching_rect" : [ 37.5, 156.0, 61.0, 20.0 ],
									"outlettype" : [ "", "" ],
									"fontsize" : 12.0,
									"id" : "obj-22",
									"fontname" : "Arial",
									"numinlets" : 1
								}

							}
, 							{
								"box" : 								{
									"maxclass" : "newobj",
									"text" : "route /dbfieldvaluelist",
									"numoutlets" : 2,
									"patching_rect" : [ 37.5, 130.0, 123.0, 20.0 ],
									"outlettype" : [ "", "" ],
									"fontsize" : 12.0,
									"id" : "obj-23",
									"fontname" : "Arial",
									"numinlets" : 1
								}

							}
, 							{
								"box" : 								{
									"maxclass" : "newobj",
									"text" : "r serverreceive",
									"numoutlets" : 1,
									"patching_rect" : [ 37.5, 101.0, 108.0, 20.0 ],
									"outlettype" : [ "" ],
									"fontsize" : 12.0,
									"id" : "obj-24",
									"fontname" : "Arial",
									"numinlets" : 0
								}

							}
, 							{
								"box" : 								{
									"maxclass" : "message",
									"text" : "read /tmp/orchestration_tmp_403.txt",
									"numoutlets" : 1,
									"patching_rect" : [ 37.5, 209.0, 203.0, 18.0 ],
									"outlettype" : [ "" ],
									"fontsize" : 12.0,
									"id" : "obj-28",
									"fontname" : "Arial",
									"numinlets" : 2
								}

							}
, 							{
								"box" : 								{
									"maxclass" : "newobj",
									"text" : "text",
									"numoutlets" : 3,
									"patching_rect" : [ 37.5, 240.0, 211.0, 20.0 ],
									"outlettype" : [ "", "bang", "int" ],
									"fontsize" : 12.0,
									"id" : "obj-29",
									"fontname" : "Arial",
									"numinlets" : 1
								}

							}
, 							{
								"box" : 								{
									"maxclass" : "outlet",
									"numoutlets" : 0,
									"patching_rect" : [ 92.0, 396.0, 21.0, 21.0 ],
									"id" : "obj-1",
									"numinlets" : 1,
									"comment" : ""
								}

							}
, 							{
								"box" : 								{
									"maxclass" : "outlet",
									"numoutlets" : 0,
									"patching_rect" : [ 38.0, 399.0, 15.0, 15.0 ],
									"id" : "obj-12",
									"numinlets" : 1,
									"comment" : ""
								}

							}
, 							{
								"box" : 								{
									"maxclass" : "newobj",
									"text" : "prepend /dbgetfieldvaluelist 403 /tmp/orchestration_tmp_403.txt",
									"numoutlets" : 1,
									"patching_rect" : [ 28.0, 49.0, 264.0, 17.0 ],
									"outlettype" : [ "" ],
									"fontsize" : 9.0,
									"id" : "obj-2",
									"fontname" : "Arial",
									"numinlets" : 1
								}

							}
, 							{
								"box" : 								{
									"maxclass" : "inlet",
									"numoutlets" : 1,
									"patching_rect" : [ 28.0, 27.0, 15.0, 15.0 ],
									"outlettype" : [ "" ],
									"id" : "obj-5",
									"numinlets" : 0,
									"comment" : ""
								}

							}
, 							{
								"box" : 								{
									"maxclass" : "newobj",
									"text" : "s serversend",
									"numoutlets" : 0,
									"patching_rect" : [ 28.0, 74.0, 69.0, 17.0 ],
									"fontsize" : 9.0,
									"id" : "obj-10",
									"fontname" : "Arial",
									"numinlets" : 1
								}

							}
 ],
						"lines" : [ 							{
								"patchline" : 								{
									"source" : [ "obj-2", 0 ],
									"destination" : [ "obj-10", 0 ],
									"hidden" : 0,
									"midpoints" : [  ]
								}

							}
, 							{
								"patchline" : 								{
									"source" : [ "obj-5", 0 ],
									"destination" : [ "obj-2", 0 ],
									"hidden" : 0,
									"midpoints" : [  ]
								}

							}
, 							{
								"patchline" : 								{
									"source" : [ "obj-17", 2 ],
									"destination" : [ "obj-15", 0 ],
									"hidden" : 0,
									"midpoints" : [  ]
								}

							}
, 							{
								"patchline" : 								{
									"source" : [ "obj-18", 0 ],
									"destination" : [ "obj-17", 0 ],
									"hidden" : 0,
									"midpoints" : [  ]
								}

							}
, 							{
								"patchline" : 								{
									"source" : [ "obj-29", 2 ],
									"destination" : [ "obj-18", 0 ],
									"hidden" : 0,
									"midpoints" : [  ]
								}

							}
, 							{
								"patchline" : 								{
									"source" : [ "obj-20", 0 ],
									"destination" : [ "obj-13", 0 ],
									"hidden" : 0,
									"midpoints" : [  ]
								}

							}
, 							{
								"patchline" : 								{
									"source" : [ "obj-29", 1 ],
									"destination" : [ "obj-20", 0 ],
									"hidden" : 0,
									"midpoints" : [  ]
								}

							}
, 							{
								"patchline" : 								{
									"source" : [ "obj-20", 0 ],
									"destination" : [ "obj-19", 0 ],
									"hidden" : 0,
									"midpoints" : [ 143.5, 292.0, 86.0, 292.0 ]
								}

							}
, 							{
								"patchline" : 								{
									"source" : [ "obj-16", 0 ],
									"destination" : [ "obj-14", 0 ],
									"hidden" : 0,
									"midpoints" : [  ]
								}

							}
, 							{
								"patchline" : 								{
									"source" : [ "obj-29", 0 ],
									"destination" : [ "obj-16", 0 ],
									"hidden" : 0,
									"midpoints" : [  ]
								}

							}
, 							{
								"patchline" : 								{
									"source" : [ "obj-28", 0 ],
									"destination" : [ "obj-29", 0 ],
									"hidden" : 0,
									"midpoints" : [  ]
								}

							}
, 							{
								"patchline" : 								{
									"source" : [ "obj-19", 0 ],
									"destination" : [ "obj-29", 0 ],
									"hidden" : 0,
									"midpoints" : [ 86.0, 331.0, 26.5, 331.0, 26.5, 233.0, 47.0, 233.0 ]
								}

							}
, 							{
								"patchline" : 								{
									"source" : [ "obj-15", 0 ],
									"destination" : [ "obj-29", 0 ],
									"hidden" : 0,
									"midpoints" : [ 268.0, 344.0, 26.5, 344.0, 26.5, 233.0, 47.0, 233.0 ]
								}

							}
, 							{
								"patchline" : 								{
									"source" : [ "obj-21", 0 ],
									"destination" : [ "obj-28", 0 ],
									"hidden" : 0,
									"midpoints" : [  ]
								}

							}
, 							{
								"patchline" : 								{
									"source" : [ "obj-22", 0 ],
									"destination" : [ "obj-21", 0 ],
									"hidden" : 0,
									"midpoints" : [  ]
								}

							}
, 							{
								"patchline" : 								{
									"source" : [ "obj-14", 0 ],
									"destination" : [ "obj-12", 0 ],
									"hidden" : 0,
									"midpoints" : [  ]
								}

							}
, 							{
								"patchline" : 								{
									"source" : [ "obj-23", 0 ],
									"destination" : [ "obj-22", 0 ],
									"hidden" : 0,
									"midpoints" : [  ]
								}

							}
, 							{
								"patchline" : 								{
									"source" : [ "obj-24", 0 ],
									"destination" : [ "obj-23", 0 ],
									"hidden" : 0,
									"midpoints" : [  ]
								}

							}
 ]
					}
,
					"saved_object_attributes" : 					{
						"globalpatchername" : "",
						"default_fontface" : 0,
						"fontface" : 0,
						"fontsize" : 12.0,
						"default_fontname" : "Arial",
						"default_fontsize" : 12.0,
						"fontname" : "Arial"
					}

				}

			}
, 			{
				"box" : 				{
					"maxclass" : "newobj",
					"text" : "p queryfields",
					"numoutlets" : 2,
					"patching_rect" : [ 117.0, 185.0, 107.0, 17.0 ],
					"outlettype" : [ "", "" ],
					"fontsize" : 9.0,
					"id" : "obj-7",
					"fontname" : "Arial",
					"numinlets" : 1,
					"hidden" : 1,
					"patcher" : 					{
						"fileversion" : 1,
						"appversion" : 						{
							"major" : 5,
							"minor" : 1,
							"revision" : 9
						}
,
						"rect" : [ 755.0, 464.0, 308.0, 304.0 ],
						"bglocked" : 0,
						"defrect" : [ 755.0, 464.0, 308.0, 304.0 ],
						"openrect" : [ 0.0, 0.0, 0.0, 0.0 ],
						"openinpresentation" : 0,
						"default_fontsize" : 12.0,
						"default_fontface" : 0,
						"default_fontname" : "Arial",
						"gridonopen" : 0,
						"gridsize" : [ 15.0, 15.0 ],
						"gridsnaponopen" : 0,
						"toolbarvisible" : 1,
						"boxanimatetime" : 200,
						"imprint" : 0,
						"enablehscroll" : 1,
						"enablevscroll" : 1,
						"devicewidth" : 0.0,
						"boxes" : [ 							{
								"box" : 								{
									"maxclass" : "outlet",
									"numoutlets" : 0,
									"patching_rect" : [ 76.0, 196.0, 15.0, 15.0 ],
									"id" : "obj-1",
									"numinlets" : 1,
									"comment" : ""
								}

							}
, 							{
								"box" : 								{
									"maxclass" : "outlet",
									"numoutlets" : 0,
									"patching_rect" : [ 28.0, 196.0, 15.0, 15.0 ],
									"id" : "obj-2",
									"numinlets" : 1,
									"comment" : ""
								}

							}
, 							{
								"box" : 								{
									"maxclass" : "inlet",
									"numoutlets" : 1,
									"patching_rect" : [ 28.0, 27.0, 15.0, 15.0 ],
									"outlettype" : [ "" ],
									"id" : "obj-3",
									"numinlets" : 0,
									"comment" : ""
								}

							}
, 							{
								"box" : 								{
									"maxclass" : "newobj",
									"text" : "p fill",
									"numoutlets" : 2,
									"patching_rect" : [ 28.0, 170.0, 58.0, 17.0 ],
									"outlettype" : [ "", "" ],
									"fontsize" : 9.0,
									"id" : "obj-4",
									"fontname" : "Arial",
									"numinlets" : 1,
									"patcher" : 									{
										"fileversion" : 1,
										"appversion" : 										{
											"major" : 5,
											"minor" : 1,
											"revision" : 9
										}
,
										"rect" : [ 20.0, 74.0, 327.0, 384.0 ],
										"bglocked" : 0,
										"defrect" : [ 20.0, 74.0, 327.0, 384.0 ],
										"openrect" : [ 0.0, 0.0, 0.0, 0.0 ],
										"openinpresentation" : 0,
										"default_fontsize" : 12.0,
										"default_fontface" : 0,
										"default_fontname" : "Arial",
										"gridonopen" : 0,
										"gridsize" : [ 15.0, 15.0 ],
										"gridsnaponopen" : 0,
										"toolbarvisible" : 1,
										"boxanimatetime" : 200,
										"imprint" : 0,
										"enablehscroll" : 1,
										"enablevscroll" : 1,
										"devicewidth" : 0.0,
										"boxes" : [ 											{
												"box" : 												{
													"maxclass" : "inlet",
													"numoutlets" : 1,
													"patching_rect" : [ 16.0, 38.0, 15.0, 15.0 ],
													"outlettype" : [ "" ],
													"id" : "obj-1",
													"numinlets" : 0,
													"comment" : ""
												}

											}
, 											{
												"box" : 												{
													"maxclass" : "outlet",
													"numoutlets" : 0,
													"patching_rect" : [ 243.0, 287.0, 15.0, 15.0 ],
													"id" : "obj-2",
													"numinlets" : 1,
													"comment" : ""
												}

											}
, 											{
												"box" : 												{
													"maxclass" : "outlet",
													"numoutlets" : 0,
													"patching_rect" : [ 23.0, 288.0, 15.0, 15.0 ],
													"id" : "obj-3",
													"numinlets" : 1,
													"comment" : ""
												}

											}
, 											{
												"box" : 												{
													"maxclass" : "newobj",
													"text" : "prepend append",
													"numoutlets" : 1,
													"patching_rect" : [ 23.0, 259.0, 78.0, 17.0 ],
													"outlettype" : [ "" ],
													"fontsize" : 9.0,
													"id" : "obj-4",
													"fontname" : "Arial",
													"numinlets" : 1
												}

											}
, 											{
												"box" : 												{
													"maxclass" : "newobj",
													"text" : "route 1",
													"numoutlets" : 2,
													"patching_rect" : [ 24.0, 193.0, 43.0, 17.0 ],
													"outlettype" : [ "", "" ],
													"fontsize" : 9.0,
													"id" : "obj-5",
													"fontname" : "Arial",
													"numinlets" : 1
												}

											}
, 											{
												"box" : 												{
													"maxclass" : "newobj",
													"text" : "t l l clear",
													"numoutlets" : 3,
													"patching_rect" : [ 16.0, 63.0, 237.0, 17.0 ],
													"outlettype" : [ "", "", "clear" ],
													"fontsize" : 9.0,
													"id" : "obj-6",
													"fontname" : "Arial",
													"numinlets" : 1
												}

											}
, 											{
												"box" : 												{
													"maxclass" : "newobj",
													"text" : "== 0",
													"numoutlets" : 1,
													"patching_rect" : [ 24.0, 169.0, 31.0, 17.0 ],
													"outlettype" : [ "int" ],
													"fontsize" : 9.0,
													"id" : "obj-7",
													"fontname" : "Arial",
													"numinlets" : 2
												}

											}
, 											{
												"box" : 												{
													"maxclass" : "newobj",
													"text" : "unpack i s",
													"numoutlets" : 2,
													"patching_rect" : [ 67.0, 138.0, 54.0, 17.0 ],
													"outlettype" : [ "int", "" ],
													"fontsize" : 9.0,
													"id" : "obj-8",
													"fontname" : "Arial",
													"numinlets" : 1
												}

											}
, 											{
												"box" : 												{
													"maxclass" : "newobj",
													"text" : "- 1",
													"numoutlets" : 1,
													"patching_rect" : [ 24.0, 141.0, 34.0, 17.0 ],
													"outlettype" : [ "int" ],
													"fontsize" : 9.0,
													"id" : "obj-9",
													"fontname" : "Arial",
													"numinlets" : 2
												}

											}
, 											{
												"box" : 												{
													"maxclass" : "newobj",
													"text" : "listfunnel",
													"numoutlets" : 1,
													"patching_rect" : [ 67.0, 114.0, 52.0, 17.0 ],
													"outlettype" : [ "list" ],
													"fontsize" : 9.0,
													"id" : "obj-10",
													"fontname" : "Arial",
													"numinlets" : 1
												}

											}
, 											{
												"box" : 												{
													"maxclass" : "newobj",
													"text" : "zl len",
													"numoutlets" : 2,
													"patching_rect" : [ 24.0, 113.0, 34.0, 17.0 ],
													"outlettype" : [ "", "" ],
													"fontsize" : 9.0,
													"id" : "obj-11",
													"fontname" : "Arial",
													"numinlets" : 2
												}

											}
 ],
										"lines" : [ 											{
												"patchline" : 												{
													"source" : [ "obj-1", 0 ],
													"destination" : [ "obj-6", 0 ],
													"hidden" : 0,
													"midpoints" : [  ]
												}

											}
, 											{
												"patchline" : 												{
													"source" : [ "obj-8", 1 ],
													"destination" : [ "obj-4", 0 ],
													"hidden" : 0,
													"midpoints" : [  ]
												}

											}
, 											{
												"patchline" : 												{
													"source" : [ "obj-4", 0 ],
													"destination" : [ "obj-3", 0 ],
													"hidden" : 0,
													"midpoints" : [  ]
												}

											}
, 											{
												"patchline" : 												{
													"source" : [ "obj-6", 2 ],
													"destination" : [ "obj-3", 0 ],
													"hidden" : 0,
													"midpoints" : [  ]
												}

											}
, 											{
												"patchline" : 												{
													"source" : [ "obj-6", 1 ],
													"destination" : [ "obj-11", 0 ],
													"hidden" : 0,
													"midpoints" : [ 134.5, 95.0, 33.5, 95.0 ]
												}

											}
, 											{
												"patchline" : 												{
													"source" : [ "obj-11", 0 ],
													"destination" : [ "obj-9", 0 ],
													"hidden" : 0,
													"midpoints" : [  ]
												}

											}
, 											{
												"patchline" : 												{
													"source" : [ "obj-8", 0 ],
													"destination" : [ "obj-7", 0 ],
													"hidden" : 0,
													"midpoints" : [  ]
												}

											}
, 											{
												"patchline" : 												{
													"source" : [ "obj-7", 0 ],
													"destination" : [ "obj-5", 0 ],
													"hidden" : 0,
													"midpoints" : [  ]
												}

											}
, 											{
												"patchline" : 												{
													"source" : [ "obj-9", 0 ],
													"destination" : [ "obj-7", 1 ],
													"hidden" : 0,
													"midpoints" : [  ]
												}

											}
, 											{
												"patchline" : 												{
													"source" : [ "obj-6", 0 ],
													"destination" : [ "obj-10", 0 ],
													"hidden" : 0,
													"midpoints" : [  ]
												}

											}
, 											{
												"patchline" : 												{
													"source" : [ "obj-10", 0 ],
													"destination" : [ "obj-8", 0 ],
													"hidden" : 0,
													"midpoints" : [  ]
												}

											}
, 											{
												"patchline" : 												{
													"source" : [ "obj-5", 0 ],
													"destination" : [ "obj-2", 0 ],
													"hidden" : 0,
													"midpoints" : [ 33.5, 238.0, 252.0, 238.0 ]
												}

											}
 ]
									}
,
									"saved_object_attributes" : 									{
										"globalpatchername" : "",
										"default_fontface" : 0,
										"fontface" : 0,
										"fontsize" : 12.0,
										"default_fontname" : "Arial",
										"default_fontsize" : 12.0,
										"fontname" : "Arial"
									}

								}

							}
, 							{
								"box" : 								{
									"maxclass" : "newobj",
									"text" : "route 402",
									"numoutlets" : 2,
									"patching_rect" : [ 28.0, 143.0, 55.0, 17.0 ],
									"outlettype" : [ "", "" ],
									"fontsize" : 9.0,
									"id" : "obj-5",
									"fontname" : "Arial",
									"numinlets" : 1
								}

							}
, 							{
								"box" : 								{
									"maxclass" : "newobj",
									"text" : "route /dbqueryfields",
									"numoutlets" : 2,
									"patching_rect" : [ 28.0, 120.0, 104.0, 17.0 ],
									"outlettype" : [ "", "" ],
									"fontsize" : 9.0,
									"id" : "obj-6",
									"fontname" : "Arial",
									"numinlets" : 1
								}

							}
, 							{
								"box" : 								{
									"maxclass" : "newobj",
									"text" : "r serverreceive",
									"numoutlets" : 1,
									"patching_rect" : [ 28.0, 97.0, 83.0, 17.0 ],
									"outlettype" : [ "" ],
									"fontsize" : 9.0,
									"id" : "obj-7",
									"fontname" : "Arial",
									"numinlets" : 0
								}

							}
, 							{
								"box" : 								{
									"maxclass" : "newobj",
									"text" : "s serversend",
									"numoutlets" : 0,
									"patching_rect" : [ 28.0, 74.0, 69.0, 17.0 ],
									"fontsize" : 9.0,
									"id" : "obj-8",
									"fontname" : "Arial",
									"numinlets" : 1
								}

							}
, 							{
								"box" : 								{
									"maxclass" : "message",
									"text" : "/dbgetqueryfields 402 message",
									"numoutlets" : 1,
									"patching_rect" : [ 28.0, 51.0, 153.0, 15.0 ],
									"outlettype" : [ "" ],
									"fontsize" : 9.0,
									"id" : "obj-9",
									"fontname" : "Arial",
									"numinlets" : 2
								}

							}
 ],
						"lines" : [ 							{
								"patchline" : 								{
									"source" : [ "obj-3", 0 ],
									"destination" : [ "obj-9", 0 ],
									"hidden" : 0,
									"midpoints" : [  ]
								}

							}
, 							{
								"patchline" : 								{
									"source" : [ "obj-9", 0 ],
									"destination" : [ "obj-8", 0 ],
									"hidden" : 0,
									"midpoints" : [  ]
								}

							}
, 							{
								"patchline" : 								{
									"source" : [ "obj-7", 0 ],
									"destination" : [ "obj-6", 0 ],
									"hidden" : 0,
									"midpoints" : [  ]
								}

							}
, 							{
								"patchline" : 								{
									"source" : [ "obj-6", 0 ],
									"destination" : [ "obj-5", 0 ],
									"hidden" : 0,
									"midpoints" : [  ]
								}

							}
, 							{
								"patchline" : 								{
									"source" : [ "obj-5", 0 ],
									"destination" : [ "obj-4", 0 ],
									"hidden" : 0,
									"midpoints" : [  ]
								}

							}
, 							{
								"patchline" : 								{
									"source" : [ "obj-4", 0 ],
									"destination" : [ "obj-2", 0 ],
									"hidden" : 0,
									"midpoints" : [  ]
								}

							}
, 							{
								"patchline" : 								{
									"source" : [ "obj-4", 1 ],
									"destination" : [ "obj-1", 0 ],
									"hidden" : 0,
									"midpoints" : [  ]
								}

							}
 ]
					}
,
					"saved_object_attributes" : 					{
						"globalpatchername" : "",
						"default_fontface" : 0,
						"fontface" : 0,
						"fontsize" : 12.0,
						"default_fontname" : "Arial",
						"default_fontsize" : 12.0,
						"fontname" : "Arial"
					}

				}

			}
, 			{
				"box" : 				{
					"maxclass" : "newobj",
					"text" : "p fields",
					"numoutlets" : 2,
					"patching_rect" : [ 117.0, 127.0, 99.0, 17.0 ],
					"outlettype" : [ "clear", "" ],
					"fontsize" : 9.0,
					"id" : "obj-8",
					"fontname" : "Arial",
					"numinlets" : 1,
					"hidden" : 1,
					"patcher" : 					{
						"fileversion" : 1,
						"appversion" : 						{
							"major" : 5,
							"minor" : 1,
							"revision" : 9
						}
,
						"rect" : [ 755.0, 464.0, 194.0, 271.0 ],
						"bglocked" : 0,
						"defrect" : [ 755.0, 464.0, 194.0, 271.0 ],
						"openrect" : [ 0.0, 0.0, 0.0, 0.0 ],
						"openinpresentation" : 0,
						"default_fontsize" : 12.0,
						"default_fontface" : 0,
						"default_fontname" : "Arial",
						"gridonopen" : 0,
						"gridsize" : [ 15.0, 15.0 ],
						"gridsnaponopen" : 0,
						"toolbarvisible" : 1,
						"boxanimatetime" : 200,
						"imprint" : 0,
						"enablehscroll" : 1,
						"enablevscroll" : 1,
						"devicewidth" : 0.0,
						"boxes" : [ 							{
								"box" : 								{
									"maxclass" : "outlet",
									"numoutlets" : 0,
									"patching_rect" : [ 76.0, 196.0, 15.0, 15.0 ],
									"id" : "obj-1",
									"numinlets" : 1,
									"comment" : ""
								}

							}
, 							{
								"box" : 								{
									"maxclass" : "outlet",
									"numoutlets" : 0,
									"patching_rect" : [ 28.0, 196.0, 15.0, 15.0 ],
									"id" : "obj-2",
									"numinlets" : 1,
									"comment" : ""
								}

							}
, 							{
								"box" : 								{
									"maxclass" : "inlet",
									"numoutlets" : 1,
									"patching_rect" : [ 28.0, 27.0, 15.0, 15.0 ],
									"outlettype" : [ "bang" ],
									"id" : "obj-3",
									"numinlets" : 0,
									"comment" : ""
								}

							}
, 							{
								"box" : 								{
									"maxclass" : "newobj",
									"text" : "p fill",
									"numoutlets" : 2,
									"patching_rect" : [ 28.0, 170.0, 58.0, 17.0 ],
									"outlettype" : [ "clear", "" ],
									"fontsize" : 9.0,
									"id" : "obj-4",
									"fontname" : "Arial",
									"numinlets" : 1,
									"patcher" : 									{
										"fileversion" : 1,
										"appversion" : 										{
											"major" : 5,
											"minor" : 1,
											"revision" : 9
										}
,
										"rect" : [ 20.0, 74.0, 327.0, 384.0 ],
										"bglocked" : 0,
										"defrect" : [ 20.0, 74.0, 327.0, 384.0 ],
										"openrect" : [ 0.0, 0.0, 0.0, 0.0 ],
										"openinpresentation" : 0,
										"default_fontsize" : 12.0,
										"default_fontface" : 0,
										"default_fontname" : "Arial",
										"gridonopen" : 0,
										"gridsize" : [ 15.0, 15.0 ],
										"gridsnaponopen" : 0,
										"toolbarvisible" : 1,
										"boxanimatetime" : 200,
										"imprint" : 0,
										"enablehscroll" : 1,
										"enablevscroll" : 1,
										"devicewidth" : 0.0,
										"boxes" : [ 											{
												"box" : 												{
													"maxclass" : "inlet",
													"numoutlets" : 1,
													"patching_rect" : [ 16.0, 38.0, 15.0, 15.0 ],
													"outlettype" : [ "" ],
													"id" : "obj-1",
													"numinlets" : 0,
													"comment" : ""
												}

											}
, 											{
												"box" : 												{
													"maxclass" : "outlet",
													"numoutlets" : 0,
													"patching_rect" : [ 243.0, 287.0, 15.0, 15.0 ],
													"id" : "obj-2",
													"numinlets" : 1,
													"comment" : ""
												}

											}
, 											{
												"box" : 												{
													"maxclass" : "outlet",
													"numoutlets" : 0,
													"patching_rect" : [ 23.0, 288.0, 15.0, 15.0 ],
													"id" : "obj-3",
													"numinlets" : 1,
													"comment" : ""
												}

											}
, 											{
												"box" : 												{
													"maxclass" : "newobj",
													"text" : "prepend append",
													"numoutlets" : 1,
													"patching_rect" : [ 23.0, 259.0, 78.0, 17.0 ],
													"outlettype" : [ "" ],
													"fontsize" : 9.0,
													"id" : "obj-4",
													"fontname" : "Arial",
													"numinlets" : 1
												}

											}
, 											{
												"box" : 												{
													"maxclass" : "newobj",
													"text" : "route 1",
													"numoutlets" : 2,
													"patching_rect" : [ 24.0, 193.0, 43.0, 17.0 ],
													"outlettype" : [ "", "" ],
													"fontsize" : 9.0,
													"id" : "obj-5",
													"fontname" : "Arial",
													"numinlets" : 1
												}

											}
, 											{
												"box" : 												{
													"maxclass" : "newobj",
													"text" : "t l l clear",
													"numoutlets" : 3,
													"patching_rect" : [ 16.0, 63.0, 237.0, 17.0 ],
													"outlettype" : [ "", "", "clear" ],
													"fontsize" : 9.0,
													"id" : "obj-6",
													"fontname" : "Arial",
													"numinlets" : 1
												}

											}
, 											{
												"box" : 												{
													"maxclass" : "newobj",
													"text" : "== 0",
													"numoutlets" : 1,
													"patching_rect" : [ 24.0, 169.0, 31.0, 17.0 ],
													"outlettype" : [ "int" ],
													"fontsize" : 9.0,
													"id" : "obj-7",
													"fontname" : "Arial",
													"numinlets" : 2
												}

											}
, 											{
												"box" : 												{
													"maxclass" : "newobj",
													"text" : "unpack i s",
													"numoutlets" : 2,
													"patching_rect" : [ 67.0, 138.0, 54.0, 17.0 ],
													"outlettype" : [ "int", "" ],
													"fontsize" : 9.0,
													"id" : "obj-8",
													"fontname" : "Arial",
													"numinlets" : 1
												}

											}
, 											{
												"box" : 												{
													"maxclass" : "newobj",
													"text" : "- 1",
													"numoutlets" : 1,
													"patching_rect" : [ 24.0, 141.0, 34.0, 17.0 ],
													"outlettype" : [ "int" ],
													"fontsize" : 9.0,
													"id" : "obj-9",
													"fontname" : "Arial",
													"numinlets" : 2
												}

											}
, 											{
												"box" : 												{
													"maxclass" : "newobj",
													"text" : "listfunnel",
													"numoutlets" : 1,
													"patching_rect" : [ 67.0, 114.0, 52.0, 17.0 ],
													"outlettype" : [ "list" ],
													"fontsize" : 9.0,
													"id" : "obj-10",
													"fontname" : "Arial",
													"numinlets" : 1
												}

											}
, 											{
												"box" : 												{
													"maxclass" : "newobj",
													"text" : "zl len",
													"numoutlets" : 2,
													"patching_rect" : [ 24.0, 113.0, 34.0, 17.0 ],
													"outlettype" : [ "", "" ],
													"fontsize" : 9.0,
													"id" : "obj-11",
													"fontname" : "Arial",
													"numinlets" : 2
												}

											}
 ],
										"lines" : [ 											{
												"patchline" : 												{
													"source" : [ "obj-1", 0 ],
													"destination" : [ "obj-6", 0 ],
													"hidden" : 0,
													"midpoints" : [  ]
												}

											}
, 											{
												"patchline" : 												{
													"source" : [ "obj-8", 1 ],
													"destination" : [ "obj-4", 0 ],
													"hidden" : 0,
													"midpoints" : [  ]
												}

											}
, 											{
												"patchline" : 												{
													"source" : [ "obj-6", 2 ],
													"destination" : [ "obj-3", 0 ],
													"hidden" : 0,
													"midpoints" : [  ]
												}

											}
, 											{
												"patchline" : 												{
													"source" : [ "obj-4", 0 ],
													"destination" : [ "obj-3", 0 ],
													"hidden" : 0,
													"midpoints" : [  ]
												}

											}
, 											{
												"patchline" : 												{
													"source" : [ "obj-6", 1 ],
													"destination" : [ "obj-11", 0 ],
													"hidden" : 0,
													"midpoints" : [ 134.5, 95.0, 33.5, 95.0 ]
												}

											}
, 											{
												"patchline" : 												{
													"source" : [ "obj-11", 0 ],
													"destination" : [ "obj-9", 0 ],
													"hidden" : 0,
													"midpoints" : [  ]
												}

											}
, 											{
												"patchline" : 												{
													"source" : [ "obj-8", 0 ],
													"destination" : [ "obj-7", 0 ],
													"hidden" : 0,
													"midpoints" : [  ]
												}

											}
, 											{
												"patchline" : 												{
													"source" : [ "obj-7", 0 ],
													"destination" : [ "obj-5", 0 ],
													"hidden" : 0,
													"midpoints" : [  ]
												}

											}
, 											{
												"patchline" : 												{
													"source" : [ "obj-9", 0 ],
													"destination" : [ "obj-7", 1 ],
													"hidden" : 0,
													"midpoints" : [  ]
												}

											}
, 											{
												"patchline" : 												{
													"source" : [ "obj-6", 0 ],
													"destination" : [ "obj-10", 0 ],
													"hidden" : 0,
													"midpoints" : [  ]
												}

											}
, 											{
												"patchline" : 												{
													"source" : [ "obj-10", 0 ],
													"destination" : [ "obj-8", 0 ],
													"hidden" : 0,
													"midpoints" : [  ]
												}

											}
, 											{
												"patchline" : 												{
													"source" : [ "obj-5", 0 ],
													"destination" : [ "obj-2", 0 ],
													"hidden" : 0,
													"midpoints" : [ 33.5, 238.0, 252.0, 238.0 ]
												}

											}
 ]
									}
,
									"saved_object_attributes" : 									{
										"globalpatchername" : "",
										"default_fontface" : 0,
										"fontface" : 0,
										"fontsize" : 12.0,
										"default_fontname" : "Arial",
										"default_fontsize" : 12.0,
										"fontname" : "Arial"
									}

								}

							}
, 							{
								"box" : 								{
									"maxclass" : "newobj",
									"text" : "route 401",
									"numoutlets" : 2,
									"patching_rect" : [ 28.0, 143.0, 55.0, 17.0 ],
									"outlettype" : [ "", "" ],
									"fontsize" : 9.0,
									"id" : "obj-5",
									"fontname" : "Arial",
									"numinlets" : 1
								}

							}
, 							{
								"box" : 								{
									"maxclass" : "newobj",
									"text" : "route /dbfields",
									"numoutlets" : 2,
									"patching_rect" : [ 28.0, 120.0, 78.0, 17.0 ],
									"outlettype" : [ "", "" ],
									"fontsize" : 9.0,
									"id" : "obj-6",
									"fontname" : "Arial",
									"numinlets" : 1
								}

							}
, 							{
								"box" : 								{
									"maxclass" : "newobj",
									"text" : "r serverreceive",
									"numoutlets" : 1,
									"patching_rect" : [ 28.0, 97.0, 83.0, 17.0 ],
									"outlettype" : [ "" ],
									"fontsize" : 9.0,
									"id" : "obj-7",
									"fontname" : "Arial",
									"numinlets" : 0
								}

							}
, 							{
								"box" : 								{
									"maxclass" : "newobj",
									"text" : "s serversend",
									"numoutlets" : 0,
									"patching_rect" : [ 28.0, 74.0, 69.0, 17.0 ],
									"fontsize" : 9.0,
									"id" : "obj-8",
									"fontname" : "Arial",
									"numinlets" : 1
								}

							}
, 							{
								"box" : 								{
									"maxclass" : "message",
									"text" : "/dbgetfields 401 message",
									"numoutlets" : 1,
									"patching_rect" : [ 28.0, 53.0, 127.0, 15.0 ],
									"outlettype" : [ "" ],
									"fontsize" : 9.0,
									"id" : "obj-9",
									"fontname" : "Arial",
									"numinlets" : 2
								}

							}
 ],
						"lines" : [ 							{
								"patchline" : 								{
									"source" : [ "obj-3", 0 ],
									"destination" : [ "obj-9", 0 ],
									"hidden" : 0,
									"midpoints" : [  ]
								}

							}
, 							{
								"patchline" : 								{
									"source" : [ "obj-9", 0 ],
									"destination" : [ "obj-8", 0 ],
									"hidden" : 0,
									"midpoints" : [  ]
								}

							}
, 							{
								"patchline" : 								{
									"source" : [ "obj-7", 0 ],
									"destination" : [ "obj-6", 0 ],
									"hidden" : 0,
									"midpoints" : [  ]
								}

							}
, 							{
								"patchline" : 								{
									"source" : [ "obj-6", 0 ],
									"destination" : [ "obj-5", 0 ],
									"hidden" : 0,
									"midpoints" : [  ]
								}

							}
, 							{
								"patchline" : 								{
									"source" : [ "obj-5", 0 ],
									"destination" : [ "obj-4", 0 ],
									"hidden" : 0,
									"midpoints" : [  ]
								}

							}
, 							{
								"patchline" : 								{
									"source" : [ "obj-4", 0 ],
									"destination" : [ "obj-2", 0 ],
									"hidden" : 0,
									"midpoints" : [  ]
								}

							}
, 							{
								"patchline" : 								{
									"source" : [ "obj-4", 1 ],
									"destination" : [ "obj-1", 0 ],
									"hidden" : 0,
									"midpoints" : [  ]
								}

							}
 ]
					}
,
					"saved_object_attributes" : 					{
						"globalpatchername" : "",
						"default_fontface" : 0,
						"fontface" : 0,
						"fontsize" : 12.0,
						"default_fontname" : "Arial",
						"default_fontsize" : 12.0,
						"fontname" : "Arial"
					}

				}

			}
, 			{
				"box" : 				{
					"maxclass" : "newobj",
					"text" : "route refresh",
					"numoutlets" : 2,
					"patching_rect" : [ 117.0, 41.0, 71.0, 17.0 ],
					"outlettype" : [ "", "" ],
					"fontsize" : 9.0,
					"id" : "obj-3",
					"fontname" : "Arial",
					"numinlets" : 1,
					"hidden" : 1
				}

			}
, 			{
				"box" : 				{
					"maxclass" : "jsui",
					"numoutlets" : 1,
					"patching_rect" : [ 117.0, 65.0, 66.0, 22.0 ],
					"outlettype" : [ "" ],
					"filename" : "jsui_textbutton.js",
					"jsarguments" : [ "Refresh" ],
					"id" : "obj-17",
					"numinlets" : 1,
					"hidden" : 1
				}

			}
, 			{
				"box" : 				{
					"maxclass" : "inlet",
					"numoutlets" : 1,
					"patching_rect" : [ 117.0, 12.0, 15.0, 15.0 ],
					"outlettype" : [ "" ],
					"id" : "obj-18",
					"numinlets" : 0,
					"hidden" : 1,
					"comment" : ""
				}

			}
, 			{
				"box" : 				{
					"maxclass" : "umenu",
					"numoutlets" : 3,
					"framecolor" : [ 0.015686, 0.015686, 0.015686, 1.0 ],
					"types" : [  ],
					"arrow" : 0,
					"patching_rect" : [ 116.0, 300.0, 205.0, 19.0 ],
					"outlettype" : [ "int", "", "" ],
					"discolor" : [ 0.439216, 0.439216, 0.439216, 1.0 ],
					"fontsize" : 11.0,
					"presentation" : 1,
					"bgcolor2" : [ 0.309804, 0.396078, 0.431373, 1.0 ],
					"togcolor" : [ 0.552941, 0.552941, 0.552941, 1.0 ],
					"textcolor" : [ 1.0, 1.0, 1.0, 1.0 ],
					"items" : "<empty>",
					"hltcolor" : [ 0.588235, 0.423529, 0.0, 1.0 ],
					"textcolor2" : [ 1.0, 1.0, 1.0, 1.0 ],
					"bgcolor" : [ 0.043137, 0.078431, 0.090196, 0.258824 ],
					"id" : "obj-43",
					"fontname" : "Arial",
					"numinlets" : 1,
					"presentation_rect" : [ 90.0, 91.0, 239.0, 19.0 ]
				}

			}
, 			{
				"box" : 				{
					"maxclass" : "umenu",
					"numoutlets" : 3,
					"framecolor" : [ 0.015686, 0.015686, 0.015686, 1.0 ],
					"types" : [  ],
					"arrow" : 0,
					"patching_rect" : [ 117.0, 227.0, 205.0, 19.0 ],
					"outlettype" : [ "int", "", "" ],
					"discolor" : [ 0.439216, 0.439216, 0.439216, 1.0 ],
					"fontsize" : 11.0,
					"presentation" : 1,
					"bgcolor2" : [ 0.254902, 0.32549, 0.356863, 1.0 ],
					"togcolor" : [ 0.552941, 0.552941, 0.552941, 1.0 ],
					"textcolor" : [ 1.0, 1.0, 1.0, 1.0 ],
					"items" : "<empty>",
					"arrowcolor" : [ 0.219608, 0.219608, 0.219608, 1.0 ],
					"hltcolor" : [ 0.588235, 0.27451, 0.0, 1.0 ],
					"textcolor2" : [ 1.0, 1.0, 1.0, 1.0 ],
					"bgcolor" : [ 0.258824, 0.32549, 0.356863, 0.317647 ],
					"id" : "obj-47",
					"fontname" : "Arial",
					"numinlets" : 1,
					"presentation_rect" : [ 90.0, 66.0, 239.0, 19.0 ]
				}

			}
, 			{
				"box" : 				{
					"maxclass" : "umenu",
					"numoutlets" : 3,
					"framecolor" : [ 0.015686, 0.015686, 0.015686, 1.0 ],
					"types" : [  ],
					"arrow" : 0,
					"patching_rect" : [ 117.0, 157.0, 205.0, 19.0 ],
					"outlettype" : [ "int", "", "" ],
					"discolor" : [ 0.439216, 0.439216, 0.439216, 1.0 ],
					"fontsize" : 11.0,
					"presentation" : 1,
					"bgcolor2" : [ 0.184314, 0.235294, 0.258824, 1.0 ],
					"togcolor" : [ 0.552941, 0.552941, 0.552941, 1.0 ],
					"textcolor" : [ 1.0, 1.0, 1.0, 1.0 ],
					"items" : "<empty>",
					"hltcolor" : [ 0.564706, 0.141176, 0.086275, 1.0 ],
					"textcolor2" : [ 1.0, 1.0, 1.0, 1.0 ],
					"bgcolor" : [ 0.227451, 0.290196, 0.317647, 0.231373 ],
					"id" : "obj-53",
					"fontname" : "Arial",
					"numinlets" : 1,
					"presentation_rect" : [ 90.0, 42.0, 239.0, 19.0 ]
				}

			}
, 			{
				"box" : 				{
					"maxclass" : "fpic",
					"numoutlets" : 0,
					"patching_rect" : [ 472.0, 62.0, 100.0, 50.0 ],
					"pic" : "database.panel.png",
					"presentation" : 1,
					"id" : "obj-26",
					"numinlets" : 1,
					"presentation_rect" : [ 2.0, 1.0, 347.0, 637.0 ]
				}

			}
, 			{
				"box" : 				{
					"maxclass" : "jsui",
					"numoutlets" : 1,
					"border" : 0,
					"patching_rect" : [ 804.0, 435.0, 106.0, 106.0 ],
					"outlettype" : [ "" ],
					"filename" : "database.js",
					"background" : 1,
					"jsarguments" : [  ],
					"id" : "obj-19",
					"numinlets" : 1,
					"nofsaa" : 1
				}

			}
 ],
		"lines" : [ 			{
				"patchline" : 				{
					"source" : [ "obj-18", 0 ],
					"destination" : [ "obj-10", 0 ],
					"hidden" : 0,
					"midpoints" : [ 126.0, 35.5, 25.5, 35.5 ]
				}

			}
, 			{
				"patchline" : 				{
					"source" : [ "obj-13", 0 ],
					"destination" : [ "obj-10", 0 ],
					"hidden" : 0,
					"midpoints" : [  ]
				}

			}
, 			{
				"patchline" : 				{
					"source" : [ "obj-9", 0 ],
					"destination" : [ "obj-5", 0 ],
					"hidden" : 0,
					"midpoints" : [ 126.5, 121.0, 456.5, 121.0 ]
				}

			}
, 			{
				"patchline" : 				{
					"source" : [ "obj-16", 0 ],
					"destination" : [ "obj-43", 0 ],
					"hidden" : 0,
					"midpoints" : [ 238.5, 295.0, 125.5, 295.0 ]
				}

			}
, 			{
				"patchline" : 				{
					"source" : [ "obj-20", 0 ],
					"destination" : [ "obj-16", 0 ],
					"hidden" : 0,
					"midpoints" : [  ]
				}

			}
, 			{
				"patchline" : 				{
					"source" : [ "obj-47", 1 ],
					"destination" : [ "obj-20", 0 ],
					"hidden" : 0,
					"midpoints" : [ 219.5, 249.0, 238.5, 249.0 ]
				}

			}
, 			{
				"patchline" : 				{
					"source" : [ "obj-4", 1 ],
					"destination" : [ "obj-15", 0 ],
					"hidden" : 0,
					"midpoints" : [  ]
				}

			}
, 			{
				"patchline" : 				{
					"source" : [ "obj-4", 0 ],
					"destination" : [ "obj-43", 0 ],
					"hidden" : 0,
					"midpoints" : [  ]
				}

			}
, 			{
				"patchline" : 				{
					"source" : [ "obj-2", 0 ],
					"destination" : [ "obj-47", 0 ],
					"hidden" : 1,
					"midpoints" : [ 356.5, 224.0, 126.5, 224.0 ]
				}

			}
, 			{
				"patchline" : 				{
					"source" : [ "obj-17", 0 ],
					"destination" : [ "obj-9", 0 ],
					"hidden" : 1,
					"midpoints" : [  ]
				}

			}
, 			{
				"patchline" : 				{
					"source" : [ "obj-9", 1 ],
					"destination" : [ "obj-6", 0 ],
					"hidden" : 1,
					"midpoints" : [ 141.5, 350.5, 209.5, 350.5 ]
				}

			}
, 			{
				"patchline" : 				{
					"source" : [ "obj-9", 0 ],
					"destination" : [ "obj-8", 0 ],
					"hidden" : 1,
					"midpoints" : [  ]
				}

			}
, 			{
				"patchline" : 				{
					"source" : [ "obj-15", 1 ],
					"destination" : [ "obj-6", 1 ],
					"hidden" : 1,
					"midpoints" : [  ]
				}

			}
, 			{
				"patchline" : 				{
					"source" : [ "obj-15", 0 ],
					"destination" : [ "obj-6", 0 ],
					"hidden" : 1,
					"midpoints" : [  ]
				}

			}
, 			{
				"patchline" : 				{
					"source" : [ "obj-47", 1 ],
					"destination" : [ "obj-4", 0 ],
					"hidden" : 1,
					"midpoints" : [ 219.5, 251.0, 125.5, 251.0 ]
				}

			}
, 			{
				"patchline" : 				{
					"source" : [ "obj-1", 0 ],
					"destination" : [ "obj-47", 0 ],
					"hidden" : 1,
					"midpoints" : [ 214.5, 224.0, 126.5, 224.0 ]
				}

			}
, 			{
				"patchline" : 				{
					"source" : [ "obj-8", 0 ],
					"destination" : [ "obj-53", 0 ],
					"hidden" : 1,
					"midpoints" : [  ]
				}

			}
, 			{
				"patchline" : 				{
					"source" : [ "obj-8", 1 ],
					"destination" : [ "obj-7", 0 ],
					"hidden" : 1,
					"midpoints" : [ 206.5, 148.0, 126.5, 148.0 ]
				}

			}
, 			{
				"patchline" : 				{
					"source" : [ "obj-7", 1 ],
					"destination" : [ "obj-1", 0 ],
					"hidden" : 1,
					"midpoints" : [  ]
				}

			}
, 			{
				"patchline" : 				{
					"source" : [ "obj-3", 0 ],
					"destination" : [ "obj-17", 0 ],
					"hidden" : 1,
					"midpoints" : [  ]
				}

			}
, 			{
				"patchline" : 				{
					"source" : [ "obj-18", 0 ],
					"destination" : [ "obj-3", 0 ],
					"hidden" : 1,
					"midpoints" : [  ]
				}

			}
, 			{
				"patchline" : 				{
					"source" : [ "obj-2", 0 ],
					"destination" : [ "obj-53", 0 ],
					"hidden" : 1,
					"midpoints" : [ 356.5, 154.0, 126.5, 154.0 ]
				}

			}
, 			{
				"patchline" : 				{
					"source" : [ "obj-2", 0 ],
					"destination" : [ "obj-43", 0 ],
					"hidden" : 1,
					"midpoints" : [ 356.5, 294.5, 125.5, 294.5 ]
				}

			}
, 			{
				"patchline" : 				{
					"source" : [ "obj-27", 0 ],
					"destination" : [ "obj-28", 0 ],
					"hidden" : 0,
					"midpoints" : [  ]
				}

			}
, 			{
				"patchline" : 				{
					"source" : [ "obj-19", 0 ],
					"destination" : [ "obj-27", 0 ],
					"hidden" : 0,
					"midpoints" : [  ]
				}

			}
, 			{
				"patchline" : 				{
					"source" : [ "obj-12", 0 ],
					"destination" : [ "obj-19", 0 ],
					"hidden" : 0,
					"midpoints" : [  ]
				}

			}
, 			{
				"patchline" : 				{
					"source" : [ "obj-7", 0 ],
					"destination" : [ "obj-47", 0 ],
					"hidden" : 1,
					"midpoints" : [ 126.5, 223.0, 126.5, 223.0 ]
				}

			}
, 			{
				"patchline" : 				{
					"source" : [ "obj-5", 0 ],
					"destination" : [ "obj-11", 0 ],
					"hidden" : 0,
					"midpoints" : [  ]
				}

			}
, 			{
				"patchline" : 				{
					"source" : [ "obj-5", 0 ],
					"destination" : [ "obj-12", 0 ],
					"hidden" : 0,
					"midpoints" : [ 456.5, 404.0, 813.5, 404.0 ]
				}

			}
, 			{
				"patchline" : 				{
					"source" : [ "obj-20", 0 ],
					"destination" : [ "obj-13", 0 ],
					"hidden" : 0,
					"midpoints" : [ 238.5, 293.5, 46.5, 293.5 ]
				}

			}
 ]
	}

}
