{
	"patcher" : 	{
		"fileversion" : 1,
		"appversion" : 		{
			"major" : 5,
			"minor" : 1,
			"revision" : 9
		}
,
		"rect" : [ 51.0, 44.0, 470.0, 441.0 ],
		"bglocked" : 0,
		"defrect" : [ 51.0, 44.0, 470.0, 441.0 ],
		"openrect" : [ 0.0, 0.0, 0.0, 0.0 ],
		"openinpresentation" : 1,
		"default_fontsize" : 12.0,
		"default_fontface" : 0,
		"default_fontname" : "Arial",
		"gridonopen" : 0,
		"gridsize" : [ 15.0, 15.0 ],
		"gridsnaponopen" : 0,
		"toolbarvisible" : 1,
		"boxanimatetime" : 200,
		"imprint" : 0,
		"enablehscroll" : 1,
		"enablevscroll" : 1,
		"devicewidth" : 0.0,
		"boxes" : [ 			{
				"box" : 				{
					"maxclass" : "newobj",
					"text" : "fromsymbol",
					"numoutlets" : 1,
					"patching_rect" : [ 146.0, 51.0, 73.0, 20.0 ],
					"outlettype" : [ "" ],
					"id" : "obj-32",
					"fontname" : "Arial",
					"numinlets" : 1,
					"fontsize" : 12.0
				}

			}
, 			{
				"box" : 				{
					"maxclass" : "button",
					"numoutlets" : 1,
					"patching_rect" : [ 40.0, 153.0, 20.0, 20.0 ],
					"outlettype" : [ "bang" ],
					"id" : "obj-20",
					"numinlets" : 1
				}

			}
, 			{
				"box" : 				{
					"maxclass" : "newobj",
					"text" : "prepend setrange",
					"numoutlets" : 1,
					"patching_rect" : [ 146.0, 252.0, 105.0, 20.0 ],
					"outlettype" : [ "" ],
					"id" : "obj-30",
					"fontname" : "Arial",
					"numinlets" : 1,
					"fontsize" : 12.0
				}

			}
, 			{
				"box" : 				{
					"maxclass" : "newobj",
					"text" : "zl group 2",
					"numoutlets" : 2,
					"patching_rect" : [ 146.0, 229.0, 63.0, 20.0 ],
					"outlettype" : [ "", "" ],
					"id" : "obj-29",
					"fontname" : "Arial",
					"numinlets" : 2,
					"fontsize" : 12.0
				}

			}
, 			{
				"box" : 				{
					"maxclass" : "newobj",
					"text" : "zl nth 1",
					"numoutlets" : 2,
					"patching_rect" : [ 146.0, 179.0, 49.0, 20.0 ],
					"outlettype" : [ "", "" ],
					"id" : "obj-28",
					"fontname" : "Arial",
					"numinlets" : 2,
					"fontsize" : 12.0
				}

			}
, 			{
				"box" : 				{
					"maxclass" : "newobj",
					"text" : "zl nth 1",
					"numoutlets" : 2,
					"patching_rect" : [ 207.0, 180.0, 49.0, 20.0 ],
					"outlettype" : [ "", "" ],
					"id" : "obj-27",
					"fontname" : "Arial",
					"numinlets" : 2,
					"fontsize" : 12.0
				}

			}
, 			{
				"box" : 				{
					"maxclass" : "newobj",
					"text" : "zl sort",
					"numoutlets" : 2,
					"patching_rect" : [ 146.0, 141.0, 43.0, 20.0 ],
					"outlettype" : [ "", "" ],
					"id" : "obj-25",
					"fontname" : "Arial",
					"numinlets" : 2,
					"fontsize" : 12.0
				}

			}
, 			{
				"box" : 				{
					"maxclass" : "newobj",
					"text" : "zl len",
					"numoutlets" : 2,
					"patching_rect" : [ 252.0, 142.0, 39.0, 20.0 ],
					"outlettype" : [ "", "" ],
					"id" : "obj-23",
					"fontname" : "Arial",
					"numinlets" : 2,
					"fontsize" : 12.0
				}

			}
, 			{
				"box" : 				{
					"maxclass" : "newobj",
					"text" : "prepend setdomain 1",
					"numoutlets" : 1,
					"patching_rect" : [ 252.0, 211.0, 123.0, 20.0 ],
					"outlettype" : [ "" ],
					"id" : "obj-19",
					"fontname" : "Arial",
					"numinlets" : 1,
					"fontsize" : 12.0
				}

			}
, 			{
				"box" : 				{
					"maxclass" : "newobj",
					"text" : "counter 0 1 1024",
					"numoutlets" : 4,
					"patching_rect" : [ 40.0, 179.0, 101.0, 20.0 ],
					"outlettype" : [ "int", "", "", "int" ],
					"id" : "obj-26",
					"fontname" : "Arial",
					"numinlets" : 5,
					"fontsize" : 12.0
				}

			}
, 			{
				"box" : 				{
					"maxclass" : "newobj",
					"text" : "zl group 2",
					"numoutlets" : 2,
					"patching_rect" : [ 17.0, 207.0, 63.0, 20.0 ],
					"outlettype" : [ "", "" ],
					"id" : "obj-24",
					"fontname" : "Arial",
					"numinlets" : 2,
					"fontsize" : 12.0
				}

			}
, 			{
				"box" : 				{
					"maxclass" : "newobj",
					"text" : "zl iter 1",
					"numoutlets" : 2,
					"patching_rect" : [ 17.0, 120.0, 49.0, 20.0 ],
					"outlettype" : [ "", "" ],
					"id" : "obj-22",
					"fontname" : "Arial",
					"numinlets" : 2,
					"fontsize" : 12.0
				}

			}
, 			{
				"box" : 				{
					"maxclass" : "button",
					"numoutlets" : 1,
					"patching_rect" : [ 81.0, 153.0, 20.0, 20.0 ],
					"outlettype" : [ "bang" ],
					"id" : "obj-21",
					"numinlets" : 1
				}

			}
, 			{
				"box" : 				{
					"maxclass" : "inlet",
					"numoutlets" : 1,
					"patching_rect" : [ 146.0, 13.0, 25.0, 25.0 ],
					"outlettype" : [ "" ],
					"id" : "obj-16",
					"numinlets" : 0,
					"comment" : ""
				}

			}
, 			{
				"box" : 				{
					"maxclass" : "newobj",
					"text" : "loadbang",
					"numoutlets" : 1,
					"patching_rect" : [ 392.0, 213.0, 60.0, 20.0 ],
					"outlettype" : [ "bang" ],
					"id" : "obj-7",
					"fontname" : "Arial",
					"numinlets" : 1,
					"fontsize" : 12.0
				}

			}
, 			{
				"box" : 				{
					"maxclass" : "message",
					"text" : "clear",
					"numoutlets" : 1,
					"patching_rect" : [ 370.0, 249.0, 37.0, 18.0 ],
					"outlettype" : [ "" ],
					"id" : "obj-8",
					"fontname" : "Arial",
					"numinlets" : 2,
					"fontsize" : 12.0
				}

			}
, 			{
				"box" : 				{
					"maxclass" : "sa.function",
					"numoutlets" : 4,
					"patching_rect" : [ 17.0, 309.0, 200.0, 100.0 ],
					"outlettype" : [ "float", "list", "list", "bang" ],
					"presentation" : 1,
					"id" : "obj-2",
					"readlinecolor" : [ 1.0, 1.0, 0.0, 0.8 ],
					"pointhovercolor" : [ 1.0, 0.760784, 0.0, 1.0 ],
					"bordercolor" : [ 0.501961, 0.501961, 0.501961, 0.0 ],
					"bgcolor" : [ 0.878431, 0.878431, 0.878431, 0.0 ],
					"pointfixcolor" : [ 0.84, 0.74, 0.43, 0.0 ],
					"textcolor" : [ 1.0, 0.701961, 0.0, 1.0 ],
					"assistlinecolor" : [ 0.898039, 1.0, 0.0, 1.0 ],
					"linecolor" : [ 1.0, 0.0, 0.0, 1.0 ],
					"numinlets" : 1,
					"presentation_rect" : [ -1.0, -1.0, 125.0, 70.0 ],
					"bglinecolor" : [ 0.4, 0.356863, 0.356863, 0.0 ],
					"hidepoints" : 1,
					"pointcolor" : [ 1.0, 0.0, 0.0, 0.0 ]
				}

			}
 ],
		"lines" : [ 			{
				"patchline" : 				{
					"source" : [ "obj-27", 0 ],
					"destination" : [ "obj-29", 0 ],
					"hidden" : 0,
					"midpoints" : [ 216.5, 214.0, 155.5, 214.0 ]
				}

			}
, 			{
				"patchline" : 				{
					"source" : [ "obj-28", 0 ],
					"destination" : [ "obj-29", 0 ],
					"hidden" : 0,
					"midpoints" : [  ]
				}

			}
, 			{
				"patchline" : 				{
					"source" : [ "obj-32", 0 ],
					"destination" : [ "obj-8", 0 ],
					"hidden" : 0,
					"midpoints" : [ 155.5, 90.0, 379.5, 90.0 ]
				}

			}
, 			{
				"patchline" : 				{
					"source" : [ "obj-25", 0 ],
					"destination" : [ "obj-27", 0 ],
					"hidden" : 0,
					"midpoints" : [ 155.5, 170.0, 216.5, 170.0 ]
				}

			}
, 			{
				"patchline" : 				{
					"source" : [ "obj-25", 0 ],
					"destination" : [ "obj-28", 0 ],
					"hidden" : 0,
					"midpoints" : [  ]
				}

			}
, 			{
				"patchline" : 				{
					"source" : [ "obj-23", 0 ],
					"destination" : [ "obj-28", 1 ],
					"hidden" : 0,
					"midpoints" : [ 261.5, 170.0, 185.5, 170.0 ]
				}

			}
, 			{
				"patchline" : 				{
					"source" : [ "obj-7", 0 ],
					"destination" : [ "obj-8", 0 ],
					"hidden" : 0,
					"midpoints" : [ 401.5, 242.5, 379.5, 242.5 ]
				}

			}
, 			{
				"patchline" : 				{
					"source" : [ "obj-22", 0 ],
					"destination" : [ "obj-24", 0 ],
					"hidden" : 0,
					"midpoints" : [  ]
				}

			}
, 			{
				"patchline" : 				{
					"source" : [ "obj-26", 0 ],
					"destination" : [ "obj-24", 0 ],
					"hidden" : 0,
					"midpoints" : [ 49.5, 202.5, 26.5, 202.5 ]
				}

			}
, 			{
				"patchline" : 				{
					"source" : [ "obj-21", 0 ],
					"destination" : [ "obj-26", 2 ],
					"hidden" : 0,
					"midpoints" : [ 90.5, 171.5, 90.5, 171.5 ]
				}

			}
, 			{
				"patchline" : 				{
					"source" : [ "obj-20", 0 ],
					"destination" : [ "obj-26", 0 ],
					"hidden" : 0,
					"midpoints" : [  ]
				}

			}
, 			{
				"patchline" : 				{
					"source" : [ "obj-22", 0 ],
					"destination" : [ "obj-20", 0 ],
					"hidden" : 0,
					"midpoints" : [ 26.5, 147.0, 49.5, 147.0 ]
				}

			}
, 			{
				"patchline" : 				{
					"source" : [ "obj-16", 0 ],
					"destination" : [ "obj-32", 0 ],
					"hidden" : 0,
					"midpoints" : [  ]
				}

			}
, 			{
				"patchline" : 				{
					"source" : [ "obj-32", 0 ],
					"destination" : [ "obj-23", 0 ],
					"hidden" : 0,
					"midpoints" : [ 155.5, 84.0, 261.5, 84.0 ]
				}

			}
, 			{
				"patchline" : 				{
					"source" : [ "obj-32", 0 ],
					"destination" : [ "obj-25", 0 ],
					"hidden" : 0,
					"midpoints" : [ 155.5, 84.0, 155.5, 84.0 ]
				}

			}
, 			{
				"patchline" : 				{
					"source" : [ "obj-32", 0 ],
					"destination" : [ "obj-21", 0 ],
					"hidden" : 0,
					"midpoints" : [ 155.5, 126.5, 90.5, 126.5 ]
				}

			}
, 			{
				"patchline" : 				{
					"source" : [ "obj-32", 0 ],
					"destination" : [ "obj-22", 0 ],
					"hidden" : 0,
					"midpoints" : [ 155.5, 111.5, 26.5, 111.5 ]
				}

			}
, 			{
				"patchline" : 				{
					"source" : [ "obj-23", 0 ],
					"destination" : [ "obj-19", 0 ],
					"hidden" : 0,
					"midpoints" : [  ]
				}

			}
, 			{
				"patchline" : 				{
					"source" : [ "obj-29", 0 ],
					"destination" : [ "obj-30", 0 ],
					"hidden" : 0,
					"midpoints" : [  ]
				}

			}
, 			{
				"patchline" : 				{
					"source" : [ "obj-24", 0 ],
					"destination" : [ "obj-2", 0 ],
					"hidden" : 0,
					"midpoints" : [ 26.5, 267.5, 26.5, 267.5 ]
				}

			}
, 			{
				"patchline" : 				{
					"source" : [ "obj-30", 0 ],
					"destination" : [ "obj-2", 0 ],
					"hidden" : 0,
					"midpoints" : [ 155.5, 290.0, 26.5, 290.0 ]
				}

			}
, 			{
				"patchline" : 				{
					"source" : [ "obj-19", 0 ],
					"destination" : [ "obj-2", 0 ],
					"hidden" : 0,
					"midpoints" : [ 261.5, 297.5, 26.5, 297.5 ]
				}

			}
, 			{
				"patchline" : 				{
					"source" : [ "obj-8", 0 ],
					"destination" : [ "obj-2", 0 ],
					"hidden" : 0,
					"midpoints" : [ 379.5, 282.5, 26.5, 282.5 ]
				}

			}
 ]
	}

}
