{
	"patcher" : 	{
		"fileversion" : 1,
		"appversion" : 		{
			"major" : 5,
			"minor" : 1,
			"revision" : 9
		}
,
		"rect" : [ 0.0, 44.0, 1015.0, 726.0 ],
		"bglocked" : 0,
		"defrect" : [ 0.0, 44.0, 1015.0, 726.0 ],
		"openrect" : [ 0.0, 0.0, 0.0, 0.0 ],
		"openinpresentation" : 1,
		"default_fontsize" : 12.0,
		"default_fontface" : 0,
		"default_fontname" : "Arial",
		"gridonopen" : 0,
		"gridsize" : [ 15.0, 15.0 ],
		"gridsnaponopen" : 0,
		"toolbarvisible" : 1,
		"boxanimatetime" : 200,
		"imprint" : 0,
		"enablehscroll" : 1,
		"enablevscroll" : 1,
		"devicewidth" : 0.0,
		"boxes" : [ 			{
				"box" : 				{
					"maxclass" : "button",
					"numinlets" : 1,
					"patching_rect" : [ 630.0, 813.0, 20.0, 20.0 ],
					"id" : "obj-41",
					"numoutlets" : 1,
					"outlettype" : [ "bang" ]
				}

			}
, 			{
				"box" : 				{
					"maxclass" : "newobj",
					"text" : "tosymbol",
					"numinlets" : 1,
					"patching_rect" : [ 651.0, 892.0, 59.0, 20.0 ],
					"id" : "obj-22",
					"fontname" : "Arial",
					"numoutlets" : 1,
					"outlettype" : [ "" ],
					"fontsize" : 12.0
				}

			}
, 			{
				"box" : 				{
					"maxclass" : "newobj",
					"text" : "zl 512 len",
					"numinlets" : 2,
					"patching_rect" : [ 695.0, 794.0, 62.0, 20.0 ],
					"id" : "obj-19",
					"fontname" : "Arial",
					"numoutlets" : 2,
					"outlettype" : [ "", "" ],
					"fontsize" : 12.0
				}

			}
, 			{
				"box" : 				{
					"maxclass" : "newobj",
					"text" : "minimum 64",
					"numinlets" : 2,
					"patching_rect" : [ 695.0, 820.0, 76.0, 20.0 ],
					"id" : "obj-14",
					"fontname" : "Arial",
					"numoutlets" : 2,
					"outlettype" : [ "int", "int" ],
					"fontsize" : 12.0
				}

			}
, 			{
				"box" : 				{
					"maxclass" : "button",
					"numinlets" : 1,
					"patching_rect" : [ 518.0, 871.0, 20.0, 20.0 ],
					"id" : "obj-40",
					"numoutlets" : 1,
					"outlettype" : [ "bang" ]
				}

			}
, 			{
				"box" : 				{
					"maxclass" : "message",
					"numinlets" : 2,
					"patching_rect" : [ 518.0, 895.0, 41.0, 18.0 ],
					"id" : "obj-38",
					"fontname" : "Arial",
					"numoutlets" : 1,
					"outlettype" : [ "" ],
					"fontsize" : 12.0
				}

			}
, 			{
				"box" : 				{
					"maxclass" : "newobj",
					"text" : "zl group 3",
					"numinlets" : 2,
					"patching_rect" : [ 651.0, 854.0, 63.0, 20.0 ],
					"id" : "obj-20",
					"fontname" : "Arial",
					"numoutlets" : 2,
					"outlettype" : [ "", "" ],
					"fontsize" : 12.0
				}

			}
, 			{
				"box" : 				{
					"maxclass" : "newobj",
					"text" : "print filt",
					"numinlets" : 1,
					"patching_rect" : [ 440.0, 976.0, 49.0, 20.0 ],
					"id" : "obj-58",
					"fontname" : "Arial",
					"numoutlets" : 0,
					"fontsize" : 12.0
				}

			}
, 			{
				"box" : 				{
					"maxclass" : "button",
					"numinlets" : 1,
					"patching_rect" : [ 706.0, 885.0, 20.0, 20.0 ],
					"id" : "obj-37",
					"numoutlets" : 1,
					"outlettype" : [ "bang" ]
				}

			}
, 			{
				"box" : 				{
					"maxclass" : "message",
					"numinlets" : 2,
					"patching_rect" : [ 706.0, 908.0, 139.0, 18.0 ],
					"id" : "obj-36",
					"fontname" : "Arial",
					"numoutlets" : 1,
					"outlettype" : [ "" ],
					"fontsize" : 12.0
				}

			}
, 			{
				"box" : 				{
					"maxclass" : "newobj",
					"text" : "append (null)",
					"numinlets" : 1,
					"patching_rect" : [ 826.0, 846.0, 81.0, 20.0 ],
					"id" : "obj-35",
					"fontname" : "Arial",
					"numoutlets" : 1,
					"outlettype" : [ "" ],
					"fontsize" : 12.0
				}

			}
, 			{
				"box" : 				{
					"maxclass" : "newobj",
					"text" : "prepend /setfilter 432",
					"numinlets" : 1,
					"patching_rect" : [ 826.0, 817.0, 123.0, 20.0 ],
					"id" : "obj-34",
					"fontname" : "Arial",
					"numoutlets" : 1,
					"outlettype" : [ "" ],
					"fontsize" : 12.0
				}

			}
, 			{
				"box" : 				{
					"maxclass" : "message",
					"text" : "getcolumn 0",
					"numinlets" : 2,
					"patching_rect" : [ 411.0, 578.0, 76.0, 18.0 ],
					"id" : "obj-45",
					"fontname" : "Arial",
					"numoutlets" : 1,
					"outlettype" : [ "" ],
					"fontsize" : 12.0
				}

			}
, 			{
				"box" : 				{
					"maxclass" : "matrixctrl",
					"varname" : "checkMatrix",
					"columns" : 1,
					"presentation_rect" : [ 2.0, 49.0, 22.0, 15.0 ],
					"cellpict" : "checkMatrix.pct",
					"numinlets" : 1,
					"patching_rect" : [ 200.0, 611.0, 130.0, 66.0 ],
					"presentation" : 1,
					"id" : "obj-42",
					"numoutlets" : 2,
					"outlettype" : [ "list", "list" ],
					"rows" : 5
				}

			}
, 			{
				"box" : 				{
					"maxclass" : "message",
					"text" : "clear",
					"numinlets" : 2,
					"patching_rect" : [ 768.0, 517.0, 37.0, 18.0 ],
					"id" : "obj-32",
					"fontname" : "Arial",
					"numoutlets" : 1,
					"outlettype" : [ "" ],
					"fontsize" : 12.0
				}

			}
, 			{
				"box" : 				{
					"maxclass" : "message",
					"text" : "zlclear",
					"numinlets" : 2,
					"patching_rect" : [ 716.0, 517.0, 45.0, 18.0 ],
					"id" : "obj-25",
					"fontname" : "Arial",
					"numoutlets" : 1,
					"outlettype" : [ "" ],
					"fontsize" : 12.0
				}

			}
, 			{
				"box" : 				{
					"maxclass" : "newobj",
					"text" : "loadbang",
					"numinlets" : 1,
					"patching_rect" : [ 768.0, 486.0, 60.0, 20.0 ],
					"id" : "obj-24",
					"fontname" : "Arial",
					"numoutlets" : 1,
					"outlettype" : [ "bang" ],
					"fontsize" : 12.0
				}

			}
, 			{
				"box" : 				{
					"maxclass" : "button",
					"numinlets" : 1,
					"patching_rect" : [ 755.0, 241.0, 20.0, 20.0 ],
					"id" : "obj-23",
					"numoutlets" : 1,
					"outlettype" : [ "bang" ]
				}

			}
, 			{
				"box" : 				{
					"maxclass" : "inlet",
					"numinlets" : 0,
					"patching_rect" : [ 755.0, 197.0, 25.0, 25.0 ],
					"id" : "obj-17",
					"numoutlets" : 1,
					"outlettype" : [ "" ],
					"comment" : ""
				}

			}
, 			{
				"box" : 				{
					"maxclass" : "newobj",
					"text" : "prepend rows",
					"numinlets" : 1,
					"patching_rect" : [ 580.0, 347.0, 83.0, 20.0 ],
					"id" : "obj-15",
					"fontname" : "Arial",
					"numoutlets" : 1,
					"outlettype" : [ "" ],
					"fontsize" : 12.0
				}

			}
, 			{
				"box" : 				{
					"maxclass" : "message",
					"text" : "rows 0",
					"numinlets" : 2,
					"patching_rect" : [ 593.0, 388.0, 59.0, 18.0 ],
					"id" : "obj-6",
					"fontname" : "Arial",
					"numoutlets" : 1,
					"outlettype" : [ "" ],
					"fontsize" : 12.0
				}

			}
, 			{
				"box" : 				{
					"maxclass" : "newobj",
					"text" : "sprintf /setfilter 432 %s %s",
					"numinlets" : 2,
					"patching_rect" : [ 518.0, 922.0, 152.0, 20.0 ],
					"id" : "obj-7",
					"fontname" : "Arial",
					"numoutlets" : 1,
					"outlettype" : [ "" ],
					"fontsize" : 12.0
				}

			}
, 			{
				"box" : 				{
					"maxclass" : "newobj",
					"text" : "fromsymbol",
					"numinlets" : 1,
					"patching_rect" : [ 338.0, 108.0, 73.0, 20.0 ],
					"id" : "obj-16",
					"fontname" : "Arial",
					"numoutlets" : 1,
					"outlettype" : [ "" ],
					"fontsize" : 12.0
				}

			}
, 			{
				"box" : 				{
					"maxclass" : "textbutton",
					"presentation_rect" : [ 113.0, 24.0, 76.0, 23.0 ],
					"text" : "Apply",
					"numinlets" : 1,
					"patching_rect" : [ 786.0, 69.0, 100.0, 20.0 ],
					"presentation" : 1,
					"id" : "obj-33",
					"fontname" : "Arial",
					"numoutlets" : 3,
					"outlettype" : [ "", "", "int" ],
					"fontsize" : 12.0
				}

			}
, 			{
				"box" : 				{
					"maxclass" : "newobj",
					"text" : "s serversend",
					"numinlets" : 1,
					"patching_rect" : [ 518.0, 977.0, 79.0, 20.0 ],
					"id" : "obj-273",
					"fontname" : "Arial",
					"numoutlets" : 0,
					"hidden" : 1,
					"fontsize" : 12.0
				}

			}
, 			{
				"box" : 				{
					"maxclass" : "newobj",
					"text" : "prepend append",
					"numinlets" : 1,
					"patching_rect" : [ 401.0, 896.0, 98.0, 20.0 ],
					"id" : "obj-271",
					"fontname" : "Arial",
					"numoutlets" : 1,
					"outlettype" : [ "" ],
					"hidden" : 1,
					"fontsize" : 12.0
				}

			}
, 			{
				"box" : 				{
					"maxclass" : "message",
					"text" : "pp p mf f ff",
					"numinlets" : 2,
					"patching_rect" : [ 651.0, 762.0, 139.0, 18.0 ],
					"id" : "obj-270",
					"fontname" : "Arial",
					"numoutlets" : 1,
					"outlettype" : [ "" ],
					"hidden" : 1,
					"fontsize" : 12.0
				}

			}
, 			{
				"box" : 				{
					"maxclass" : "newobj",
					"text" : "t b b l set b",
					"numinlets" : 1,
					"patching_rect" : [ 441.0, 725.0, 73.0, 20.0 ],
					"id" : "obj-269",
					"fontname" : "Arial",
					"numoutlets" : 5,
					"outlettype" : [ "bang", "bang", "", "set", "bang" ],
					"hidden" : 1,
					"fontsize" : 12.0
				}

			}
, 			{
				"box" : 				{
					"maxclass" : "newobj",
					"text" : "gate 1 0",
					"numinlets" : 2,
					"patching_rect" : [ 467.0, 826.0, 54.0, 20.0 ],
					"id" : "obj-266",
					"fontname" : "Arial",
					"numoutlets" : 1,
					"outlettype" : [ "" ],
					"hidden" : 1,
					"fontsize" : 12.0
				}

			}
, 			{
				"box" : 				{
					"maxclass" : "newobj",
					"text" : "unpack",
					"numinlets" : 1,
					"patching_rect" : [ 468.0, 786.0, 49.0, 20.0 ],
					"id" : "obj-265",
					"fontname" : "Arial",
					"numoutlets" : 2,
					"outlettype" : [ "int", "int" ],
					"hidden" : 1,
					"fontsize" : 12.0
				}

			}
, 			{
				"box" : 				{
					"maxclass" : "newobj",
					"text" : "listfunnel",
					"numinlets" : 1,
					"patching_rect" : [ 468.0, 762.0, 58.0, 20.0 ],
					"id" : "obj-264",
					"fontname" : "Arial",
					"numoutlets" : 1,
					"outlettype" : [ "list" ],
					"hidden" : 1,
					"fontsize" : 12.0
				}

			}
, 			{
				"box" : 				{
					"maxclass" : "newobj",
					"text" : "zl 512 reg",
					"numinlets" : 2,
					"patching_rect" : [ 562.0, 694.0, 63.0, 20.0 ],
					"id" : "obj-263",
					"fontname" : "Arial",
					"numoutlets" : 2,
					"outlettype" : [ "", "" ],
					"hidden" : 1,
					"fontsize" : 12.0
				}

			}
, 			{
				"box" : 				{
					"maxclass" : "comment",
					"text" : "Apply",
					"numinlets" : 1,
					"patching_rect" : [ 446.0, 673.0, 76.0, 20.0 ],
					"id" : "obj-262",
					"fontname" : "Arial",
					"numoutlets" : 0,
					"hidden" : 1,
					"fontsize" : 12.0
				}

			}
, 			{
				"box" : 				{
					"maxclass" : "textbutton",
					"presentation_rect" : [ 4.0, 24.0, 50.0, 23.0 ],
					"text" : "None",
					"numinlets" : 1,
					"patching_rect" : [ 121.0, 483.0, 84.0, 23.0 ],
					"presentation" : 1,
					"id" : "obj-31",
					"fontname" : "Arial",
					"numoutlets" : 3,
					"outlettype" : [ "", "", "int" ],
					"fontsize" : 12.0
				}

			}
, 			{
				"box" : 				{
					"maxclass" : "textbutton",
					"presentation_rect" : [ 56.0, 24.0, 50.0, 23.0 ],
					"text" : "All",
					"numinlets" : 1,
					"patching_rect" : [ 214.0, 484.0, 84.0, 23.0 ],
					"presentation" : 1,
					"id" : "obj-30",
					"fontname" : "Arial",
					"numoutlets" : 3,
					"outlettype" : [ "", "", "int" ],
					"fontsize" : 12.0
				}

			}
, 			{
				"box" : 				{
					"maxclass" : "newobj",
					"text" : "p zeros",
					"numinlets" : 1,
					"patching_rect" : [ 146.0, 572.0, 61.0, 20.0 ],
					"id" : "obj-2069",
					"fontname" : "Arial",
					"numoutlets" : 1,
					"outlettype" : [ "" ],
					"hidden" : 1,
					"fontsize" : 12.0,
					"patcher" : 					{
						"fileversion" : 1,
						"appversion" : 						{
							"major" : 5,
							"minor" : 1,
							"revision" : 9
						}
,
						"rect" : [ 446.0, 235.0, 333.0, 412.0 ],
						"bglocked" : 0,
						"defrect" : [ 446.0, 235.0, 333.0, 412.0 ],
						"openrect" : [ 0.0, 0.0, 0.0, 0.0 ],
						"openinpresentation" : 0,
						"default_fontsize" : 12.0,
						"default_fontface" : 0,
						"default_fontname" : "Arial",
						"gridonopen" : 0,
						"gridsize" : [ 15.0, 15.0 ],
						"gridsnaponopen" : 0,
						"toolbarvisible" : 1,
						"boxanimatetime" : 200,
						"imprint" : 0,
						"enablehscroll" : 1,
						"enablevscroll" : 1,
						"devicewidth" : 0.0,
						"visible" : 1,
						"boxes" : [ 							{
								"box" : 								{
									"maxclass" : "newobj",
									"text" : "- 1",
									"numinlets" : 2,
									"patching_rect" : [ 44.0, 200.0, 32.5, 20.0 ],
									"id" : "obj-6",
									"fontname" : "Arial",
									"numoutlets" : 1,
									"outlettype" : [ "int" ],
									"fontsize" : 12.0
								}

							}
, 							{
								"box" : 								{
									"maxclass" : "newobj",
									"text" : "t 0",
									"numinlets" : 1,
									"patching_rect" : [ 109.0, 200.0, 24.0, 20.0 ],
									"id" : "obj-8",
									"fontname" : "Arial",
									"numoutlets" : 1,
									"outlettype" : [ "int" ],
									"fontsize" : 12.0
								}

							}
, 							{
								"box" : 								{
									"maxclass" : "newobj",
									"text" : "route int bang",
									"numinlets" : 1,
									"patching_rect" : [ 18.0, 49.0, 84.0, 20.0 ],
									"id" : "obj-2",
									"fontname" : "Arial",
									"numoutlets" : 3,
									"outlettype" : [ "", "", "" ],
									"fontsize" : 12.0
								}

							}
, 							{
								"box" : 								{
									"maxclass" : "outlet",
									"numinlets" : 1,
									"patching_rect" : [ 30.0, 317.0, 25.0, 25.0 ],
									"id" : "obj-13",
									"numoutlets" : 0,
									"comment" : ""
								}

							}
, 							{
								"box" : 								{
									"maxclass" : "inlet",
									"numinlets" : 0,
									"patching_rect" : [ 19.0, 10.0, 25.0, 25.0 ],
									"id" : "obj-12",
									"numoutlets" : 1,
									"outlettype" : [ "" ],
									"comment" : ""
								}

							}
, 							{
								"box" : 								{
									"maxclass" : "message",
									"text" : "1 10 0",
									"numinlets" : 2,
									"patching_rect" : [ 63.0, 311.0, 182.0, 18.0 ],
									"id" : "obj-7",
									"fontname" : "Arial",
									"numoutlets" : 1,
									"outlettype" : [ "" ],
									"fontsize" : 12.0
								}

							}
, 							{
								"box" : 								{
									"maxclass" : "number",
									"numinlets" : 1,
									"patching_rect" : [ 29.0, 104.0, 50.0, 20.0 ],
									"id" : "obj-5",
									"fontname" : "Arial",
									"numoutlets" : 2,
									"outlettype" : [ "int", "bang" ],
									"fontsize" : 12.0
								}

							}
, 							{
								"box" : 								{
									"maxclass" : "newobj",
									"text" : "t 0",
									"numinlets" : 1,
									"patching_rect" : [ 11.0, 200.0, 24.0, 20.0 ],
									"id" : "obj-4",
									"fontname" : "Arial",
									"numoutlets" : 1,
									"outlettype" : [ "int" ],
									"fontsize" : 12.0
								}

							}
, 							{
								"box" : 								{
									"maxclass" : "newobj",
									"text" : "uzi 0",
									"numinlets" : 2,
									"patching_rect" : [ 58.0, 166.0, 46.0, 20.0 ],
									"id" : "obj-3",
									"fontname" : "Arial",
									"numoutlets" : 3,
									"outlettype" : [ "bang", "bang", "int" ],
									"fontsize" : 12.0
								}

							}
, 							{
								"box" : 								{
									"maxclass" : "newobj",
									"text" : "t b i i b",
									"numinlets" : 1,
									"patching_rect" : [ 84.0, 130.0, 100.5, 20.0 ],
									"id" : "obj-1",
									"fontname" : "Arial",
									"numoutlets" : 4,
									"outlettype" : [ "bang", "int", "int", "bang" ],
									"fontsize" : 12.0
								}

							}
, 							{
								"box" : 								{
									"maxclass" : "message",
									"text" : "zlclear",
									"numinlets" : 2,
									"patching_rect" : [ 188.0, 189.0, 49.0, 18.0 ],
									"id" : "obj-1987",
									"fontname" : "Arial",
									"numoutlets" : 1,
									"outlettype" : [ "" ],
									"fontsize" : 12.0
								}

							}
, 							{
								"box" : 								{
									"maxclass" : "newobj",
									"text" : "zl 1024 group 3",
									"numinlets" : 2,
									"patching_rect" : [ 30.0, 235.0, 93.0, 20.0 ],
									"id" : "obj-1982",
									"fontname" : "Arial",
									"numoutlets" : 2,
									"outlettype" : [ "", "" ],
									"fontsize" : 12.0
								}

							}
 ],
						"lines" : [ 							{
								"patchline" : 								{
									"source" : [ "obj-6", 0 ],
									"destination" : [ "obj-1982", 0 ],
									"hidden" : 0,
									"midpoints" : [  ]
								}

							}
, 							{
								"patchline" : 								{
									"source" : [ "obj-3", 2 ],
									"destination" : [ "obj-6", 0 ],
									"hidden" : 0,
									"midpoints" : [  ]
								}

							}
, 							{
								"patchline" : 								{
									"source" : [ "obj-4", 0 ],
									"destination" : [ "obj-1982", 0 ],
									"hidden" : 0,
									"midpoints" : [  ]
								}

							}
, 							{
								"patchline" : 								{
									"source" : [ "obj-1987", 0 ],
									"destination" : [ "obj-1982", 0 ],
									"hidden" : 0,
									"midpoints" : [  ]
								}

							}
, 							{
								"patchline" : 								{
									"source" : [ "obj-1982", 0 ],
									"destination" : [ "obj-7", 1 ],
									"hidden" : 0,
									"midpoints" : [  ]
								}

							}
, 							{
								"patchline" : 								{
									"source" : [ "obj-1982", 0 ],
									"destination" : [ "obj-13", 0 ],
									"hidden" : 0,
									"midpoints" : [  ]
								}

							}
, 							{
								"patchline" : 								{
									"source" : [ "obj-2", 0 ],
									"destination" : [ "obj-5", 0 ],
									"hidden" : 0,
									"midpoints" : [  ]
								}

							}
, 							{
								"patchline" : 								{
									"source" : [ "obj-12", 0 ],
									"destination" : [ "obj-2", 0 ],
									"hidden" : 0,
									"midpoints" : [  ]
								}

							}
, 							{
								"patchline" : 								{
									"source" : [ "obj-1", 3 ],
									"destination" : [ "obj-1987", 0 ],
									"hidden" : 0,
									"midpoints" : [  ]
								}

							}
, 							{
								"patchline" : 								{
									"source" : [ "obj-1", 0 ],
									"destination" : [ "obj-3", 0 ],
									"hidden" : 0,
									"midpoints" : [  ]
								}

							}
, 							{
								"patchline" : 								{
									"source" : [ "obj-3", 2 ],
									"destination" : [ "obj-4", 0 ],
									"hidden" : 0,
									"midpoints" : [  ]
								}

							}
, 							{
								"patchline" : 								{
									"source" : [ "obj-5", 0 ],
									"destination" : [ "obj-3", 1 ],
									"hidden" : 0,
									"midpoints" : [  ]
								}

							}
, 							{
								"patchline" : 								{
									"source" : [ "obj-2", 1 ],
									"destination" : [ "obj-1", 0 ],
									"hidden" : 0,
									"midpoints" : [  ]
								}

							}
, 							{
								"patchline" : 								{
									"source" : [ "obj-3", 2 ],
									"destination" : [ "obj-8", 0 ],
									"hidden" : 0,
									"midpoints" : [  ]
								}

							}
, 							{
								"patchline" : 								{
									"source" : [ "obj-8", 0 ],
									"destination" : [ "obj-1982", 0 ],
									"hidden" : 0,
									"midpoints" : [  ]
								}

							}
 ]
					}
,
					"saved_object_attributes" : 					{
						"default_fontname" : "Arial",
						"default_fontsize" : 12.0,
						"fontname" : "Arial",
						"globalpatchername" : "",
						"fontface" : 0,
						"default_fontface" : 0,
						"fontsize" : 12.0
					}

				}

			}
, 			{
				"box" : 				{
					"maxclass" : "newobj",
					"text" : "p ones",
					"numinlets" : 1,
					"patching_rect" : [ 310.0, 571.0, 58.0, 20.0 ],
					"id" : "obj-1989",
					"fontname" : "Arial",
					"numoutlets" : 1,
					"outlettype" : [ "" ],
					"hidden" : 1,
					"fontsize" : 12.0,
					"patcher" : 					{
						"fileversion" : 1,
						"appversion" : 						{
							"major" : 5,
							"minor" : 1,
							"revision" : 9
						}
,
						"rect" : [ 51.0, 321.0, 353.0, 424.0 ],
						"bglocked" : 0,
						"defrect" : [ 51.0, 321.0, 353.0, 424.0 ],
						"openrect" : [ 0.0, 0.0, 0.0, 0.0 ],
						"openinpresentation" : 0,
						"default_fontsize" : 12.0,
						"default_fontface" : 0,
						"default_fontname" : "Arial",
						"gridonopen" : 0,
						"gridsize" : [ 15.0, 15.0 ],
						"gridsnaponopen" : 0,
						"toolbarvisible" : 1,
						"boxanimatetime" : 200,
						"imprint" : 0,
						"enablehscroll" : 1,
						"enablevscroll" : 1,
						"devicewidth" : 0.0,
						"boxes" : [ 							{
								"box" : 								{
									"maxclass" : "newobj",
									"text" : "- 1",
									"numinlets" : 2,
									"patching_rect" : [ 83.0, 235.0, 32.5, 20.0 ],
									"id" : "obj-2",
									"fontname" : "Arial",
									"numoutlets" : 1,
									"outlettype" : [ "int" ],
									"fontsize" : 12.0
								}

							}
, 							{
								"box" : 								{
									"maxclass" : "newobj",
									"text" : "t 0",
									"numinlets" : 1,
									"patching_rect" : [ 146.0, 229.0, 24.0, 20.0 ],
									"id" : "obj-10",
									"fontname" : "Arial",
									"numoutlets" : 1,
									"outlettype" : [ "int" ],
									"fontsize" : 12.0
								}

							}
, 							{
								"box" : 								{
									"maxclass" : "newobj",
									"text" : "route int bang",
									"numinlets" : 1,
									"patching_rect" : [ 92.0, 74.0, 84.0, 20.0 ],
									"id" : "obj-14",
									"fontname" : "Arial",
									"numoutlets" : 3,
									"outlettype" : [ "", "", "" ],
									"fontsize" : 12.0
								}

							}
, 							{
								"box" : 								{
									"maxclass" : "outlet",
									"numinlets" : 1,
									"patching_rect" : [ 71.0, 346.0, 25.0, 25.0 ],
									"id" : "obj-13",
									"numoutlets" : 0,
									"comment" : ""
								}

							}
, 							{
								"box" : 								{
									"maxclass" : "inlet",
									"numinlets" : 0,
									"patching_rect" : [ 92.0, 35.0, 25.0, 25.0 ],
									"id" : "obj-12",
									"numoutlets" : 1,
									"outlettype" : [ "" ],
									"comment" : ""
								}

							}
, 							{
								"box" : 								{
									"maxclass" : "message",
									"text" : "0 4 1",
									"numinlets" : 2,
									"patching_rect" : [ 104.0, 340.0, 37.0, 18.0 ],
									"id" : "obj-7",
									"fontname" : "Arial",
									"numoutlets" : 1,
									"outlettype" : [ "" ],
									"fontsize" : 12.0
								}

							}
, 							{
								"box" : 								{
									"maxclass" : "number",
									"numinlets" : 1,
									"patching_rect" : [ 125.0, 127.0, 50.0, 20.0 ],
									"id" : "obj-5",
									"fontname" : "Arial",
									"numoutlets" : 2,
									"outlettype" : [ "int", "bang" ],
									"fontsize" : 12.0
								}

							}
, 							{
								"box" : 								{
									"maxclass" : "newobj",
									"text" : "t 1",
									"numinlets" : 1,
									"patching_rect" : [ 26.0, 233.0, 23.0, 20.0 ],
									"id" : "obj-4",
									"fontname" : "Arial",
									"numoutlets" : 1,
									"outlettype" : [ "int" ],
									"fontsize" : 12.0
								}

							}
, 							{
								"box" : 								{
									"maxclass" : "newobj",
									"text" : "uzi 0",
									"numinlets" : 2,
									"patching_rect" : [ 101.0, 198.0, 46.0, 20.0 ],
									"id" : "obj-3",
									"fontname" : "Arial",
									"numoutlets" : 3,
									"outlettype" : [ "bang", "bang", "int" ],
									"fontsize" : 12.0
								}

							}
, 							{
								"box" : 								{
									"maxclass" : "newobj",
									"text" : "t b i i b",
									"numinlets" : 1,
									"patching_rect" : [ 138.0, 158.0, 99.5, 20.0 ],
									"id" : "obj-1",
									"fontname" : "Arial",
									"numoutlets" : 4,
									"outlettype" : [ "bang", "int", "int", "bang" ],
									"fontsize" : 12.0
								}

							}
, 							{
								"box" : 								{
									"maxclass" : "message",
									"text" : "zlclear",
									"numinlets" : 2,
									"patching_rect" : [ 227.0, 233.0, 49.0, 18.0 ],
									"id" : "obj-1987",
									"fontname" : "Arial",
									"numoutlets" : 1,
									"outlettype" : [ "" ],
									"fontsize" : 12.0
								}

							}
, 							{
								"box" : 								{
									"maxclass" : "newobj",
									"text" : "zl 1024 group 3",
									"numinlets" : 2,
									"patching_rect" : [ 72.0, 263.0, 93.0, 20.0 ],
									"id" : "obj-1982",
									"fontname" : "Arial",
									"numoutlets" : 2,
									"outlettype" : [ "", "" ],
									"fontsize" : 12.0
								}

							}
 ],
						"lines" : [ 							{
								"patchline" : 								{
									"source" : [ "obj-2", 0 ],
									"destination" : [ "obj-1982", 0 ],
									"hidden" : 0,
									"midpoints" : [  ]
								}

							}
, 							{
								"patchline" : 								{
									"source" : [ "obj-3", 2 ],
									"destination" : [ "obj-2", 0 ],
									"hidden" : 0,
									"midpoints" : [  ]
								}

							}
, 							{
								"patchline" : 								{
									"source" : [ "obj-1987", 0 ],
									"destination" : [ "obj-1982", 0 ],
									"hidden" : 0,
									"midpoints" : [  ]
								}

							}
, 							{
								"patchline" : 								{
									"source" : [ "obj-4", 0 ],
									"destination" : [ "obj-1982", 0 ],
									"hidden" : 0,
									"midpoints" : [  ]
								}

							}
, 							{
								"patchline" : 								{
									"source" : [ "obj-1982", 0 ],
									"destination" : [ "obj-7", 1 ],
									"hidden" : 0,
									"midpoints" : [  ]
								}

							}
, 							{
								"patchline" : 								{
									"source" : [ "obj-1982", 0 ],
									"destination" : [ "obj-13", 0 ],
									"hidden" : 0,
									"midpoints" : [  ]
								}

							}
, 							{
								"patchline" : 								{
									"source" : [ "obj-7", 0 ],
									"destination" : [ "obj-13", 0 ],
									"hidden" : 0,
									"midpoints" : [  ]
								}

							}
, 							{
								"patchline" : 								{
									"source" : [ "obj-14", 0 ],
									"destination" : [ "obj-5", 0 ],
									"hidden" : 0,
									"midpoints" : [  ]
								}

							}
, 							{
								"patchline" : 								{
									"source" : [ "obj-12", 0 ],
									"destination" : [ "obj-14", 0 ],
									"hidden" : 0,
									"midpoints" : [  ]
								}

							}
, 							{
								"patchline" : 								{
									"source" : [ "obj-3", 2 ],
									"destination" : [ "obj-4", 0 ],
									"hidden" : 0,
									"midpoints" : [  ]
								}

							}
, 							{
								"patchline" : 								{
									"source" : [ "obj-1", 3 ],
									"destination" : [ "obj-1987", 0 ],
									"hidden" : 0,
									"midpoints" : [  ]
								}

							}
, 							{
								"patchline" : 								{
									"source" : [ "obj-14", 1 ],
									"destination" : [ "obj-1987", 0 ],
									"hidden" : 0,
									"midpoints" : [  ]
								}

							}
, 							{
								"patchline" : 								{
									"source" : [ "obj-1", 0 ],
									"destination" : [ "obj-3", 0 ],
									"hidden" : 0,
									"midpoints" : [  ]
								}

							}
, 							{
								"patchline" : 								{
									"source" : [ "obj-5", 0 ],
									"destination" : [ "obj-3", 1 ],
									"hidden" : 0,
									"midpoints" : [  ]
								}

							}
, 							{
								"patchline" : 								{
									"source" : [ "obj-14", 1 ],
									"destination" : [ "obj-1", 0 ],
									"hidden" : 0,
									"midpoints" : [  ]
								}

							}
, 							{
								"patchline" : 								{
									"source" : [ "obj-3", 2 ],
									"destination" : [ "obj-10", 0 ],
									"hidden" : 0,
									"midpoints" : [  ]
								}

							}
, 							{
								"patchline" : 								{
									"source" : [ "obj-10", 0 ],
									"destination" : [ "obj-1982", 0 ],
									"hidden" : 0,
									"midpoints" : [  ]
								}

							}
 ]
					}
,
					"saved_object_attributes" : 					{
						"default_fontname" : "Arial",
						"default_fontsize" : 12.0,
						"fontname" : "Arial",
						"globalpatchername" : "",
						"fontface" : 0,
						"default_fontface" : 0,
						"fontsize" : 12.0
					}

				}

			}
, 			{
				"box" : 				{
					"maxclass" : "button",
					"numinlets" : 1,
					"patching_rect" : [ 444.0, 336.0, 20.0, 20.0 ],
					"id" : "obj-113",
					"numoutlets" : 1,
					"outlettype" : [ "bang" ],
					"hidden" : 1
				}

			}
, 			{
				"box" : 				{
					"maxclass" : "newobj",
					"text" : "- 1",
					"numinlets" : 2,
					"patching_rect" : [ 620.0, 430.0, 32.5, 20.0 ],
					"id" : "obj-99",
					"fontname" : "Arial",
					"numoutlets" : 1,
					"outlettype" : [ "int" ],
					"hidden" : 1,
					"fontsize" : 12.0
				}

			}
, 			{
				"box" : 				{
					"maxclass" : "newobj",
					"text" : "zl 512 reg",
					"numinlets" : 2,
					"patching_rect" : [ 625.0, 577.0, 63.0, 20.0 ],
					"id" : "obj-97",
					"fontname" : "Arial",
					"numoutlets" : 2,
					"outlettype" : [ "", "" ],
					"hidden" : 1,
					"fontsize" : 12.0
				}

			}
, 			{
				"box" : 				{
					"maxclass" : "newobj",
					"text" : "zl 512 stream",
					"numinlets" : 2,
					"patching_rect" : [ 507.0, 625.0, 83.0, 20.0 ],
					"id" : "obj-95",
					"fontname" : "Arial",
					"numoutlets" : 2,
					"outlettype" : [ "", "" ],
					"hidden" : 1,
					"fontsize" : 12.0
				}

			}
, 			{
				"box" : 				{
					"maxclass" : "newobj",
					"text" : "t b i 0",
					"numinlets" : 1,
					"patching_rect" : [ 473.0, 396.0, 97.0, 20.0 ],
					"id" : "obj-94",
					"fontname" : "Arial",
					"numoutlets" : 3,
					"outlettype" : [ "bang", "int", "int" ],
					"hidden" : 1,
					"fontsize" : 12.0
				}

			}
, 			{
				"box" : 				{
					"maxclass" : "newobj",
					"text" : "uzi",
					"numinlets" : 2,
					"patching_rect" : [ 444.0, 360.0, 48.0, 20.0 ],
					"id" : "obj-93",
					"fontname" : "Arial",
					"numoutlets" : 3,
					"outlettype" : [ "bang", "bang", "int" ],
					"hidden" : 1,
					"fontsize" : 12.0
				}

			}
, 			{
				"box" : 				{
					"maxclass" : "umenu",
					"items" : "<empty>",
					"numinlets" : 1,
					"patching_rect" : [ 332.0, 871.0, 157.0, 20.0 ],
					"id" : "obj-55",
					"fontname" : "Arial",
					"numoutlets" : 3,
					"types" : [  ],
					"outlettype" : [ "int", "", "" ],
					"hidden" : 1,
					"fontsize" : 12.0
				}

			}
, 			{
				"box" : 				{
					"maxclass" : "newobj",
					"text" : "thispatcher",
					"numinlets" : 1,
					"patching_rect" : [ 382.0, 404.0, 69.0, 20.0 ],
					"id" : "obj-26",
					"fontname" : "Arial",
					"numoutlets" : 2,
					"outlettype" : [ "", "" ],
					"hidden" : 1,
					"fontsize" : 12.0,
					"save" : [ "#N", "thispatcher", ";", "#Q", "end", ";" ]
				}

			}
, 			{
				"box" : 				{
					"maxclass" : "newobj",
					"text" : "p fill_check_boxes",
					"numinlets" : 3,
					"patching_rect" : [ 382.0, 283.0, 217.0, 20.0 ],
					"id" : "obj-18",
					"fontname" : "Arial",
					"numoutlets" : 2,
					"outlettype" : [ "", "int" ],
					"hidden" : 1,
					"fontsize" : 12.0,
					"patcher" : 					{
						"fileversion" : 1,
						"appversion" : 						{
							"major" : 5,
							"minor" : 1,
							"revision" : 9
						}
,
						"rect" : [ 267.0, 170.0, 878.0, 500.0 ],
						"bglocked" : 0,
						"defrect" : [ 267.0, 170.0, 878.0, 500.0 ],
						"openrect" : [ 0.0, 0.0, 0.0, 0.0 ],
						"openinpresentation" : 0,
						"default_fontsize" : 12.0,
						"default_fontface" : 0,
						"default_fontname" : "Arial",
						"gridonopen" : 0,
						"gridsize" : [ 15.0, 15.0 ],
						"gridsnaponopen" : 0,
						"toolbarvisible" : 1,
						"boxanimatetime" : 200,
						"imprint" : 0,
						"enablehscroll" : 1,
						"enablevscroll" : 1,
						"devicewidth" : 0.0,
						"boxes" : [ 							{
								"box" : 								{
									"maxclass" : "newobj",
									"text" : "- 30",
									"numinlets" : 2,
									"patching_rect" : [ 560.0, 366.0, 32.5, 20.0 ],
									"id" : "obj-18",
									"fontname" : "Arial",
									"numoutlets" : 1,
									"outlettype" : [ "int" ],
									"fontsize" : 12.0
								}

							}
, 							{
								"box" : 								{
									"maxclass" : "newobj",
									"text" : "loadbang",
									"numinlets" : 1,
									"patching_rect" : [ 739.0, 116.0, 60.0, 20.0 ],
									"id" : "obj-15",
									"fontname" : "Arial",
									"numoutlets" : 1,
									"outlettype" : [ "bang" ],
									"fontsize" : 12.0
								}

							}
, 							{
								"box" : 								{
									"maxclass" : "newobj",
									"text" : "prepend script sendbox",
									"numinlets" : 1,
									"patching_rect" : [ 473.0, 452.0, 135.0, 20.0 ],
									"id" : "obj-14",
									"fontname" : "Arial",
									"numoutlets" : 1,
									"outlettype" : [ "" ],
									"fontsize" : 12.0
								}

							}
, 							{
								"box" : 								{
									"maxclass" : "newobj",
									"text" : "sprintf checkMatrix presentation_rect 2 49 22 %d",
									"numinlets" : 1,
									"patching_rect" : [ 473.0, 423.0, 271.0, 20.0 ],
									"id" : "obj-7",
									"fontname" : "Arial",
									"numoutlets" : 1,
									"outlettype" : [ "" ],
									"fontsize" : 12.0
								}

							}
, 							{
								"box" : 								{
									"maxclass" : "newobj",
									"text" : "+ 1",
									"numinlets" : 2,
									"patching_rect" : [ 680.0, 308.0, 32.5, 20.0 ],
									"id" : "obj-6",
									"fontname" : "Arial",
									"numoutlets" : 1,
									"outlettype" : [ "int" ],
									"fontsize" : 12.0
								}

							}
, 							{
								"box" : 								{
									"maxclass" : "newobj",
									"text" : "+ 49",
									"numinlets" : 2,
									"patching_rect" : [ 680.0, 243.0, 34.0, 20.0 ],
									"id" : "obj-9",
									"fontname" : "Arial",
									"numoutlets" : 1,
									"outlettype" : [ "int" ],
									"fontsize" : 12.0
								}

							}
, 							{
								"box" : 								{
									"maxclass" : "newobj",
									"text" : "* 20",
									"numinlets" : 2,
									"patching_rect" : [ 680.0, 219.0, 32.5, 20.0 ],
									"id" : "obj-5",
									"fontname" : "Arial",
									"numoutlets" : 1,
									"outlettype" : [ "int" ],
									"fontsize" : 12.0
								}

							}
, 							{
								"box" : 								{
									"maxclass" : "message",
									"text" : "-1",
									"numinlets" : 2,
									"patching_rect" : [ 739.0, 171.0, 32.5, 18.0 ],
									"id" : "obj-4",
									"fontname" : "Arial",
									"numoutlets" : 1,
									"outlettype" : [ "" ],
									"fontsize" : 12.0
								}

							}
, 							{
								"box" : 								{
									"maxclass" : "button",
									"numinlets" : 1,
									"patching_rect" : [ 739.0, 145.0, 20.0, 20.0 ],
									"id" : "obj-3",
									"numoutlets" : 1,
									"outlettype" : [ "bang" ]
								}

							}
, 							{
								"box" : 								{
									"maxclass" : "button",
									"numinlets" : 1,
									"patching_rect" : [ 680.0, 167.0, 20.0, 20.0 ],
									"id" : "obj-2",
									"numoutlets" : 1,
									"outlettype" : [ "bang" ]
								}

							}
, 							{
								"box" : 								{
									"maxclass" : "newobj",
									"text" : "counter -1 0 512",
									"numinlets" : 5,
									"patching_rect" : [ 680.0, 195.0, 98.0, 20.0 ],
									"id" : "obj-1",
									"fontname" : "Arial",
									"numoutlets" : 4,
									"outlettype" : [ "int", "", "", "int" ],
									"fontsize" : 12.0
								}

							}
, 							{
								"box" : 								{
									"maxclass" : "newobj",
									"text" : "+ 2",
									"numinlets" : 2,
									"patching_rect" : [ 449.0, 237.0, 32.5, 20.0 ],
									"id" : "obj-1365",
									"fontname" : "Arial",
									"numoutlets" : 1,
									"outlettype" : [ "int" ],
									"fontsize" : 12.0
								}

							}
, 							{
								"box" : 								{
									"maxclass" : "newobj",
									"text" : "tosymbol",
									"numinlets" : 1,
									"patching_rect" : [ 536.0, 208.0, 59.0, 20.0 ],
									"id" : "obj-756",
									"fontname" : "Arial",
									"numoutlets" : 1,
									"outlettype" : [ "" ],
									"fontsize" : 12.0
								}

							}
, 							{
								"box" : 								{
									"maxclass" : "newobj",
									"text" : "sprintf label%d set %s",
									"numinlets" : 2,
									"patching_rect" : [ 426.0, 317.0, 129.0, 20.0 ],
									"id" : "obj-755",
									"fontname" : "Arial",
									"numoutlets" : 1,
									"outlettype" : [ "" ],
									"fontsize" : 12.0
								}

							}
, 							{
								"box" : 								{
									"maxclass" : "newobj",
									"text" : "prepend script send",
									"numinlets" : 1,
									"patching_rect" : [ 426.0, 349.0, 116.0, 20.0 ],
									"id" : "obj-754",
									"fontname" : "Arial",
									"numoutlets" : 1,
									"outlettype" : [ "" ],
									"fontsize" : 12.0
								}

							}
, 							{
								"box" : 								{
									"maxclass" : "newobj",
									"text" : "- 1",
									"numinlets" : 2,
									"patching_rect" : [ 77.0, 281.0, 32.5, 20.0 ],
									"id" : "obj-449",
									"fontname" : "Arial",
									"numoutlets" : 1,
									"outlettype" : [ "int" ],
									"fontsize" : 12.0
								}

							}
, 							{
								"box" : 								{
									"maxclass" : "newobj",
									"text" : "prepend script delete",
									"numinlets" : 1,
									"patching_rect" : [ 77.0, 337.0, 123.0, 20.0 ],
									"id" : "obj-212",
									"fontname" : "Arial",
									"numoutlets" : 1,
									"outlettype" : [ "" ],
									"fontsize" : 12.0
								}

							}
, 							{
								"box" : 								{
									"maxclass" : "newobj",
									"text" : "sprintf label%d",
									"numinlets" : 1,
									"patching_rect" : [ 77.0, 309.0, 89.0, 20.0 ],
									"id" : "obj-211",
									"fontname" : "Arial",
									"numoutlets" : 1,
									"outlettype" : [ "" ],
									"fontsize" : 12.0
								}

							}
, 							{
								"box" : 								{
									"maxclass" : "newobj",
									"text" : "uzi 0",
									"numinlets" : 2,
									"patching_rect" : [ 50.0, 253.0, 46.0, 20.0 ],
									"id" : "obj-210",
									"fontname" : "Arial",
									"numoutlets" : 3,
									"outlettype" : [ "bang", "bang", "int" ],
									"fontsize" : 12.0
								}

							}
, 							{
								"box" : 								{
									"maxclass" : "newobj",
									"text" : "prepend script newobject",
									"numinlets" : 1,
									"patching_rect" : [ 215.0, 314.0, 144.0, 20.0 ],
									"id" : "obj-39",
									"fontname" : "Arial",
									"numoutlets" : 1,
									"outlettype" : [ "" ],
									"fontsize" : 12.0
								}

							}
, 							{
								"box" : 								{
									"maxclass" : "newobj",
									"text" : "t i i i",
									"numinlets" : 1,
									"patching_rect" : [ 337.0, 178.0, 131.0, 20.0 ],
									"id" : "obj-37",
									"fontname" : "Arial",
									"numoutlets" : 3,
									"outlettype" : [ "int", "int", "int" ],
									"fontsize" : 12.0
								}

							}
, 							{
								"box" : 								{
									"maxclass" : "newobj",
									"text" : "sprintf comment @varname label%d @text %s @fontsize 12 @presentation 1 @presentation_position 26 %d @presentation_rect 26 %d 10 %d @orderfront 1",
									"linecount" : 2,
									"numinlets" : 5,
									"patching_rect" : [ 215.0, 267.0, 594.0, 34.0 ],
									"id" : "obj-35",
									"fontname" : "Arial",
									"numoutlets" : 1,
									"outlettype" : [ "" ],
									"fontsize" : 12.0
								}

							}
, 							{
								"box" : 								{
									"maxclass" : "newobj",
									"text" : "* 20",
									"numinlets" : 2,
									"patching_rect" : [ 449.0, 212.0, 32.5, 20.0 ],
									"id" : "obj-34",
									"fontname" : "Arial",
									"numoutlets" : 1,
									"outlettype" : [ "int" ],
									"fontsize" : 12.0
								}

							}
, 							{
								"box" : 								{
									"maxclass" : "newobj",
									"text" : "zl slice 1",
									"numinlets" : 2,
									"patching_rect" : [ 337.0, 134.0, 57.0, 20.0 ],
									"id" : "obj-33",
									"fontname" : "Arial",
									"numoutlets" : 2,
									"outlettype" : [ "", "" ],
									"fontsize" : 12.0
								}

							}
, 							{
								"box" : 								{
									"maxclass" : "newobj",
									"text" : "listfunnel",
									"numinlets" : 1,
									"patching_rect" : [ 337.0, 100.0, 58.0, 20.0 ],
									"id" : "obj-32",
									"fontname" : "Arial",
									"numoutlets" : 1,
									"outlettype" : [ "list" ],
									"fontsize" : 12.0
								}

							}
, 							{
								"box" : 								{
									"maxclass" : "inlet",
									"numinlets" : 0,
									"patching_rect" : [ 50.0, 40.0, 25.0, 25.0 ],
									"id" : "obj-8",
									"numoutlets" : 1,
									"outlettype" : [ "bang" ],
									"comment" : ""
								}

							}
, 							{
								"box" : 								{
									"maxclass" : "inlet",
									"numinlets" : 0,
									"patching_rect" : [ 77.0, 40.0, 25.0, 25.0 ],
									"id" : "obj-10",
									"numoutlets" : 1,
									"outlettype" : [ "" ],
									"comment" : ""
								}

							}
, 							{
								"box" : 								{
									"maxclass" : "inlet",
									"numinlets" : 0,
									"patching_rect" : [ 337.0, 40.0, 25.0, 25.0 ],
									"id" : "obj-13",
									"numoutlets" : 1,
									"outlettype" : [ "" ],
									"comment" : ""
								}

							}
, 							{
								"box" : 								{
									"maxclass" : "outlet",
									"numinlets" : 1,
									"patching_rect" : [ 215.333313, 501.0, 25.0, 25.0 ],
									"id" : "obj-16",
									"numoutlets" : 0,
									"comment" : ""
								}

							}
, 							{
								"box" : 								{
									"maxclass" : "outlet",
									"numinlets" : 1,
									"patching_rect" : [ 252.0, 500.0, 25.0, 25.0 ],
									"id" : "obj-17",
									"numoutlets" : 0,
									"comment" : ""
								}

							}
 ],
						"lines" : [ 							{
								"patchline" : 								{
									"source" : [ "obj-756", 0 ],
									"destination" : [ "obj-35", 1 ],
									"hidden" : 0,
									"midpoints" : [  ]
								}

							}
, 							{
								"patchline" : 								{
									"source" : [ "obj-37", 1 ],
									"destination" : [ "obj-35", 0 ],
									"hidden" : 0,
									"midpoints" : [ 402.5, 226.5, 224.5, 226.5 ]
								}

							}
, 							{
								"patchline" : 								{
									"source" : [ "obj-1365", 0 ],
									"destination" : [ "obj-35", 3 ],
									"hidden" : 0,
									"midpoints" : [  ]
								}

							}
, 							{
								"patchline" : 								{
									"source" : [ "obj-35", 0 ],
									"destination" : [ "obj-39", 0 ],
									"hidden" : 0,
									"midpoints" : [  ]
								}

							}
, 							{
								"patchline" : 								{
									"source" : [ "obj-9", 0 ],
									"destination" : [ "obj-35", 4 ],
									"hidden" : 0,
									"midpoints" : [  ]
								}

							}
, 							{
								"patchline" : 								{
									"source" : [ "obj-9", 0 ],
									"destination" : [ "obj-35", 2 ],
									"hidden" : 0,
									"midpoints" : [  ]
								}

							}
, 							{
								"patchline" : 								{
									"source" : [ "obj-7", 0 ],
									"destination" : [ "obj-14", 0 ],
									"hidden" : 0,
									"midpoints" : [  ]
								}

							}
, 							{
								"patchline" : 								{
									"source" : [ "obj-18", 0 ],
									"destination" : [ "obj-7", 0 ],
									"hidden" : 0,
									"midpoints" : [  ]
								}

							}
, 							{
								"patchline" : 								{
									"source" : [ "obj-1", 0 ],
									"destination" : [ "obj-37", 0 ],
									"hidden" : 0,
									"midpoints" : [ 689.5, 168.0, 518.0, 168.0, 518.0, 168.0, 346.5, 168.0 ]
								}

							}
, 							{
								"patchline" : 								{
									"source" : [ "obj-34", 0 ],
									"destination" : [ "obj-1365", 0 ],
									"hidden" : 0,
									"midpoints" : [  ]
								}

							}
, 							{
								"patchline" : 								{
									"source" : [ "obj-37", 2 ],
									"destination" : [ "obj-34", 0 ],
									"hidden" : 0,
									"midpoints" : [  ]
								}

							}
, 							{
								"patchline" : 								{
									"source" : [ "obj-754", 0 ],
									"destination" : [ "obj-16", 0 ],
									"hidden" : 0,
									"midpoints" : [ 435.5, 434.5, 224.833313, 434.5 ]
								}

							}
, 							{
								"patchline" : 								{
									"source" : [ "obj-13", 0 ],
									"destination" : [ "obj-32", 0 ],
									"hidden" : 0,
									"midpoints" : [  ]
								}

							}
, 							{
								"patchline" : 								{
									"source" : [ "obj-10", 0 ],
									"destination" : [ "obj-210", 1 ],
									"hidden" : 0,
									"midpoints" : [  ]
								}

							}
, 							{
								"patchline" : 								{
									"source" : [ "obj-8", 0 ],
									"destination" : [ "obj-210", 0 ],
									"hidden" : 0,
									"midpoints" : [  ]
								}

							}
, 							{
								"patchline" : 								{
									"source" : [ "obj-32", 0 ],
									"destination" : [ "obj-33", 0 ],
									"hidden" : 0,
									"midpoints" : [  ]
								}

							}
, 							{
								"patchline" : 								{
									"source" : [ "obj-211", 0 ],
									"destination" : [ "obj-212", 0 ],
									"hidden" : 0,
									"midpoints" : [  ]
								}

							}
, 							{
								"patchline" : 								{
									"source" : [ "obj-449", 0 ],
									"destination" : [ "obj-211", 0 ],
									"hidden" : 0,
									"midpoints" : [  ]
								}

							}
, 							{
								"patchline" : 								{
									"source" : [ "obj-210", 2 ],
									"destination" : [ "obj-449", 0 ],
									"hidden" : 0,
									"midpoints" : [  ]
								}

							}
, 							{
								"patchline" : 								{
									"source" : [ "obj-33", 1 ],
									"destination" : [ "obj-756", 0 ],
									"hidden" : 0,
									"midpoints" : [ 384.5, 167.5, 545.5, 167.5 ]
								}

							}
, 							{
								"patchline" : 								{
									"source" : [ "obj-756", 0 ],
									"destination" : [ "obj-755", 1 ],
									"hidden" : 0,
									"midpoints" : [  ]
								}

							}
, 							{
								"patchline" : 								{
									"source" : [ "obj-37", 0 ],
									"destination" : [ "obj-755", 0 ],
									"hidden" : 0,
									"midpoints" : [ 346.5, 249.0, 435.5, 249.0 ]
								}

							}
, 							{
								"patchline" : 								{
									"source" : [ "obj-755", 0 ],
									"destination" : [ "obj-754", 0 ],
									"hidden" : 0,
									"midpoints" : [  ]
								}

							}
, 							{
								"patchline" : 								{
									"source" : [ "obj-33", 0 ],
									"destination" : [ "obj-2", 0 ],
									"hidden" : 0,
									"midpoints" : [ 346.5, 161.0, 689.5, 161.0 ]
								}

							}
, 							{
								"patchline" : 								{
									"source" : [ "obj-3", 0 ],
									"destination" : [ "obj-4", 0 ],
									"hidden" : 0,
									"midpoints" : [  ]
								}

							}
, 							{
								"patchline" : 								{
									"source" : [ "obj-39", 0 ],
									"destination" : [ "obj-16", 0 ],
									"hidden" : 0,
									"midpoints" : [  ]
								}

							}
, 							{
								"patchline" : 								{
									"source" : [ "obj-5", 0 ],
									"destination" : [ "obj-9", 0 ],
									"hidden" : 0,
									"midpoints" : [  ]
								}

							}
, 							{
								"patchline" : 								{
									"source" : [ "obj-2", 0 ],
									"destination" : [ "obj-1", 0 ],
									"hidden" : 0,
									"midpoints" : [  ]
								}

							}
, 							{
								"patchline" : 								{
									"source" : [ "obj-4", 0 ],
									"destination" : [ "obj-1", 3 ],
									"hidden" : 0,
									"midpoints" : [  ]
								}

							}
, 							{
								"patchline" : 								{
									"source" : [ "obj-1", 0 ],
									"destination" : [ "obj-5", 0 ],
									"hidden" : 0,
									"midpoints" : [  ]
								}

							}
, 							{
								"patchline" : 								{
									"source" : [ "obj-1", 0 ],
									"destination" : [ "obj-6", 0 ],
									"hidden" : 0,
									"midpoints" : [  ]
								}

							}
, 							{
								"patchline" : 								{
									"source" : [ "obj-6", 0 ],
									"destination" : [ "obj-17", 0 ],
									"hidden" : 0,
									"midpoints" : [ 689.5, 413.5, 261.5, 413.5 ]
								}

							}
, 							{
								"patchline" : 								{
									"source" : [ "obj-14", 0 ],
									"destination" : [ "obj-16", 0 ],
									"hidden" : 0,
									"midpoints" : [ 482.5, 486.0, 224.833313, 486.0 ]
								}

							}
, 							{
								"patchline" : 								{
									"source" : [ "obj-15", 0 ],
									"destination" : [ "obj-3", 0 ],
									"hidden" : 0,
									"midpoints" : [  ]
								}

							}
, 							{
								"patchline" : 								{
									"source" : [ "obj-9", 0 ],
									"destination" : [ "obj-18", 0 ],
									"hidden" : 0,
									"midpoints" : [  ]
								}

							}
 ]
					}
,
					"saved_object_attributes" : 					{
						"default_fontname" : "Arial",
						"default_fontsize" : 12.0,
						"fontname" : "Arial",
						"globalpatchername" : "",
						"fontface" : 0,
						"default_fontface" : 0,
						"fontsize" : 12.0
					}

				}

			}
, 			{
				"box" : 				{
					"maxclass" : "inlet",
					"numinlets" : 0,
					"patching_rect" : [ 338.0, 41.0, 25.0, 25.0 ],
					"id" : "obj-28",
					"numoutlets" : 1,
					"outlettype" : [ "" ],
					"hidden" : 1,
					"comment" : ""
				}

			}
, 			{
				"box" : 				{
					"maxclass" : "newobj",
					"text" : "t i i zlclear",
					"numinlets" : 1,
					"patching_rect" : [ 624.0, 247.0, 64.0, 20.0 ],
					"id" : "obj-1990",
					"fontname" : "Arial",
					"numoutlets" : 3,
					"outlettype" : [ "int", "int", "zlclear" ],
					"hidden" : 1,
					"fontsize" : 12.0
				}

			}
, 			{
				"box" : 				{
					"maxclass" : "newobj",
					"text" : "b",
					"numinlets" : 1,
					"patching_rect" : [ 417.0, 108.0, 133.5, 20.0 ],
					"id" : "obj-833",
					"fontname" : "Arial",
					"numoutlets" : 2,
					"outlettype" : [ "bang", "bang" ],
					"hidden" : 1,
					"fontsize" : 12.0
				}

			}
, 			{
				"box" : 				{
					"maxclass" : "newobj",
					"text" : "zl 512 len",
					"numinlets" : 2,
					"patching_rect" : [ 481.0, 214.0, 62.0, 20.0 ],
					"id" : "obj-27",
					"fontname" : "Arial",
					"numoutlets" : 2,
					"outlettype" : [ "", "" ],
					"hidden" : 1,
					"fontsize" : 12.0
				}

			}
, 			{
				"box" : 				{
					"maxclass" : "newobj",
					"text" : "filters.get",
					"numinlets" : 1,
					"patching_rect" : [ 352.0, 160.0, 59.0, 20.0 ],
					"id" : "obj-29",
					"fontname" : "Arial",
					"numoutlets" : 3,
					"outlettype" : [ "", "", "" ],
					"hidden" : 1,
					"fontsize" : 12.0
				}

			}
, 			{
				"box" : 				{
					"maxclass" : "newobj",
					"text" : "t b b b b",
					"numinlets" : 1,
					"patching_rect" : [ 679.0, 96.0, 59.5, 20.0 ],
					"id" : "obj-13",
					"fontname" : "Arial",
					"numoutlets" : 4,
					"outlettype" : [ "bang", "bang", "bang", "bang" ],
					"fontsize" : 12.0
				}

			}
, 			{
				"box" : 				{
					"maxclass" : "newobj",
					"text" : "route apply",
					"numinlets" : 1,
					"patching_rect" : [ 679.0, 68.0, 70.0, 20.0 ],
					"id" : "obj-12",
					"fontname" : "Arial",
					"numoutlets" : 2,
					"outlettype" : [ "", "" ],
					"fontsize" : 12.0
				}

			}
, 			{
				"box" : 				{
					"maxclass" : "newobj",
					"text" : "fromsymbol",
					"numinlets" : 1,
					"patching_rect" : [ 30.0, 92.0, 73.0, 20.0 ],
					"id" : "obj-5",
					"fontname" : "Arial",
					"numoutlets" : 1,
					"outlettype" : [ "" ],
					"fontsize" : 12.0
				}

			}
, 			{
				"box" : 				{
					"maxclass" : "inlet",
					"numinlets" : 0,
					"patching_rect" : [ 679.0, 27.0, 25.0, 25.0 ],
					"id" : "obj-3",
					"numoutlets" : 1,
					"outlettype" : [ "" ],
					"comment" : ""
				}

			}
, 			{
				"box" : 				{
					"maxclass" : "message",
					"text" : "name",
					"numinlets" : 2,
					"patching_rect" : [ 92.0, 159.0, 41.0, 18.0 ],
					"id" : "obj-9",
					"fontname" : "Arial",
					"numoutlets" : 1,
					"outlettype" : [ "" ],
					"fontsize" : 12.0
				}

			}
, 			{
				"box" : 				{
					"maxclass" : "newobj",
					"text" : "prepend set",
					"numinlets" : 1,
					"patching_rect" : [ 30.0, 242.0, 74.0, 20.0 ],
					"id" : "obj-8",
					"fontname" : "Arial",
					"numoutlets" : 1,
					"outlettype" : [ "" ],
					"fontsize" : 12.0
				}

			}
, 			{
				"box" : 				{
					"maxclass" : "inlet",
					"numinlets" : 0,
					"patching_rect" : [ 30.0, 50.0, 25.0, 25.0 ],
					"id" : "obj-4",
					"numoutlets" : 1,
					"outlettype" : [ "" ],
					"comment" : ""
				}

			}
, 			{
				"box" : 				{
					"maxclass" : "comment",
					"frgb" : [ 1.0, 0.74902, 0.0, 1.0 ],
					"presentation_rect" : [ 2.0, 1.0, 187.0, 20.0 ],
					"numinlets" : 1,
					"patching_rect" : [ 30.0, 268.0, 167.0, 20.0 ],
					"presentation" : 1,
					"id" : "obj-2",
					"fontname" : "Arial",
					"numoutlets" : 0,
					"textcolor" : [ 1.0, 0.74902, 0.0, 1.0 ],
					"fontsize" : 12.0
				}

			}
 ],
		"lines" : [ 			{
				"patchline" : 				{
					"source" : [ "obj-7", 0 ],
					"destination" : [ "obj-273", 0 ],
					"hidden" : 0,
					"midpoints" : [  ]
				}

			}
, 			{
				"patchline" : 				{
					"source" : [ "obj-38", 0 ],
					"destination" : [ "obj-7", 0 ],
					"hidden" : 0,
					"midpoints" : [  ]
				}

			}
, 			{
				"patchline" : 				{
					"source" : [ "obj-40", 0 ],
					"destination" : [ "obj-38", 0 ],
					"hidden" : 0,
					"midpoints" : [  ]
				}

			}
, 			{
				"patchline" : 				{
					"source" : [ "obj-9", 0 ],
					"destination" : [ "obj-38", 1 ],
					"hidden" : 0,
					"midpoints" : [ 101.5, 521.0, 549.5, 521.0 ]
				}

			}
, 			{
				"patchline" : 				{
					"source" : [ "obj-7", 0 ],
					"destination" : [ "obj-58", 0 ],
					"hidden" : 0,
					"midpoints" : [  ]
				}

			}
, 			{
				"patchline" : 				{
					"source" : [ "obj-36", 0 ],
					"destination" : [ "obj-273", 0 ],
					"hidden" : 0,
					"midpoints" : [ 715.5, 964.5, 527.5, 964.5 ]
				}

			}
, 			{
				"patchline" : 				{
					"source" : [ "obj-37", 0 ],
					"destination" : [ "obj-36", 0 ],
					"hidden" : 0,
					"midpoints" : [  ]
				}

			}
, 			{
				"patchline" : 				{
					"source" : [ "obj-35", 0 ],
					"destination" : [ "obj-36", 1 ],
					"hidden" : 0,
					"midpoints" : [  ]
				}

			}
, 			{
				"patchline" : 				{
					"source" : [ "obj-9", 0 ],
					"destination" : [ "obj-34", 0 ],
					"hidden" : 0,
					"midpoints" : [ 101.5, 555.5, 835.5, 555.5 ]
				}

			}
, 			{
				"patchline" : 				{
					"source" : [ "obj-34", 0 ],
					"destination" : [ "obj-35", 0 ],
					"hidden" : 0,
					"midpoints" : [  ]
				}

			}
, 			{
				"patchline" : 				{
					"source" : [ "obj-45", 0 ],
					"destination" : [ "obj-42", 0 ],
					"hidden" : 0,
					"midpoints" : [ 420.5, 608.0, 209.5, 608.0 ]
				}

			}
, 			{
				"patchline" : 				{
					"source" : [ "obj-42", 1 ],
					"destination" : [ "obj-263", 0 ],
					"hidden" : 0,
					"midpoints" : [ 320.5, 685.5, 571.5, 685.5 ]
				}

			}
, 			{
				"patchline" : 				{
					"source" : [ "obj-2069", 0 ],
					"destination" : [ "obj-42", 0 ],
					"hidden" : 0,
					"midpoints" : [  ]
				}

			}
, 			{
				"patchline" : 				{
					"source" : [ "obj-1989", 0 ],
					"destination" : [ "obj-42", 0 ],
					"hidden" : 0,
					"midpoints" : [  ]
				}

			}
, 			{
				"patchline" : 				{
					"source" : [ "obj-6", 0 ],
					"destination" : [ "obj-42", 0 ],
					"hidden" : 0,
					"midpoints" : [  ]
				}

			}
, 			{
				"patchline" : 				{
					"source" : [ "obj-27", 0 ],
					"destination" : [ "obj-18", 1 ],
					"hidden" : 1,
					"midpoints" : [  ]
				}

			}
, 			{
				"patchline" : 				{
					"source" : [ "obj-29", 2 ],
					"destination" : [ "obj-27", 0 ],
					"hidden" : 1,
					"midpoints" : [ 401.5, 203.5, 490.5, 203.5 ]
				}

			}
, 			{
				"patchline" : 				{
					"source" : [ "obj-32", 0 ],
					"destination" : [ "obj-55", 0 ],
					"hidden" : 0,
					"midpoints" : [ 777.5, 858.5, 341.5, 858.5 ]
				}

			}
, 			{
				"patchline" : 				{
					"source" : [ "obj-24", 0 ],
					"destination" : [ "obj-32", 0 ],
					"hidden" : 0,
					"midpoints" : [  ]
				}

			}
, 			{
				"patchline" : 				{
					"source" : [ "obj-1990", 1 ],
					"destination" : [ "obj-95", 1 ],
					"hidden" : 1,
					"midpoints" : [ 656.0, 460.5, 580.5, 460.5 ]
				}

			}
, 			{
				"patchline" : 				{
					"source" : [ "obj-25", 0 ],
					"destination" : [ "obj-95", 0 ],
					"hidden" : 0,
					"midpoints" : [ 725.5, 566.5, 516.5, 566.5 ]
				}

			}
, 			{
				"patchline" : 				{
					"source" : [ "obj-97", 0 ],
					"destination" : [ "obj-95", 0 ],
					"hidden" : 1,
					"midpoints" : [ 634.5, 609.0, 516.5, 609.0 ]
				}

			}
, 			{
				"patchline" : 				{
					"source" : [ "obj-94", 0 ],
					"destination" : [ "obj-97", 0 ],
					"hidden" : 1,
					"midpoints" : [ 482.5, 496.0, 634.5, 496.0 ]
				}

			}
, 			{
				"patchline" : 				{
					"source" : [ "obj-94", 2 ],
					"destination" : [ "obj-97", 1 ],
					"hidden" : 1,
					"midpoints" : [ 560.5, 549.5, 678.5, 549.5 ]
				}

			}
, 			{
				"patchline" : 				{
					"source" : [ "obj-25", 0 ],
					"destination" : [ "obj-97", 0 ],
					"hidden" : 0,
					"midpoints" : [ 725.5, 555.5, 634.5, 555.5 ]
				}

			}
, 			{
				"patchline" : 				{
					"source" : [ "obj-24", 0 ],
					"destination" : [ "obj-25", 0 ],
					"hidden" : 0,
					"midpoints" : [  ]
				}

			}
, 			{
				"patchline" : 				{
					"source" : [ "obj-16", 0 ],
					"destination" : [ "obj-29", 0 ],
					"hidden" : 0,
					"midpoints" : [ 347.5, 141.0, 361.5, 141.0 ]
				}

			}
, 			{
				"patchline" : 				{
					"source" : [ "obj-29", 1 ],
					"destination" : [ "obj-113", 0 ],
					"hidden" : 1,
					"midpoints" : [ 381.5, 332.0, 453.5, 332.0 ]
				}

			}
, 			{
				"patchline" : 				{
					"source" : [ "obj-29", 0 ],
					"destination" : [ "obj-55", 0 ],
					"hidden" : 1,
					"midpoints" : [ 361.5, 525.0, 341.5, 525.0 ]
				}

			}
, 			{
				"patchline" : 				{
					"source" : [ "obj-18", 1 ],
					"destination" : [ "obj-1990", 0 ],
					"hidden" : 0,
					"midpoints" : [ 589.5, 312.0, 611.5, 312.0, 611.5, 237.0, 633.5, 237.0 ]
				}

			}
, 			{
				"patchline" : 				{
					"source" : [ "obj-1990", 1 ],
					"destination" : [ "obj-93", 1 ],
					"hidden" : 1,
					"midpoints" : [ 656.0, 336.0, 482.5, 336.0 ]
				}

			}
, 			{
				"patchline" : 				{
					"source" : [ "obj-8", 0 ],
					"destination" : [ "obj-2", 0 ],
					"hidden" : 0,
					"midpoints" : [  ]
				}

			}
, 			{
				"patchline" : 				{
					"source" : [ "obj-5", 0 ],
					"destination" : [ "obj-9", 1 ],
					"hidden" : 0,
					"midpoints" : [ 39.5, 126.0, 123.5, 126.0 ]
				}

			}
, 			{
				"patchline" : 				{
					"source" : [ "obj-5", 0 ],
					"destination" : [ "obj-8", 0 ],
					"hidden" : 0,
					"midpoints" : [  ]
				}

			}
, 			{
				"patchline" : 				{
					"source" : [ "obj-3", 0 ],
					"destination" : [ "obj-12", 0 ],
					"hidden" : 0,
					"midpoints" : [  ]
				}

			}
, 			{
				"patchline" : 				{
					"source" : [ "obj-833", 1 ],
					"destination" : [ "obj-18", 0 ],
					"hidden" : 1,
					"midpoints" : [ 541.0, 189.5, 391.5, 189.5 ]
				}

			}
, 			{
				"patchline" : 				{
					"source" : [ "obj-93", 2 ],
					"destination" : [ "obj-94", 0 ],
					"hidden" : 1,
					"midpoints" : [ 482.5, 391.0, 482.5, 391.0 ]
				}

			}
, 			{
				"patchline" : 				{
					"source" : [ "obj-94", 1 ],
					"destination" : [ "obj-99", 0 ],
					"hidden" : 1,
					"midpoints" : [ 521.5, 424.0, 629.5, 424.0 ]
				}

			}
, 			{
				"patchline" : 				{
					"source" : [ "obj-99", 0 ],
					"destination" : [ "obj-55", 0 ],
					"hidden" : 1,
					"midpoints" : [ 629.5, 807.0, 341.5, 807.0 ]
				}

			}
, 			{
				"patchline" : 				{
					"source" : [ "obj-113", 0 ],
					"destination" : [ "obj-93", 0 ],
					"hidden" : 1,
					"midpoints" : [  ]
				}

			}
, 			{
				"patchline" : 				{
					"source" : [ "obj-30", 0 ],
					"destination" : [ "obj-1989", 0 ],
					"hidden" : 0,
					"midpoints" : [ 223.5, 538.5, 319.5, 538.5 ]
				}

			}
, 			{
				"patchline" : 				{
					"source" : [ "obj-31", 0 ],
					"destination" : [ "obj-2069", 0 ],
					"hidden" : 0,
					"midpoints" : [ 130.5, 540.0, 155.5, 540.0 ]
				}

			}
, 			{
				"patchline" : 				{
					"source" : [ "obj-28", 0 ],
					"destination" : [ "obj-833", 0 ],
					"hidden" : 0,
					"midpoints" : [ 347.5, 100.5, 426.5, 100.5 ]
				}

			}
, 			{
				"patchline" : 				{
					"source" : [ "obj-271", 0 ],
					"destination" : [ "obj-270", 0 ],
					"hidden" : 1,
					"midpoints" : [ 410.5, 918.0, 547.5, 918.0, 547.5, 685.0, 660.5, 685.0 ]
				}

			}
, 			{
				"patchline" : 				{
					"source" : [ "obj-265", 0 ],
					"destination" : [ "obj-266", 1 ],
					"hidden" : 1,
					"midpoints" : [  ]
				}

			}
, 			{
				"patchline" : 				{
					"source" : [ "obj-265", 1 ],
					"destination" : [ "obj-266", 0 ],
					"hidden" : 1,
					"midpoints" : [  ]
				}

			}
, 			{
				"patchline" : 				{
					"source" : [ "obj-264", 0 ],
					"destination" : [ "obj-265", 0 ],
					"hidden" : 1,
					"midpoints" : [  ]
				}

			}
, 			{
				"patchline" : 				{
					"source" : [ "obj-266", 0 ],
					"destination" : [ "obj-55", 0 ],
					"hidden" : 0,
					"midpoints" : [ 476.5, 858.0, 341.5, 858.0 ]
				}

			}
, 			{
				"patchline" : 				{
					"source" : [ "obj-55", 1 ],
					"destination" : [ "obj-271", 0 ],
					"hidden" : 0,
					"midpoints" : [  ]
				}

			}
, 			{
				"patchline" : 				{
					"source" : [ "obj-28", 0 ],
					"destination" : [ "obj-16", 0 ],
					"hidden" : 0,
					"midpoints" : [  ]
				}

			}
, 			{
				"patchline" : 				{
					"source" : [ "obj-16", 0 ],
					"destination" : [ "obj-18", 2 ],
					"hidden" : 0,
					"midpoints" : [ 347.5, 196.0, 589.5, 196.0 ]
				}

			}
, 			{
				"patchline" : 				{
					"source" : [ "obj-18", 0 ],
					"destination" : [ "obj-26", 0 ],
					"hidden" : 0,
					"midpoints" : [  ]
				}

			}
, 			{
				"patchline" : 				{
					"source" : [ "obj-18", 1 ],
					"destination" : [ "obj-1989", 0 ],
					"hidden" : 0,
					"midpoints" : [ 589.5, 436.5, 319.5, 436.5 ]
				}

			}
, 			{
				"patchline" : 				{
					"source" : [ "obj-18", 1 ],
					"destination" : [ "obj-2069", 0 ],
					"hidden" : 0,
					"midpoints" : [ 589.5, 438.5, 155.5, 438.5 ]
				}

			}
, 			{
				"patchline" : 				{
					"source" : [ "obj-17", 0 ],
					"destination" : [ "obj-23", 0 ],
					"hidden" : 0,
					"midpoints" : [  ]
				}

			}
, 			{
				"patchline" : 				{
					"source" : [ "obj-23", 0 ],
					"destination" : [ "obj-6", 0 ],
					"hidden" : 0,
					"midpoints" : [ 764.5, 323.0, 602.5, 323.0 ]
				}

			}
, 			{
				"patchline" : 				{
					"source" : [ "obj-23", 0 ],
					"destination" : [ "obj-30", 0 ],
					"hidden" : 0,
					"midpoints" : [ 764.5, 372.0, 223.5, 372.0 ]
				}

			}
, 			{
				"patchline" : 				{
					"source" : [ "obj-18", 1 ],
					"destination" : [ "obj-15", 0 ],
					"hidden" : 0,
					"midpoints" : [  ]
				}

			}
, 			{
				"patchline" : 				{
					"source" : [ "obj-15", 0 ],
					"destination" : [ "obj-6", 1 ],
					"hidden" : 0,
					"midpoints" : [  ]
				}

			}
, 			{
				"patchline" : 				{
					"source" : [ "obj-269", 3 ],
					"destination" : [ "obj-270", 0 ],
					"hidden" : 1,
					"midpoints" : [ 491.0, 751.0, 660.5, 751.0 ]
				}

			}
, 			{
				"patchline" : 				{
					"source" : [ "obj-269", 2 ],
					"destination" : [ "obj-264", 0 ],
					"hidden" : 1,
					"midpoints" : [  ]
				}

			}
, 			{
				"patchline" : 				{
					"source" : [ "obj-263", 0 ],
					"destination" : [ "obj-269", 0 ],
					"hidden" : 1,
					"midpoints" : [ 571.5, 719.5, 450.5, 719.5 ]
				}

			}
, 			{
				"patchline" : 				{
					"source" : [ "obj-4", 0 ],
					"destination" : [ "obj-5", 0 ],
					"hidden" : 0,
					"midpoints" : [  ]
				}

			}
, 			{
				"patchline" : 				{
					"source" : [ "obj-12", 0 ],
					"destination" : [ "obj-13", 0 ],
					"hidden" : 0,
					"midpoints" : [  ]
				}

			}
, 			{
				"patchline" : 				{
					"source" : [ "obj-33", 0 ],
					"destination" : [ "obj-13", 0 ],
					"hidden" : 0,
					"midpoints" : [  ]
				}

			}
, 			{
				"patchline" : 				{
					"source" : [ "obj-13", 2 ],
					"destination" : [ "obj-37", 0 ],
					"hidden" : 0,
					"midpoints" : [  ]
				}

			}
, 			{
				"patchline" : 				{
					"source" : [ "obj-13", 1 ],
					"destination" : [ "obj-45", 0 ],
					"hidden" : 0,
					"midpoints" : [ 702.0, 527.5, 420.5, 527.5 ]
				}

			}
, 			{
				"patchline" : 				{
					"source" : [ "obj-13", 0 ],
					"destination" : [ "obj-270", 0 ],
					"hidden" : 0,
					"midpoints" : [ 688.5, 687.5, 660.5, 687.5 ]
				}

			}
, 			{
				"patchline" : 				{
					"source" : [ "obj-13", 3 ],
					"destination" : [ "obj-9", 0 ],
					"hidden" : 0,
					"midpoints" : [ 729.0, 149.0, 101.5, 149.0 ]
				}

			}
, 			{
				"patchline" : 				{
					"source" : [ "obj-270", 0 ],
					"destination" : [ "obj-19", 0 ],
					"hidden" : 0,
					"midpoints" : [  ]
				}

			}
, 			{
				"patchline" : 				{
					"source" : [ "obj-22", 0 ],
					"destination" : [ "obj-7", 1 ],
					"hidden" : 0,
					"midpoints" : [  ]
				}

			}
, 			{
				"patchline" : 				{
					"source" : [ "obj-20", 0 ],
					"destination" : [ "obj-22", 0 ],
					"hidden" : 0,
					"midpoints" : [  ]
				}

			}
, 			{
				"patchline" : 				{
					"source" : [ "obj-20", 0 ],
					"destination" : [ "obj-40", 0 ],
					"hidden" : 0,
					"midpoints" : [ 660.5, 883.0, 621.5, 883.0, 621.5, 828.0, 527.5, 828.0 ]
				}

			}
, 			{
				"patchline" : 				{
					"source" : [ "obj-270", 0 ],
					"destination" : [ "obj-20", 0 ],
					"hidden" : 0,
					"midpoints" : [  ]
				}

			}
, 			{
				"patchline" : 				{
					"source" : [ "obj-270", 0 ],
					"destination" : [ "obj-41", 0 ],
					"hidden" : 0,
					"midpoints" : [  ]
				}

			}
, 			{
				"patchline" : 				{
					"source" : [ "obj-41", 0 ],
					"destination" : [ "obj-20", 0 ],
					"hidden" : 0,
					"midpoints" : [  ]
				}

			}
, 			{
				"patchline" : 				{
					"source" : [ "obj-19", 0 ],
					"destination" : [ "obj-14", 0 ],
					"hidden" : 0,
					"midpoints" : [  ]
				}

			}
, 			{
				"patchline" : 				{
					"source" : [ "obj-14", 0 ],
					"destination" : [ "obj-20", 1 ],
					"hidden" : 0,
					"midpoints" : [ 704.5, 841.5, 704.5, 841.5 ]
				}

			}
 ]
	}

}
