{
	"patcher" : 	{
		"fileversion" : 1,
		"appversion" : 		{
			"major" : 5,
			"minor" : 1,
			"revision" : 9
		}
,
		"rect" : [ 695.0, 44.0, 503.0, 668.0 ],
		"bglocked" : 0,
		"defrect" : [ 695.0, 44.0, 503.0, 668.0 ],
		"openrect" : [ 0.0, 0.0, 0.0, 0.0 ],
		"openinpresentation" : 1,
		"default_fontsize" : 12.0,
		"default_fontface" : 0,
		"default_fontname" : "Arial",
		"gridonopen" : 0,
		"gridsize" : [ 15.0, 15.0 ],
		"gridsnaponopen" : 0,
		"toolbarvisible" : 1,
		"boxanimatetime" : 200,
		"imprint" : 0,
		"enablehscroll" : 1,
		"enablevscroll" : 1,
		"devicewidth" : 0.0,
		"boxes" : [ 			{
				"box" : 				{
					"maxclass" : "message",
					"text" : "applyAllFilters",
					"numoutlets" : 1,
					"fontsize" : 12.0,
					"outlettype" : [ "" ],
					"patching_rect" : [ 161.0, 101.0, 85.0, 18.0 ],
					"id" : "obj-7",
					"fontname" : "Arial",
					"numinlets" : 2
				}

			}
, 			{
				"box" : 				{
					"maxclass" : "newobj",
					"text" : "route refresh apply",
					"numoutlets" : 3,
					"fontsize" : 12.0,
					"outlettype" : [ "", "", "" ],
					"patching_rect" : [ 23.0, 59.0, 111.0, 20.0 ],
					"id" : "obj-4",
					"fontname" : "Arial",
					"numinlets" : 1
				}

			}
, 			{
				"box" : 				{
					"maxclass" : "inlet",
					"numoutlets" : 1,
					"outlettype" : [ "" ],
					"patching_rect" : [ 23.0, 17.0, 25.0, 25.0 ],
					"id" : "obj-3",
					"numinlets" : 0,
					"comment" : ""
				}

			}
, 			{
				"box" : 				{
					"maxclass" : "jsui",
					"numoutlets" : 3,
					"filename" : "filters.js",
					"outlettype" : [ "", "", "" ],
					"patching_rect" : [ 276.0, 171.0, 64.0, 64.0 ],
					"id" : "obj-2",
					"numinlets" : 1,
					"jsarguments" : [  ]
				}

			}
, 			{
				"box" : 				{
					"maxclass" : "newobj",
					"text" : "tosymbol",
					"numoutlets" : 1,
					"fontsize" : 12.0,
					"outlettype" : [ "" ],
					"patching_rect" : [ 276.0, 101.0, 59.0, 20.0 ],
					"id" : "obj-51",
					"fontname" : "Arial",
					"numinlets" : 1
				}

			}
, 			{
				"box" : 				{
					"maxclass" : "newobj",
					"text" : "prepend filtersList",
					"numoutlets" : 1,
					"fontsize" : 12.0,
					"outlettype" : [ "" ],
					"patching_rect" : [ 276.0, 132.0, 105.0, 20.0 ],
					"id" : "obj-26",
					"fontname" : "Arial",
					"numinlets" : 1
				}

			}
, 			{
				"box" : 				{
					"maxclass" : "newobj",
					"text" : "route 66",
					"numoutlets" : 2,
					"fontsize" : 12.0,
					"outlettype" : [ "", "" ],
					"patching_rect" : [ 276.0, 71.0, 55.0, 20.0 ],
					"id" : "obj-25",
					"fontname" : "Arial",
					"numinlets" : 1
				}

			}
, 			{
				"box" : 				{
					"maxclass" : "newobj",
					"text" : "route /filterslist",
					"numoutlets" : 2,
					"fontsize" : 12.0,
					"outlettype" : [ "", "" ],
					"patching_rect" : [ 276.0, 42.0, 88.0, 20.0 ],
					"id" : "obj-24",
					"fontname" : "Arial",
					"numinlets" : 1
				}

			}
, 			{
				"box" : 				{
					"maxclass" : "newobj",
					"text" : "r serverreceive",
					"numoutlets" : 1,
					"fontsize" : 12.0,
					"outlettype" : [ "" ],
					"patching_rect" : [ 276.0, 13.0, 90.0, 20.0 ],
					"id" : "obj-23",
					"fontname" : "Arial",
					"numinlets" : 0
				}

			}
, 			{
				"box" : 				{
					"maxclass" : "message",
					"text" : "/getfilterslist 66",
					"numoutlets" : 1,
					"fontsize" : 12.0,
					"outlettype" : [ "" ],
					"patching_rect" : [ 23.0, 105.0, 91.0, 18.0 ],
					"id" : "obj-11",
					"fontname" : "Arial",
					"numinlets" : 2
				}

			}
, 			{
				"box" : 				{
					"maxclass" : "newobj",
					"text" : "s serversend",
					"numoutlets" : 0,
					"fontsize" : 9.0,
					"patching_rect" : [ 23.0, 140.0, 69.0, 17.0 ],
					"id" : "obj-20",
					"fontname" : "Arial",
					"numinlets" : 1
				}

			}
 ],
		"lines" : [ 			{
				"patchline" : 				{
					"source" : [ "obj-7", 0 ],
					"destination" : [ "obj-2", 0 ],
					"hidden" : 0,
					"midpoints" : [ 170.5, 159.0, 285.5, 159.0 ]
				}

			}
, 			{
				"patchline" : 				{
					"source" : [ "obj-4", 1 ],
					"destination" : [ "obj-7", 0 ],
					"hidden" : 0,
					"midpoints" : [ 78.5, 89.5, 170.5, 89.5 ]
				}

			}
, 			{
				"patchline" : 				{
					"source" : [ "obj-4", 0 ],
					"destination" : [ "obj-11", 0 ],
					"hidden" : 0,
					"midpoints" : [  ]
				}

			}
, 			{
				"patchline" : 				{
					"source" : [ "obj-3", 0 ],
					"destination" : [ "obj-4", 0 ],
					"hidden" : 0,
					"midpoints" : [  ]
				}

			}
, 			{
				"patchline" : 				{
					"source" : [ "obj-26", 0 ],
					"destination" : [ "obj-2", 0 ],
					"hidden" : 0,
					"midpoints" : [  ]
				}

			}
, 			{
				"patchline" : 				{
					"source" : [ "obj-25", 0 ],
					"destination" : [ "obj-51", 0 ],
					"hidden" : 0,
					"midpoints" : [  ]
				}

			}
, 			{
				"patchline" : 				{
					"source" : [ "obj-24", 0 ],
					"destination" : [ "obj-25", 0 ],
					"hidden" : 0,
					"midpoints" : [  ]
				}

			}
, 			{
				"patchline" : 				{
					"source" : [ "obj-23", 0 ],
					"destination" : [ "obj-24", 0 ],
					"hidden" : 0,
					"midpoints" : [  ]
				}

			}
, 			{
				"patchline" : 				{
					"source" : [ "obj-51", 0 ],
					"destination" : [ "obj-26", 0 ],
					"hidden" : 0,
					"midpoints" : [  ]
				}

			}
, 			{
				"patchline" : 				{
					"source" : [ "obj-11", 0 ],
					"destination" : [ "obj-20", 0 ],
					"hidden" : 0,
					"midpoints" : [  ]
				}

			}
 ]
	}

}
