{
	"patcher" : 	{
		"fileversion" : 1,
		"rect" : [ 80.0, 86.0, 686.0, 623.0 ],
		"bglocked" : 0,
		"defrect" : [ 80.0, 86.0, 686.0, 623.0 ],
		"openrect" : [ 0.0, 0.0, 0.0, 0.0 ],
		"openinpresentation" : 0,
		"default_fontsize" : 12.0,
		"default_fontface" : 0,
		"default_fontname" : "Arial",
		"gridonopen" : 0,
		"gridsize" : [ 15.0, 15.0 ],
		"gridsnaponopen" : 0,
		"toolbarvisible" : 1,
		"boxanimatetime" : 200,
		"imprint" : 0,
		"enablehscroll" : 1,
		"enablevscroll" : 1,
		"devicewidth" : 0.0,
		"boxes" : [ 			{
				"box" : 				{
					"maxclass" : "newobj",
					"text" : "+ 15",
					"numinlets" : 2,
					"patching_rect" : [ 129.0, -168.0, 34.0, 20.0 ],
					"numoutlets" : 1,
					"id" : "obj-13",
					"fontname" : "Arial",
					"outlettype" : [ "int" ],
					"fontsize" : 12.0
				}

			}
, 			{
				"box" : 				{
					"maxclass" : "newobj",
					"text" : "/ 30.",
					"numinlets" : 2,
					"patching_rect" : [ 186.0, -122.0, 34.0, 20.0 ],
					"numoutlets" : 1,
					"id" : "obj-12",
					"fontname" : "Arial",
					"outlettype" : [ "float" ],
					"fontsize" : 12.0
				}

			}
, 			{
				"box" : 				{
					"maxclass" : "newobj",
					"text" : "/ 45.",
					"numinlets" : 2,
					"patching_rect" : [ 148.0, -122.0, 34.0, 20.0 ],
					"numoutlets" : 1,
					"id" : "obj-9",
					"fontname" : "Arial",
					"outlettype" : [ "float" ],
					"fontsize" : 12.0
				}

			}
, 			{
				"box" : 				{
					"maxclass" : "newobj",
					"text" : "pack 0. 0. 0. 1.",
					"numinlets" : 4,
					"patching_rect" : [ 106.0, -85.0, 89.0, 20.0 ],
					"numoutlets" : 1,
					"id" : "obj-7",
					"fontname" : "Arial",
					"outlettype" : [ "" ],
					"fontsize" : 12.0
				}

			}
, 			{
				"box" : 				{
					"maxclass" : "newobj",
					"text" : "/ 64.",
					"numinlets" : 2,
					"patching_rect" : [ 106.0, -122.0, 34.0, 20.0 ],
					"numoutlets" : 1,
					"id" : "obj-6",
					"fontname" : "Arial",
					"outlettype" : [ "float" ],
					"fontsize" : 12.0
				}

			}
, 			{
				"box" : 				{
					"maxclass" : "newobj",
					"text" : "prepend textcolor",
					"numinlets" : 1,
					"patching_rect" : [ 106.0, -62.0, 103.0, 20.0 ],
					"numoutlets" : 1,
					"id" : "obj-4",
					"fontname" : "Arial",
					"outlettype" : [ "" ],
					"fontsize" : 12.0
				}

			}
, 			{
				"box" : 				{
					"maxclass" : "newobj",
					"text" : "s slots.load",
					"numinlets" : 1,
					"patching_rect" : [ 139.5, 201.0, 71.0, 20.0 ],
					"numoutlets" : 0,
					"id" : "obj-2",
					"fontname" : "Arial",
					"hidden" : 1,
					"fontsize" : 12.0
				}

			}
, 			{
				"box" : 				{
					"maxclass" : "newobj",
					"text" : "t b l",
					"numinlets" : 1,
					"patching_rect" : [ 142.0, 146.0, 32.5, 20.0 ],
					"numoutlets" : 2,
					"id" : "obj-3",
					"fontname" : "Arial",
					"outlettype" : [ "bang", "" ],
					"hidden" : 1,
					"fontsize" : 12.0
				}

			}
, 			{
				"box" : 				{
					"maxclass" : "newobj",
					"text" : "s slots.data",
					"numinlets" : 1,
					"patching_rect" : [ 167.5, 175.0, 71.0, 20.0 ],
					"numoutlets" : 0,
					"id" : "obj-68",
					"fontname" : "Arial",
					"hidden" : 1,
					"fontsize" : 12.0
				}

			}
, 			{
				"box" : 				{
					"maxclass" : "newobj",
					"text" : "s #1_speed_gui2player",
					"numinlets" : 1,
					"patching_rect" : [ 304.0, 27.0, 135.0, 20.0 ],
					"numoutlets" : 0,
					"id" : "obj-43",
					"fontname" : "Arial",
					"hidden" : 1,
					"fontsize" : 12.0
				}

			}
, 			{
				"box" : 				{
					"maxclass" : "newobj",
					"text" : "r #1_speed_player2gui",
					"numinlets" : 0,
					"patching_rect" : [ 296.0, -61.0, 133.0, 20.0 ],
					"numoutlets" : 1,
					"id" : "obj-1",
					"fontname" : "Arial",
					"outlettype" : [ "" ],
					"hidden" : 1,
					"fontsize" : 12.0
				}

			}
, 			{
				"box" : 				{
					"maxclass" : "newobj",
					"text" : "p bgcolor",
					"numinlets" : 0,
					"patching_rect" : [ 88.0, -32.0, 60.0, 20.0 ],
					"numoutlets" : 1,
					"id" : "obj-37",
					"fontname" : "Arial",
					"outlettype" : [ "clear" ],
					"hidden" : 1,
					"fontsize" : 12.0,
					"patcher" : 					{
						"fileversion" : 1,
						"rect" : [ 25.0, 69.0, 325.0, 304.0 ],
						"bglocked" : 0,
						"defrect" : [ 25.0, 69.0, 325.0, 304.0 ],
						"openrect" : [ 0.0, 0.0, 0.0, 0.0 ],
						"openinpresentation" : 0,
						"default_fontsize" : 12.0,
						"default_fontface" : 0,
						"default_fontname" : "Arial",
						"gridonopen" : 0,
						"gridsize" : [ 15.0, 15.0 ],
						"gridsnaponopen" : 0,
						"toolbarvisible" : 1,
						"boxanimatetime" : 200,
						"imprint" : 0,
						"enablehscroll" : 1,
						"enablevscroll" : 1,
						"devicewidth" : 0.0,
						"boxes" : [ 							{
								"box" : 								{
									"maxclass" : "message",
									"text" : "bgcolor 0.8 1 0.7",
									"numinlets" : 2,
									"patching_rect" : [ 194.0, 165.0, 100.0, 18.0 ],
									"numoutlets" : 1,
									"id" : "obj-16",
									"fontname" : "Arial",
									"outlettype" : [ "" ],
									"fontsize" : 12.0
								}

							}
, 							{
								"box" : 								{
									"maxclass" : "message",
									"text" : "bgcolor 0.4 0.6 0.7",
									"numinlets" : 2,
									"patching_rect" : [ 23.0, 164.0, 110.0, 18.0 ],
									"numoutlets" : 1,
									"id" : "obj-14",
									"fontname" : "Arial",
									"outlettype" : [ "" ],
									"fontsize" : 12.0
								}

							}
, 							{
								"box" : 								{
									"maxclass" : "newobj",
									"text" : "t b",
									"numinlets" : 1,
									"patching_rect" : [ 251.0, 104.0, 24.0, 20.0 ],
									"numoutlets" : 1,
									"id" : "obj-13",
									"fontname" : "Arial",
									"outlettype" : [ "bang" ],
									"fontsize" : 12.0
								}

							}
, 							{
								"box" : 								{
									"maxclass" : "newobj",
									"text" : "t b clear",
									"numinlets" : 1,
									"patching_rect" : [ 116.0, 125.0, 59.0, 20.0 ],
									"numoutlets" : 2,
									"id" : "obj-12",
									"fontname" : "Arial",
									"outlettype" : [ "bang", "clear" ],
									"fontsize" : 12.0
								}

							}
, 							{
								"box" : 								{
									"maxclass" : "newobj",
									"text" : "route 0",
									"numinlets" : 1,
									"patching_rect" : [ 55.0, 73.0, 48.0, 20.0 ],
									"numoutlets" : 2,
									"id" : "obj-9",
									"fontname" : "Arial",
									"outlettype" : [ "", "" ],
									"fontsize" : 12.0
								}

							}
, 							{
								"box" : 								{
									"maxclass" : "newobj",
									"text" : "route #1",
									"numinlets" : 1,
									"patching_rect" : [ 55.0, 50.0, 55.0, 20.0 ],
									"numoutlets" : 2,
									"id" : "obj-8",
									"fontname" : "Arial",
									"outlettype" : [ "", "" ],
									"fontsize" : 12.0
								}

							}
, 							{
								"box" : 								{
									"maxclass" : "newobj",
									"text" : "r slots.data",
									"numinlets" : 0,
									"patching_rect" : [ 55.0, 23.0, 69.0, 20.0 ],
									"numoutlets" : 1,
									"id" : "obj-15",
									"fontname" : "Arial",
									"outlettype" : [ "" ],
									"fontsize" : 12.0
								}

							}
, 							{
								"box" : 								{
									"maxclass" : "outlet",
									"numinlets" : 1,
									"patching_rect" : [ 119.0, 254.0, 25.0, 25.0 ],
									"numoutlets" : 0,
									"id" : "obj-18",
									"comment" : ""
								}

							}
 ],
						"lines" : [ 							{
								"patchline" : 								{
									"source" : [ "obj-12", 1 ],
									"destination" : [ "obj-18", 0 ],
									"hidden" : 0,
									"midpoints" : [  ]
								}

							}
, 							{
								"patchline" : 								{
									"source" : [ "obj-16", 0 ],
									"destination" : [ "obj-18", 0 ],
									"hidden" : 0,
									"midpoints" : [  ]
								}

							}
, 							{
								"patchline" : 								{
									"source" : [ "obj-14", 0 ],
									"destination" : [ "obj-18", 0 ],
									"hidden" : 0,
									"midpoints" : [  ]
								}

							}
, 							{
								"patchline" : 								{
									"source" : [ "obj-9", 0 ],
									"destination" : [ "obj-12", 0 ],
									"hidden" : 0,
									"midpoints" : [  ]
								}

							}
, 							{
								"patchline" : 								{
									"source" : [ "obj-9", 1 ],
									"destination" : [ "obj-13", 0 ],
									"hidden" : 0,
									"midpoints" : [  ]
								}

							}
, 							{
								"patchline" : 								{
									"source" : [ "obj-13", 0 ],
									"destination" : [ "obj-16", 0 ],
									"hidden" : 0,
									"midpoints" : [  ]
								}

							}
, 							{
								"patchline" : 								{
									"source" : [ "obj-8", 0 ],
									"destination" : [ "obj-9", 0 ],
									"hidden" : 0,
									"midpoints" : [  ]
								}

							}
, 							{
								"patchline" : 								{
									"source" : [ "obj-15", 0 ],
									"destination" : [ "obj-8", 0 ],
									"hidden" : 0,
									"midpoints" : [  ]
								}

							}
, 							{
								"patchline" : 								{
									"source" : [ "obj-12", 0 ],
									"destination" : [ "obj-14", 0 ],
									"hidden" : 0,
									"midpoints" : [  ]
								}

							}
 ]
					}
,
					"saved_object_attributes" : 					{
						"default_fontface" : 0,
						"fontname" : "Arial",
						"default_fontname" : "Arial",
						"default_fontsize" : 12.0,
						"globalpatchername" : "",
						"fontface" : 0,
						"fontsize" : 12.0
					}

				}

			}
, 			{
				"box" : 				{
					"maxclass" : "newobj",
					"text" : "p sample-data",
					"numinlets" : 1,
					"patching_rect" : [ -103.0, 22.5, 87.0, 20.0 ],
					"numoutlets" : 1,
					"id" : "obj-11",
					"fontname" : "Arial",
					"outlettype" : [ "clear" ],
					"hidden" : 1,
					"fontsize" : 12.0,
					"patcher" : 					{
						"fileversion" : 1,
						"rect" : [ 968.0, 340.0, 273.0, 422.0 ],
						"bglocked" : 0,
						"defrect" : [ 968.0, 340.0, 273.0, 422.0 ],
						"openrect" : [ 0.0, 0.0, 0.0, 0.0 ],
						"openinpresentation" : 0,
						"default_fontsize" : 12.0,
						"default_fontface" : 0,
						"default_fontname" : "Arial",
						"gridonopen" : 0,
						"gridsize" : [ 15.0, 15.0 ],
						"gridsnaponopen" : 0,
						"toolbarvisible" : 1,
						"boxanimatetime" : 200,
						"imprint" : 0,
						"enablehscroll" : 1,
						"enablevscroll" : 1,
						"devicewidth" : 0.0,
						"boxes" : [ 							{
								"box" : 								{
									"maxclass" : "newobj",
									"text" : "strippath",
									"numinlets" : 1,
									"patching_rect" : [ 160.0, 94.5, 57.0, 20.0 ],
									"numoutlets" : 2,
									"id" : "obj-52",
									"fontname" : "Arial",
									"outlettype" : [ "", "int" ],
									"fontsize" : 12.0
								}

							}
, 							{
								"box" : 								{
									"maxclass" : "newobj",
									"text" : "s getsoundfile.getattributes",
									"numinlets" : 1,
									"patching_rect" : [ 78.0, 194.5, 154.0, 20.0 ],
									"numoutlets" : 0,
									"id" : "obj-51",
									"fontname" : "Arial",
									"fontsize" : 12.0
								}

							}
, 							{
								"box" : 								{
									"maxclass" : "newobj",
									"text" : "zl reg",
									"numinlets" : 2,
									"patching_rect" : [ 78.0, 164.5, 40.0, 20.0 ],
									"numoutlets" : 2,
									"id" : "obj-50",
									"fontname" : "Arial",
									"outlettype" : [ "", "" ],
									"fontsize" : 12.0
								}

							}
, 							{
								"box" : 								{
									"maxclass" : "newobj",
									"text" : "pak s s s s",
									"numinlets" : 4,
									"patching_rect" : [ 99.0, 131.5, 80.0, 20.0 ],
									"numoutlets" : 1,
									"id" : "obj-49",
									"fontname" : "Arial",
									"outlettype" : [ "" ],
									"fontsize" : 12.0
								}

							}
, 							{
								"box" : 								{
									"maxclass" : "newobj",
									"text" : "loadmess bgcolor 0.6 0.6 0.6",
									"numinlets" : 1,
									"patching_rect" : [ 17.0, 312.5, 165.0, 20.0 ],
									"numoutlets" : 1,
									"id" : "obj-6",
									"fontname" : "Arial",
									"outlettype" : [ "" ],
									"fontsize" : 12.0
								}

							}
, 							{
								"box" : 								{
									"maxclass" : "newobj",
									"text" : "loadmess clear",
									"numinlets" : 1,
									"patching_rect" : [ 16.0, 281.5, 91.0, 20.0 ],
									"numoutlets" : 1,
									"id" : "obj-18",
									"fontname" : "Arial",
									"outlettype" : [ "" ],
									"fontsize" : 12.0
								}

							}
, 							{
								"box" : 								{
									"maxclass" : "newobj",
									"text" : "t s clear",
									"numinlets" : 1,
									"patching_rect" : [ 16.0, 227.5, 53.0, 20.0 ],
									"numoutlets" : 2,
									"id" : "obj-7",
									"fontname" : "Arial",
									"outlettype" : [ "", "clear" ],
									"fontsize" : 12.0
								}

							}
, 							{
								"box" : 								{
									"maxclass" : "newobj",
									"text" : "prepend append",
									"numinlets" : 1,
									"patching_rect" : [ 16.0, 256.5, 98.0, 20.0 ],
									"numoutlets" : 1,
									"id" : "obj-4",
									"fontname" : "Arial",
									"outlettype" : [ "" ],
									"fontsize" : 12.0
								}

							}
, 							{
								"box" : 								{
									"maxclass" : "newobj",
									"text" : "unpack s i s f s s s",
									"numinlets" : 1,
									"patching_rect" : [ 16.0, 46.5, 143.0, 20.0 ],
									"numoutlets" : 7,
									"id" : "obj-2",
									"fontname" : "Arial",
									"outlettype" : [ "", "int", "", "float", "", "", "" ],
									"fontsize" : 12.0
								}

							}
, 							{
								"box" : 								{
									"maxclass" : "newobj",
									"text" : "r #1_sample_data",
									"numinlets" : 0,
									"patching_rect" : [ 16.0, 18.5, 107.0, 20.0 ],
									"numoutlets" : 1,
									"id" : "obj-37",
									"fontname" : "Arial",
									"outlettype" : [ "" ],
									"fontsize" : 12.0
								}

							}
, 							{
								"box" : 								{
									"maxclass" : "inlet",
									"numinlets" : 0,
									"patching_rect" : [ 78.0, 99.0, 25.0, 25.0 ],
									"numoutlets" : 1,
									"id" : "obj-1",
									"outlettype" : [ "bang" ],
									"comment" : ""
								}

							}
, 							{
								"box" : 								{
									"maxclass" : "outlet",
									"numinlets" : 1,
									"patching_rect" : [ 50.25, 372.5, 25.0, 25.0 ],
									"numoutlets" : 0,
									"id" : "obj-3",
									"comment" : ""
								}

							}
 ],
						"lines" : [ 							{
								"patchline" : 								{
									"source" : [ "obj-7", 1 ],
									"destination" : [ "obj-3", 0 ],
									"hidden" : 0,
									"midpoints" : [  ]
								}

							}
, 							{
								"patchline" : 								{
									"source" : [ "obj-6", 0 ],
									"destination" : [ "obj-3", 0 ],
									"hidden" : 0,
									"midpoints" : [  ]
								}

							}
, 							{
								"patchline" : 								{
									"source" : [ "obj-18", 0 ],
									"destination" : [ "obj-3", 0 ],
									"hidden" : 0,
									"midpoints" : [  ]
								}

							}
, 							{
								"patchline" : 								{
									"source" : [ "obj-4", 0 ],
									"destination" : [ "obj-3", 0 ],
									"hidden" : 0,
									"midpoints" : [  ]
								}

							}
, 							{
								"patchline" : 								{
									"source" : [ "obj-1", 0 ],
									"destination" : [ "obj-50", 0 ],
									"hidden" : 0,
									"midpoints" : [  ]
								}

							}
, 							{
								"patchline" : 								{
									"source" : [ "obj-37", 0 ],
									"destination" : [ "obj-2", 0 ],
									"hidden" : 0,
									"midpoints" : [  ]
								}

							}
, 							{
								"patchline" : 								{
									"source" : [ "obj-2", 4 ],
									"destination" : [ "obj-49", 0 ],
									"hidden" : 0,
									"midpoints" : [  ]
								}

							}
, 							{
								"patchline" : 								{
									"source" : [ "obj-2", 5 ],
									"destination" : [ "obj-49", 1 ],
									"hidden" : 0,
									"midpoints" : [  ]
								}

							}
, 							{
								"patchline" : 								{
									"source" : [ "obj-2", 6 ],
									"destination" : [ "obj-49", 2 ],
									"hidden" : 0,
									"midpoints" : [  ]
								}

							}
, 							{
								"patchline" : 								{
									"source" : [ "obj-49", 0 ],
									"destination" : [ "obj-50", 1 ],
									"hidden" : 0,
									"midpoints" : [  ]
								}

							}
, 							{
								"patchline" : 								{
									"source" : [ "obj-7", 0 ],
									"destination" : [ "obj-4", 0 ],
									"hidden" : 0,
									"midpoints" : [  ]
								}

							}
, 							{
								"patchline" : 								{
									"source" : [ "obj-2", 0 ],
									"destination" : [ "obj-7", 0 ],
									"hidden" : 0,
									"midpoints" : [  ]
								}

							}
, 							{
								"patchline" : 								{
									"source" : [ "obj-50", 0 ],
									"destination" : [ "obj-51", 0 ],
									"hidden" : 0,
									"midpoints" : [  ]
								}

							}
, 							{
								"patchline" : 								{
									"source" : [ "obj-2", 2 ],
									"destination" : [ "obj-52", 0 ],
									"hidden" : 0,
									"midpoints" : [  ]
								}

							}
, 							{
								"patchline" : 								{
									"source" : [ "obj-52", 0 ],
									"destination" : [ "obj-49", 3 ],
									"hidden" : 0,
									"midpoints" : [  ]
								}

							}
 ]
					}
,
					"saved_object_attributes" : 					{
						"default_fontface" : 0,
						"fontname" : "Arial",
						"default_fontname" : "Arial",
						"default_fontsize" : 12.0,
						"globalpatchername" : "",
						"fontface" : 0,
						"fontsize" : 12.0
					}

				}

			}
, 			{
				"box" : 				{
					"maxclass" : "newobj",
					"text" : "append 0 +0",
					"numinlets" : 1,
					"patching_rect" : [ 134.0, 113.0, 78.0, 20.0 ],
					"numoutlets" : 1,
					"id" : "obj-46",
					"fontname" : "Arial",
					"outlettype" : [ "" ],
					"hidden" : 1,
					"fontsize" : 12.0
				}

			}
, 			{
				"box" : 				{
					"maxclass" : "newobj",
					"text" : "t #1",
					"numinlets" : 1,
					"patching_rect" : [ 134.0, 86.0, 31.0, 20.0 ],
					"numoutlets" : 1,
					"id" : "obj-45",
					"fontname" : "Arial",
					"outlettype" : [ "" ],
					"hidden" : 1,
					"fontsize" : 12.0
				}

			}
, 			{
				"box" : 				{
					"maxclass" : "textbutton",
					"numinlets" : 1,
					"patching_rect" : [ 58.0, 0.0, 18.0, 18.0 ],
					"numoutlets" : 3,
					"bgovercolor" : [ 0.32549, 0.498039, 0.509804, 1.0 ],
					"id" : "obj-44",
					"fontname" : "Arial",
					"outlettype" : [ "", "", "int" ],
					"fontsize" : 12.0,
					"bgcolor" : [ 0.423529, 0.670588, 0.682353, 1.0 ],
					"text" : "R"
				}

			}
, 			{
				"box" : 				{
					"maxclass" : "newobj",
					"text" : "s player.getsoundfile",
					"numinlets" : 1,
					"patching_rect" : [ 10.0, 91.0, 121.0, 20.0 ],
					"numoutlets" : 0,
					"id" : "obj-40",
					"fontname" : "Arial",
					"hidden" : 1,
					"fontsize" : 12.0
				}

			}
, 			{
				"box" : 				{
					"maxclass" : "newobj",
					"text" : "prepend setsymbol",
					"numinlets" : 1,
					"patching_rect" : [ 296.0, -31.0, 112.0, 20.0 ],
					"numoutlets" : 1,
					"id" : "obj-38",
					"fontname" : "Arial",
					"outlettype" : [ "" ],
					"hidden" : 1,
					"fontsize" : 12.0
				}

			}
, 			{
				"box" : 				{
					"maxclass" : "umenu",
					"numinlets" : 1,
					"types" : [  ],
					"patching_rect" : [ 233.0, 0.0, 35.0, 18.0 ],
					"numoutlets" : 3,
					"id" : "obj-35",
					"fontname" : "Arial",
					"outlettype" : [ "int", "", "" ],
					"fontsize" : 10.0,
					"bgcolor" : [ 0.4, 0.486275, 0.564706, 0.670588 ],
					"items" : [ "+0", ",", "+1.16", ",", "+1.8", ",", "+3.16", ",", "+1.4", ",", "+5.16", ",", "+3.8", ",", "+7.16" ]
				}

			}
, 			{
				"box" : 				{
					"maxclass" : "newobj",
					"text" : "t b #1 b",
					"numinlets" : 1,
					"patching_rect" : [ 10.0, 60.0, 91.0, 20.0 ],
					"numoutlets" : 3,
					"id" : "obj-32",
					"fontname" : "Arial",
					"outlettype" : [ "bang", "", "bang" ],
					"hidden" : 1,
					"fontsize" : 12.0
				}

			}
, 			{
				"box" : 				{
					"maxclass" : "textbutton",
					"numinlets" : 1,
					"patching_rect" : [ 39.0, 0.0, 18.0, 18.0 ],
					"numoutlets" : 3,
					"bgovercolor" : [ 0.290196, 0.435294, 0.45098, 1.0 ],
					"id" : "obj-31",
					"fontname" : "Arial",
					"outlettype" : [ "", "", "int" ],
					"fontsize" : 12.0,
					"bgcolor" : [ 0.298039, 0.505882, 0.517647, 1.0 ],
					"text" : "E"
				}

			}
, 			{
				"box" : 				{
					"maxclass" : "newobj",
					"text" : "prepend set",
					"numinlets" : 1,
					"patching_rect" : [ -114.0, -169.0, 74.0, 20.0 ],
					"numoutlets" : 1,
					"id" : "obj-30",
					"fontname" : "Arial",
					"outlettype" : [ "" ],
					"hidden" : 1,
					"fontsize" : 12.0
				}

			}
, 			{
				"box" : 				{
					"maxclass" : "newobj",
					"text" : "route pass",
					"numinlets" : 1,
					"patching_rect" : [ -114.0, -194.0, 67.0, 20.0 ],
					"numoutlets" : 2,
					"id" : "obj-27",
					"fontname" : "Arial",
					"outlettype" : [ "", "" ],
					"hidden" : 1,
					"fontsize" : 12.0
				}

			}
, 			{
				"box" : 				{
					"maxclass" : "newobj",
					"text" : "route #1",
					"numinlets" : 1,
					"patching_rect" : [ -114.0, -220.0, 55.0, 20.0 ],
					"numoutlets" : 2,
					"id" : "obj-28",
					"fontname" : "Arial",
					"outlettype" : [ "", "" ],
					"hidden" : 1,
					"fontsize" : 12.0
				}

			}
, 			{
				"box" : 				{
					"maxclass" : "newobj",
					"text" : "r player.displayslot",
					"numinlets" : 0,
					"patching_rect" : [ -114.0, -245.0, 110.0, 20.0 ],
					"numoutlets" : 1,
					"id" : "obj-29",
					"fontname" : "Arial",
					"outlettype" : [ "" ],
					"hidden" : 1,
					"fontsize" : 12.0
				}

			}
, 			{
				"box" : 				{
					"maxclass" : "newobj",
					"text" : "s mixboard.slot",
					"numinlets" : 1,
					"patching_rect" : [ -109.0, 134.0, 91.0, 20.0 ],
					"numoutlets" : 0,
					"id" : "obj-26",
					"fontname" : "Arial",
					"hidden" : 1,
					"fontsize" : 12.0
				}

			}
, 			{
				"box" : 				{
					"maxclass" : "newobj",
					"text" : "prepend #1",
					"numinlets" : 1,
					"patching_rect" : [ -109.0, 108.0, 71.0, 20.0 ],
					"numoutlets" : 1,
					"id" : "obj-25",
					"fontname" : "Arial",
					"outlettype" : [ "" ],
					"hidden" : 1,
					"fontsize" : 12.0
				}

			}
, 			{
				"box" : 				{
					"maxclass" : "newobj",
					"text" : "prepend pass",
					"numinlets" : 1,
					"patching_rect" : [ -109.0, 83.0, 83.0, 20.0 ],
					"numoutlets" : 1,
					"id" : "obj-24",
					"fontname" : "Arial",
					"outlettype" : [ "" ],
					"hidden" : 1,
					"fontsize" : 12.0
				}

			}
, 			{
				"box" : 				{
					"maxclass" : "umenu",
					"numinlets" : 1,
					"types" : [  ],
					"align" : 2,
					"patching_rect" : [ -3.0, -1.0, 21.0, 20.0 ],
					"textcolor2" : [ 1.0, 0.74902, 0.0, 1.0 ],
					"numoutlets" : 3,
					"id" : "obj-21",
					"menumode" : 2,
					"fontname" : "Arial",
					"textcolor" : [ 0.909804, 0.545098, 0.0, 1.0 ],
					"outlettype" : [ "int", "", "" ],
					"fontsize" : 12.0,
					"bgcolor" : [ 0.0, 0.0, 0.0, 0.0 ],
					"items" : [ "#1", ",", "#1", ",", "#1", ",", "#1", ",", "#1", ",", "#1", ",", "#1", ",", "#1", ",", "#1", ",", "#1", ",", "#1", ",", "#1", ",", "#1", ",", "#1", ",", "#1", ",", "#1", ",", "#1", ",", "#1", ",", "#1", ",", "#1", ",", "#1", ",", "#1", ",", "#1", ",", "#1", ",", "#1", ",", "#1" ]
				}

			}
, 			{
				"box" : 				{
					"maxclass" : "newobj",
					"text" : "prepend append",
					"numinlets" : 1,
					"patching_rect" : [ -3.0, -156.0, 98.0, 20.0 ],
					"numoutlets" : 1,
					"id" : "obj-22",
					"fontname" : "Arial",
					"outlettype" : [ "" ],
					"hidden" : 1,
					"fontsize" : 12.0
				}

			}
, 			{
				"box" : 				{
					"maxclass" : "newobj",
					"text" : "loadmess #1",
					"numinlets" : 1,
					"patching_rect" : [ -3.0, -194.0, 79.0, 20.0 ],
					"numoutlets" : 1,
					"id" : "obj-23",
					"fontname" : "Arial",
					"outlettype" : [ "" ],
					"hidden" : 1,
					"fontsize" : 12.0
				}

			}
, 			{
				"box" : 				{
					"maxclass" : "newobj",
					"text" : "loadmess 1",
					"numinlets" : 1,
					"patching_rect" : [ 29.0, -130.0, 72.0, 20.0 ],
					"numoutlets" : 1,
					"id" : "obj-20",
					"fontname" : "Arial",
					"outlettype" : [ "" ],
					"hidden" : 1,
					"fontsize" : 12.0
				}

			}
, 			{
				"box" : 				{
					"maxclass" : "toggle",
					"numinlets" : 1,
					"patching_rect" : [ 20.0, 0.0, 18.0, 18.0 ],
					"numoutlets" : 1,
					"id" : "obj-19",
					"outlettype" : [ "int" ],
					"bgcolor" : [ 0.239216, 0.360784, 0.368627, 0.964706 ]
				}

			}
, 			{
				"box" : 				{
					"maxclass" : "ubutton",
					"numinlets" : 1,
					"patching_rect" : [ 77.0, -2.0, 154.0, 20.0 ],
					"numoutlets" : 4,
					"id" : "obj-17",
					"outlettype" : [ "bang", "bang", "", "int" ],
					"handoff" : ""
				}

			}
, 			{
				"box" : 				{
					"maxclass" : "newobj",
					"text" : "s #1_play_solo",
					"numinlets" : 1,
					"patching_rect" : [ 166.0, 29.0, 91.0, 20.0 ],
					"numoutlets" : 0,
					"id" : "obj-10",
					"fontname" : "Arial",
					"hidden" : 1,
					"fontsize" : 12.0
				}

			}
, 			{
				"box" : 				{
					"maxclass" : "umenu",
					"numinlets" : 1,
					"types" : [  ],
					"patching_rect" : [ 79.0, 0.0, 152.0, 18.0 ],
					"numoutlets" : 3,
					"id" : "obj-5",
					"menumode" : 2,
					"fontname" : "Arial",
					"outlettype" : [ "int", "", "" ],
					"fontsize" : 10.0,
					"bgcolor" : [ 0.439216, 0.603922, 0.67451, 0.74902 ],
					"items" : [  ]
				}

			}
 ],
		"lines" : [ 			{
				"patchline" : 				{
					"source" : [ "obj-12", 0 ],
					"destination" : [ "obj-7", 2 ],
					"hidden" : 0,
					"midpoints" : [  ]
				}

			}
, 			{
				"patchline" : 				{
					"source" : [ "obj-13", 0 ],
					"destination" : [ "obj-12", 0 ],
					"hidden" : 0,
					"midpoints" : [  ]
				}

			}
, 			{
				"patchline" : 				{
					"source" : [ "obj-9", 0 ],
					"destination" : [ "obj-7", 1 ],
					"hidden" : 0,
					"midpoints" : [  ]
				}

			}
, 			{
				"patchline" : 				{
					"source" : [ "obj-13", 0 ],
					"destination" : [ "obj-9", 0 ],
					"hidden" : 0,
					"midpoints" : [  ]
				}

			}
, 			{
				"patchline" : 				{
					"source" : [ "obj-6", 0 ],
					"destination" : [ "obj-7", 0 ],
					"hidden" : 0,
					"midpoints" : [  ]
				}

			}
, 			{
				"patchline" : 				{
					"source" : [ "obj-13", 0 ],
					"destination" : [ "obj-6", 0 ],
					"hidden" : 0,
					"midpoints" : [  ]
				}

			}
, 			{
				"patchline" : 				{
					"source" : [ "obj-23", 0 ],
					"destination" : [ "obj-13", 0 ],
					"hidden" : 0,
					"midpoints" : [  ]
				}

			}
, 			{
				"patchline" : 				{
					"source" : [ "obj-4", 0 ],
					"destination" : [ "obj-21", 0 ],
					"hidden" : 0,
					"midpoints" : [ 115.5, -38.0, 6.5, -38.0 ]
				}

			}
, 			{
				"patchline" : 				{
					"source" : [ "obj-7", 0 ],
					"destination" : [ "obj-4", 0 ],
					"hidden" : 0,
					"midpoints" : [  ]
				}

			}
, 			{
				"patchline" : 				{
					"source" : [ "obj-35", 1 ],
					"destination" : [ "obj-43", 0 ],
					"hidden" : 1,
					"midpoints" : [  ]
				}

			}
, 			{
				"patchline" : 				{
					"source" : [ "obj-45", 0 ],
					"destination" : [ "obj-46", 0 ],
					"hidden" : 1,
					"midpoints" : [  ]
				}

			}
, 			{
				"patchline" : 				{
					"source" : [ "obj-44", 0 ],
					"destination" : [ "obj-45", 0 ],
					"hidden" : 1,
					"midpoints" : [  ]
				}

			}
, 			{
				"patchline" : 				{
					"source" : [ "obj-32", 0 ],
					"destination" : [ "obj-40", 0 ],
					"hidden" : 1,
					"midpoints" : [  ]
				}

			}
, 			{
				"patchline" : 				{
					"source" : [ "obj-32", 1 ],
					"destination" : [ "obj-40", 0 ],
					"hidden" : 1,
					"midpoints" : [  ]
				}

			}
, 			{
				"patchline" : 				{
					"source" : [ "obj-31", 0 ],
					"destination" : [ "obj-32", 0 ],
					"hidden" : 1,
					"midpoints" : [  ]
				}

			}
, 			{
				"patchline" : 				{
					"source" : [ "obj-38", 0 ],
					"destination" : [ "obj-35", 0 ],
					"hidden" : 1,
					"midpoints" : [  ]
				}

			}
, 			{
				"patchline" : 				{
					"source" : [ "obj-19", 0 ],
					"destination" : [ "obj-24", 0 ],
					"hidden" : 1,
					"midpoints" : [  ]
				}

			}
, 			{
				"patchline" : 				{
					"source" : [ "obj-25", 0 ],
					"destination" : [ "obj-26", 0 ],
					"hidden" : 1,
					"midpoints" : [  ]
				}

			}
, 			{
				"patchline" : 				{
					"source" : [ "obj-24", 0 ],
					"destination" : [ "obj-25", 0 ],
					"hidden" : 1,
					"midpoints" : [  ]
				}

			}
, 			{
				"patchline" : 				{
					"source" : [ "obj-22", 0 ],
					"destination" : [ "obj-21", 0 ],
					"hidden" : 1,
					"midpoints" : [  ]
				}

			}
, 			{
				"patchline" : 				{
					"source" : [ "obj-23", 0 ],
					"destination" : [ "obj-22", 0 ],
					"hidden" : 1,
					"midpoints" : [  ]
				}

			}
, 			{
				"patchline" : 				{
					"source" : [ "obj-20", 0 ],
					"destination" : [ "obj-19", 0 ],
					"hidden" : 1,
					"midpoints" : [  ]
				}

			}
, 			{
				"patchline" : 				{
					"source" : [ "obj-28", 0 ],
					"destination" : [ "obj-27", 0 ],
					"hidden" : 1,
					"midpoints" : [  ]
				}

			}
, 			{
				"patchline" : 				{
					"source" : [ "obj-29", 0 ],
					"destination" : [ "obj-28", 0 ],
					"hidden" : 1,
					"midpoints" : [  ]
				}

			}
, 			{
				"patchline" : 				{
					"source" : [ "obj-27", 0 ],
					"destination" : [ "obj-30", 0 ],
					"hidden" : 1,
					"midpoints" : [  ]
				}

			}
, 			{
				"patchline" : 				{
					"source" : [ "obj-30", 0 ],
					"destination" : [ "obj-19", 0 ],
					"hidden" : 1,
					"midpoints" : [  ]
				}

			}
, 			{
				"patchline" : 				{
					"source" : [ "obj-17", 1 ],
					"destination" : [ "obj-10", 0 ],
					"hidden" : 1,
					"midpoints" : [  ]
				}

			}
, 			{
				"patchline" : 				{
					"source" : [ "obj-11", 0 ],
					"destination" : [ "obj-5", 0 ],
					"hidden" : 1,
					"midpoints" : [  ]
				}

			}
, 			{
				"patchline" : 				{
					"source" : [ "obj-32", 2 ],
					"destination" : [ "obj-11", 0 ],
					"hidden" : 1,
					"midpoints" : [  ]
				}

			}
, 			{
				"patchline" : 				{
					"source" : [ "obj-37", 0 ],
					"destination" : [ "obj-5", 0 ],
					"hidden" : 1,
					"midpoints" : [  ]
				}

			}
, 			{
				"patchline" : 				{
					"source" : [ "obj-1", 0 ],
					"destination" : [ "obj-38", 0 ],
					"hidden" : 1,
					"midpoints" : [  ]
				}

			}
, 			{
				"patchline" : 				{
					"source" : [ "obj-3", 0 ],
					"destination" : [ "obj-2", 0 ],
					"hidden" : 1,
					"midpoints" : [  ]
				}

			}
, 			{
				"patchline" : 				{
					"source" : [ "obj-3", 1 ],
					"destination" : [ "obj-68", 0 ],
					"hidden" : 1,
					"midpoints" : [  ]
				}

			}
, 			{
				"patchline" : 				{
					"source" : [ "obj-46", 0 ],
					"destination" : [ "obj-3", 0 ],
					"hidden" : 1,
					"midpoints" : [  ]
				}

			}
 ]
	}

}
