{
	"patcher" : 	{
		"fileversion" : 1,
		"appversion" : 		{
			"major" : 5,
			"minor" : 1,
			"revision" : 9
		}
,
		"rect" : [ 0.0, 44.0, 1280.0, 726.0 ],
		"bglocked" : 0,
		"defrect" : [ 0.0, 44.0, 1280.0, 726.0 ],
		"openrect" : [ 0.0, 0.0, 0.0, 0.0 ],
		"openinpresentation" : 1,
		"default_fontsize" : 12.0,
		"default_fontface" : 0,
		"default_fontname" : "Arial",
		"gridonopen" : 0,
		"gridsize" : [ 15.0, 15.0 ],
		"gridsnaponopen" : 0,
		"toolbarvisible" : 1,
		"boxanimatetime" : 200,
		"imprint" : 0,
		"enablehscroll" : 1,
		"enablevscroll" : 1,
		"devicewidth" : 0.0,
		"boxes" : [ 			{
				"box" : 				{
					"maxclass" : "newobj",
					"text" : "route /tmpsolutions",
					"patching_rect" : [ 837.0, 459.0, 112.0, 20.0 ],
					"numoutlets" : 2,
					"outlettype" : [ "", "" ],
					"id" : "obj-111",
					"fontname" : "Arial",
					"fontsize" : 12.0,
					"numinlets" : 1
				}

			}
, 			{
				"box" : 				{
					"maxclass" : "newobj",
					"text" : "r serverreceive",
					"patching_rect" : [ 837.0, 432.0, 90.0, 20.0 ],
					"numoutlets" : 1,
					"outlettype" : [ "" ],
					"id" : "obj-110",
					"fontname" : "Arial",
					"fontsize" : 12.0,
					"numinlets" : 0
				}

			}
, 			{
				"box" : 				{
					"maxclass" : "newobj",
					"text" : "t b b i",
					"patching_rect" : [ 686.0, 461.0, 107.0, 20.0 ],
					"numoutlets" : 3,
					"outlettype" : [ "bang", "bang", "int" ],
					"id" : "obj-26",
					"fontname" : "Arial",
					"fontsize" : 12.0,
					"numinlets" : 1
				}

			}
, 			{
				"box" : 				{
					"maxclass" : "newobj",
					"text" : "change 0",
					"patching_rect" : [ 686.0, 403.0, 79.0, 20.0 ],
					"numoutlets" : 3,
					"outlettype" : [ "", "int", "int" ],
					"id" : "obj-25",
					"fontname" : "Arial",
					"fontsize" : 12.0,
					"numinlets" : 1
				}

			}
, 			{
				"box" : 				{
					"maxclass" : "newobj",
					"text" : "r solution-id",
					"patching_rect" : [ 686.0, 376.0, 73.0, 20.0 ],
					"numoutlets" : 1,
					"outlettype" : [ "" ],
					"id" : "obj-12",
					"fontname" : "Arial",
					"fontsize" : 12.0,
					"numinlets" : 0
				}

			}
, 			{
				"box" : 				{
					"maxclass" : "number",
					"patching_rect" : [ 686.0, 432.0, 58.0, 20.0 ],
					"numoutlets" : 2,
					"outlettype" : [ "int", "bang" ],
					"id" : "obj-10",
					"fontname" : "Arial",
					"fontsize" : 12.0,
					"numinlets" : 1
				}

			}
, 			{
				"box" : 				{
					"maxclass" : "newobj",
					"text" : "p deal",
					"patching_rect" : [ 774.0, 487.0, 82.0, 20.0 ],
					"numoutlets" : 0,
					"id" : "obj-71",
					"fontname" : "Arial",
					"fontsize" : 12.0,
					"numinlets" : 2,
					"patcher" : 					{
						"fileversion" : 1,
						"appversion" : 						{
							"major" : 5,
							"minor" : 1,
							"revision" : 9
						}
,
						"rect" : [ 196.0, 52.0, 489.0, 730.0 ],
						"bglocked" : 0,
						"defrect" : [ 196.0, 52.0, 489.0, 730.0 ],
						"openrect" : [ 0.0, 0.0, 0.0, 0.0 ],
						"openinpresentation" : 0,
						"default_fontsize" : 12.0,
						"default_fontface" : 0,
						"default_fontname" : "Arial",
						"gridonopen" : 0,
						"gridsize" : [ 15.0, 15.0 ],
						"gridsnaponopen" : 0,
						"toolbarvisible" : 1,
						"boxanimatetime" : 200,
						"imprint" : 0,
						"enablehscroll" : 1,
						"enablevscroll" : 1,
						"devicewidth" : 0.0,
						"boxes" : [ 							{
								"box" : 								{
									"maxclass" : "newobj",
									"text" : "s generationNumber",
									"patching_rect" : [ 122.0, 121.0, 119.0, 20.0 ],
									"numoutlets" : 0,
									"id" : "obj-12",
									"fontname" : "Arial",
									"fontsize" : 12.0,
									"numinlets" : 1
								}

							}
, 							{
								"box" : 								{
									"maxclass" : "newobj",
									"text" : "sprintf read /tmp/.solutions_%i.txt",
									"patching_rect" : [ 89.0, 146.0, 187.0, 20.0 ],
									"numoutlets" : 1,
									"outlettype" : [ "" ],
									"id" : "obj-8",
									"fontname" : "Arial",
									"fontsize" : 12.0,
									"numinlets" : 1
								}

							}
, 							{
								"box" : 								{
									"maxclass" : "newobj",
									"text" : "s solution-set-size",
									"patching_rect" : [ 195.0, 267.0, 107.0, 20.0 ],
									"numoutlets" : 0,
									"id" : "obj-10",
									"fontname" : "Arial",
									"fontsize" : 12.0,
									"numinlets" : 1
								}

							}
, 							{
								"box" : 								{
									"maxclass" : "message",
									"text" : "query",
									"patching_rect" : [ 116.0, 264.0, 41.0, 18.0 ],
									"numoutlets" : 1,
									"outlettype" : [ "" ],
									"id" : "obj-6",
									"fontname" : "Arial",
									"fontsize" : 12.0,
									"numinlets" : 2
								}

							}
, 							{
								"box" : 								{
									"maxclass" : "newobj",
									"text" : "s slots.data",
									"patching_rect" : [ 380.0, 690.0, 71.0, 20.0 ],
									"numoutlets" : 0,
									"id" : "obj-21",
									"fontname" : "Arial",
									"fontsize" : 12.0,
									"numinlets" : 1
								}

							}
, 							{
								"box" : 								{
									"maxclass" : "newobj",
									"text" : "t b l",
									"patching_rect" : [ 37.0, 396.0, 32.5, 20.0 ],
									"numoutlets" : 2,
									"outlettype" : [ "bang", "" ],
									"id" : "obj-20",
									"fontname" : "Arial",
									"fontsize" : 12.0,
									"numinlets" : 1
								}

							}
, 							{
								"box" : 								{
									"maxclass" : "newobj",
									"text" : "+ 1",
									"patching_rect" : [ 294.0, 520.0, 32.5, 20.0 ],
									"numoutlets" : 1,
									"outlettype" : [ "int" ],
									"id" : "obj-19",
									"fontname" : "Arial",
									"fontsize" : 12.0,
									"numinlets" : 2
								}

							}
, 							{
								"box" : 								{
									"maxclass" : "newobj",
									"text" : "prepend offset",
									"patching_rect" : [ 294.0, 552.0, 87.0, 20.0 ],
									"numoutlets" : 1,
									"outlettype" : [ "" ],
									"id" : "obj-18",
									"fontname" : "Arial",
									"fontsize" : 12.0,
									"numinlets" : 1
								}

							}
, 							{
								"box" : 								{
									"maxclass" : "newobj",
									"text" : "expr 64-$i1",
									"patching_rect" : [ 380.0, 510.0, 71.0, 20.0 ],
									"numoutlets" : 1,
									"outlettype" : [ "" ],
									"id" : "obj-16",
									"fontname" : "Arial",
									"fontsize" : 12.0,
									"numinlets" : 1
								}

							}
, 							{
								"box" : 								{
									"maxclass" : "newobj",
									"text" : "/ 2",
									"patching_rect" : [ 294.0, 458.0, 39.5, 20.0 ],
									"numoutlets" : 1,
									"outlettype" : [ "int" ],
									"id" : "obj-14",
									"fontname" : "Arial",
									"fontsize" : 12.0,
									"numinlets" : 2
								}

							}
, 							{
								"box" : 								{
									"maxclass" : "newobj",
									"text" : "append 0 +0",
									"patching_rect" : [ 380.0, 665.0, 78.0, 20.0 ],
									"numoutlets" : 1,
									"outlettype" : [ "" ],
									"id" : "obj-11",
									"fontname" : "Arial",
									"fontsize" : 12.0,
									"numinlets" : 1
								}

							}
, 							{
								"box" : 								{
									"maxclass" : "newobj",
									"text" : "uzi 64 1",
									"patching_rect" : [ 294.0, 632.0, 104.0, 20.0 ],
									"numoutlets" : 3,
									"outlettype" : [ "bang", "bang", "int" ],
									"id" : "obj-9",
									"fontname" : "Arial",
									"fontsize" : 12.0,
									"numinlets" : 2
								}

							}
, 							{
								"box" : 								{
									"maxclass" : "newobj",
									"text" : "route set",
									"patching_rect" : [ 37.0, 339.0, 57.0, 20.0 ],
									"numoutlets" : 2,
									"outlettype" : [ "", "" ],
									"id" : "obj-7",
									"fontname" : "Arial",
									"fontsize" : 12.0,
									"numinlets" : 1
								}

							}
, 							{
								"box" : 								{
									"maxclass" : "newobj",
									"text" : "s slots.stop",
									"patching_rect" : [ 169.0, 96.0, 71.0, 20.0 ],
									"numoutlets" : 0,
									"id" : "obj-5",
									"fontname" : "Arial",
									"fontsize" : 12.0,
									"numinlets" : 1
								}

							}
, 							{
								"box" : 								{
									"maxclass" : "newobj",
									"text" : "t i b",
									"patching_rect" : [ 37.0, 61.0, 32.5, 20.0 ],
									"numoutlets" : 2,
									"outlettype" : [ "int", "bang" ],
									"id" : "obj-4",
									"fontname" : "Arial",
									"fontsize" : 12.0,
									"numinlets" : 1
								}

							}
, 							{
								"box" : 								{
									"maxclass" : "newobj",
									"text" : "t b",
									"patching_rect" : [ 131.0, 57.0, 24.0, 20.0 ],
									"numoutlets" : 1,
									"outlettype" : [ "bang" ],
									"id" : "obj-3",
									"fontname" : "Arial",
									"fontsize" : 12.0,
									"numinlets" : 1
								}

							}
, 							{
								"box" : 								{
									"maxclass" : "inlet",
									"patching_rect" : [ 89.0, 18.0, 25.0, 25.0 ],
									"numoutlets" : 1,
									"outlettype" : [ "" ],
									"id" : "obj-2",
									"numinlets" : 0,
									"comment" : ""
								}

							}
, 							{
								"box" : 								{
									"maxclass" : "message",
									"text" : "line $1",
									"patching_rect" : [ 36.5, 148.0, 46.0, 18.0 ],
									"numoutlets" : 1,
									"outlettype" : [ "" ],
									"id" : "obj-72",
									"fontname" : "Arial",
									"fontsize" : 12.0,
									"numinlets" : 2
								}

							}
, 							{
								"box" : 								{
									"maxclass" : "newobj",
									"text" : "text",
									"patching_rect" : [ 36.5, 236.0, 177.0, 20.0 ],
									"numoutlets" : 3,
									"outlettype" : [ "", "bang", "int" ],
									"id" : "obj-1",
									"fontname" : "Arial",
									"fontsize" : 12.0,
									"numinlets" : 1
								}

							}
, 							{
								"box" : 								{
									"maxclass" : "newobj",
									"text" : "s slots.data",
									"patching_rect" : [ 136.0, 555.0, 71.0, 20.0 ],
									"numoutlets" : 0,
									"id" : "obj-68",
									"fontname" : "Arial",
									"fontsize" : 12.0,
									"numinlets" : 1
								}

							}
, 							{
								"box" : 								{
									"maxclass" : "newobj",
									"text" : "zl len",
									"patching_rect" : [ 294.0, 432.0, 39.0, 20.0 ],
									"numoutlets" : 2,
									"outlettype" : [ "", "" ],
									"id" : "obj-66",
									"fontname" : "Arial",
									"fontsize" : 12.0,
									"numinlets" : 2
								}

							}
, 							{
								"box" : 								{
									"maxclass" : "newobj",
									"text" : "unpack i s",
									"patching_rect" : [ 183.0, 495.0, 65.0, 20.0 ],
									"numoutlets" : 2,
									"outlettype" : [ "int", "" ],
									"id" : "obj-64",
									"fontname" : "Arial",
									"fontsize" : 12.0,
									"numinlets" : 1
								}

							}
, 							{
								"box" : 								{
									"maxclass" : "newobj",
									"text" : "pack i i s",
									"patching_rect" : [ 136.0, 529.0, 112.0, 20.0 ],
									"numoutlets" : 1,
									"outlettype" : [ "" ],
									"id" : "obj-61",
									"fontname" : "Arial",
									"fontsize" : 12.0,
									"numinlets" : 3
								}

							}
, 							{
								"box" : 								{
									"maxclass" : "newobj",
									"text" : "t b l",
									"patching_rect" : [ 51.0, 458.0, 48.5, 20.0 ],
									"numoutlets" : 2,
									"outlettype" : [ "bang", "" ],
									"id" : "obj-60",
									"fontname" : "Arial",
									"fontsize" : 12.0,
									"numinlets" : 1
								}

							}
, 							{
								"box" : 								{
									"maxclass" : "newobj",
									"text" : "t l b l",
									"patching_rect" : [ 37.0, 367.0, 153.0, 20.0 ],
									"numoutlets" : 3,
									"outlettype" : [ "", "bang", "" ],
									"id" : "obj-59",
									"fontname" : "Arial",
									"fontsize" : 12.0,
									"numinlets" : 1
								}

							}
, 							{
								"box" : 								{
									"maxclass" : "newobj",
									"text" : "counter 0 1 64",
									"patching_rect" : [ 51.0, 495.0, 124.0, 20.0 ],
									"numoutlets" : 4,
									"outlettype" : [ "int", "", "", "int" ],
									"id" : "obj-27",
									"fontname" : "Arial",
									"fontsize" : 12.0,
									"numinlets" : 5
								}

							}
, 							{
								"box" : 								{
									"maxclass" : "newobj",
									"text" : "zl iter 2",
									"patching_rect" : [ 51.0, 428.0, 49.0, 20.0 ],
									"numoutlets" : 2,
									"outlettype" : [ "", "" ],
									"id" : "obj-15",
									"fontname" : "Arial",
									"fontsize" : 12.0,
									"numinlets" : 2
								}

							}
, 							{
								"box" : 								{
									"maxclass" : "inlet",
									"patching_rect" : [ 37.0, 19.0, 25.0, 25.0 ],
									"numoutlets" : 1,
									"outlettype" : [ "int" ],
									"id" : "obj-70",
									"numinlets" : 0,
									"comment" : ""
								}

							}
 ],
						"lines" : [ 							{
								"patchline" : 								{
									"source" : [ "obj-1", 2 ],
									"destination" : [ "obj-10", 0 ],
									"hidden" : 0,
									"midpoints" : [  ]
								}

							}
, 							{
								"patchline" : 								{
									"source" : [ "obj-6", 0 ],
									"destination" : [ "obj-1", 0 ],
									"hidden" : 0,
									"midpoints" : [ 125.5, 288.0, 32.0, 288.0, 32.0, 229.0, 46.0, 229.0 ]
								}

							}
, 							{
								"patchline" : 								{
									"source" : [ "obj-1", 1 ],
									"destination" : [ "obj-6", 0 ],
									"hidden" : 0,
									"midpoints" : [  ]
								}

							}
, 							{
								"patchline" : 								{
									"source" : [ "obj-1", 0 ],
									"destination" : [ "obj-7", 0 ],
									"hidden" : 0,
									"midpoints" : [  ]
								}

							}
, 							{
								"patchline" : 								{
									"source" : [ "obj-64", 1 ],
									"destination" : [ "obj-61", 2 ],
									"hidden" : 0,
									"midpoints" : [  ]
								}

							}
, 							{
								"patchline" : 								{
									"source" : [ "obj-64", 0 ],
									"destination" : [ "obj-61", 1 ],
									"hidden" : 0,
									"midpoints" : [  ]
								}

							}
, 							{
								"patchline" : 								{
									"source" : [ "obj-60", 1 ],
									"destination" : [ "obj-64", 0 ],
									"hidden" : 0,
									"midpoints" : [  ]
								}

							}
, 							{
								"patchline" : 								{
									"source" : [ "obj-15", 0 ],
									"destination" : [ "obj-60", 0 ],
									"hidden" : 0,
									"midpoints" : [  ]
								}

							}
, 							{
								"patchline" : 								{
									"source" : [ "obj-72", 0 ],
									"destination" : [ "obj-1", 0 ],
									"hidden" : 0,
									"midpoints" : [  ]
								}

							}
, 							{
								"patchline" : 								{
									"source" : [ "obj-4", 0 ],
									"destination" : [ "obj-72", 0 ],
									"hidden" : 0,
									"midpoints" : [  ]
								}

							}
, 							{
								"patchline" : 								{
									"source" : [ "obj-70", 0 ],
									"destination" : [ "obj-4", 0 ],
									"hidden" : 0,
									"midpoints" : [  ]
								}

							}
, 							{
								"patchline" : 								{
									"source" : [ "obj-4", 1 ],
									"destination" : [ "obj-5", 0 ],
									"hidden" : 0,
									"midpoints" : [ 60.0, 84.0, 178.5, 84.0 ]
								}

							}
, 							{
								"patchline" : 								{
									"source" : [ "obj-59", 2 ],
									"destination" : [ "obj-66", 0 ],
									"hidden" : 0,
									"midpoints" : [  ]
								}

							}
, 							{
								"patchline" : 								{
									"source" : [ "obj-7", 0 ],
									"destination" : [ "obj-59", 0 ],
									"hidden" : 0,
									"midpoints" : [  ]
								}

							}
, 							{
								"patchline" : 								{
									"source" : [ "obj-66", 0 ],
									"destination" : [ "obj-14", 0 ],
									"hidden" : 0,
									"midpoints" : [  ]
								}

							}
, 							{
								"patchline" : 								{
									"source" : [ "obj-14", 0 ],
									"destination" : [ "obj-19", 0 ],
									"hidden" : 0,
									"midpoints" : [  ]
								}

							}
, 							{
								"patchline" : 								{
									"source" : [ "obj-19", 0 ],
									"destination" : [ "obj-18", 0 ],
									"hidden" : 0,
									"midpoints" : [  ]
								}

							}
, 							{
								"patchline" : 								{
									"source" : [ "obj-59", 0 ],
									"destination" : [ "obj-20", 0 ],
									"hidden" : 0,
									"midpoints" : [  ]
								}

							}
, 							{
								"patchline" : 								{
									"source" : [ "obj-20", 1 ],
									"destination" : [ "obj-15", 0 ],
									"hidden" : 0,
									"midpoints" : [  ]
								}

							}
, 							{
								"patchline" : 								{
									"source" : [ "obj-61", 0 ],
									"destination" : [ "obj-68", 0 ],
									"hidden" : 0,
									"midpoints" : [  ]
								}

							}
, 							{
								"patchline" : 								{
									"source" : [ "obj-11", 0 ],
									"destination" : [ "obj-21", 0 ],
									"hidden" : 0,
									"midpoints" : [  ]
								}

							}
, 							{
								"patchline" : 								{
									"source" : [ "obj-59", 1 ],
									"destination" : [ "obj-27", 2 ],
									"hidden" : 0,
									"midpoints" : [  ]
								}

							}
, 							{
								"patchline" : 								{
									"source" : [ "obj-60", 0 ],
									"destination" : [ "obj-27", 0 ],
									"hidden" : 0,
									"midpoints" : [  ]
								}

							}
, 							{
								"patchline" : 								{
									"source" : [ "obj-27", 0 ],
									"destination" : [ "obj-61", 0 ],
									"hidden" : 0,
									"midpoints" : [  ]
								}

							}
, 							{
								"patchline" : 								{
									"source" : [ "obj-20", 0 ],
									"destination" : [ "obj-9", 0 ],
									"hidden" : 0,
									"midpoints" : [ 46.5, 617.5, 303.5, 617.5 ]
								}

							}
, 							{
								"patchline" : 								{
									"source" : [ "obj-9", 2 ],
									"destination" : [ "obj-11", 0 ],
									"hidden" : 0,
									"midpoints" : [  ]
								}

							}
, 							{
								"patchline" : 								{
									"source" : [ "obj-18", 0 ],
									"destination" : [ "obj-9", 0 ],
									"hidden" : 0,
									"midpoints" : [  ]
								}

							}
, 							{
								"patchline" : 								{
									"source" : [ "obj-16", 0 ],
									"destination" : [ "obj-9", 1 ],
									"hidden" : 0,
									"midpoints" : [  ]
								}

							}
, 							{
								"patchline" : 								{
									"source" : [ "obj-14", 0 ],
									"destination" : [ "obj-16", 0 ],
									"hidden" : 0,
									"midpoints" : [  ]
								}

							}
, 							{
								"patchline" : 								{
									"source" : [ "obj-2", 0 ],
									"destination" : [ "obj-3", 0 ],
									"hidden" : 0,
									"midpoints" : [ 98.5, 49.5, 140.5, 49.5 ]
								}

							}
, 							{
								"patchline" : 								{
									"source" : [ "obj-3", 0 ],
									"destination" : [ "obj-5", 0 ],
									"hidden" : 0,
									"midpoints" : [ 140.5, 92.0, 178.5, 92.0 ]
								}

							}
, 							{
								"patchline" : 								{
									"source" : [ "obj-2", 0 ],
									"destination" : [ "obj-8", 0 ],
									"hidden" : 0,
									"midpoints" : [  ]
								}

							}
, 							{
								"patchline" : 								{
									"source" : [ "obj-8", 0 ],
									"destination" : [ "obj-1", 0 ],
									"hidden" : 0,
									"midpoints" : [ 98.5, 190.5, 46.0, 190.5 ]
								}

							}
, 							{
								"patchline" : 								{
									"source" : [ "obj-2", 0 ],
									"destination" : [ "obj-12", 0 ],
									"hidden" : 0,
									"midpoints" : [ 98.5, 107.0, 131.5, 107.0 ]
								}

							}
 ]
					}
,
					"saved_object_attributes" : 					{
						"default_fontface" : 0,
						"fontname" : "Arial",
						"default_fontname" : "Arial",
						"globalpatchername" : "",
						"default_fontsize" : 12.0,
						"fontface" : 0,
						"fontsize" : 12.0
					}

				}

			}
, 			{
				"box" : 				{
					"maxclass" : "bpatcher",
					"patching_rect" : [ 270.0, 12.0, 301.0, 633.0 ],
					"numoutlets" : 0,
					"args" : [  ],
					"presentation" : 1,
					"name" : "solutions.display.maxpat",
					"id" : "obj-8",
					"enablevscroll" : 1,
					"presentation_rect" : [ 268.0, 7.0, 310.0, 707.0 ],
					"numinlets" : 0
				}

			}
, 			{
				"box" : 				{
					"maxclass" : "message",
					"text" : "start",
					"patching_rect" : [ 717.0, 162.0, 34.0, 18.0 ],
					"numoutlets" : 1,
					"outlettype" : [ "" ],
					"id" : "obj-4",
					"fontname" : "Arial",
					"fontsize" : 12.0,
					"numinlets" : 2
				}

			}
, 			{
				"box" : 				{
					"maxclass" : "newobj",
					"text" : "loadbang",
					"patching_rect" : [ 717.0, 132.0, 60.0, 20.0 ],
					"numoutlets" : 1,
					"outlettype" : [ "bang" ],
					"id" : "obj-3",
					"fontname" : "Arial",
					"fontsize" : 12.0,
					"numinlets" : 1
				}

			}
, 			{
				"box" : 				{
					"maxclass" : "bpatcher",
					"patching_rect" : [ 10.0, 10.0, 258.0, 589.0 ],
					"numoutlets" : 0,
					"args" : [  ],
					"presentation" : 1,
					"name" : "solutions.map.maxpat",
					"id" : "obj-54",
					"presentation_rect" : [ 6.0, 11.0, 286.0, 577.0 ],
					"numinlets" : 0
				}

			}
, 			{
				"box" : 				{
					"maxclass" : "newobj",
					"text" : "t init",
					"patching_rect" : [ 611.0, 283.0, 33.0, 20.0 ],
					"numoutlets" : 1,
					"outlettype" : [ "init" ],
					"id" : "obj-7",
					"fontname" : "Arial",
					"fontsize" : 12.0,
					"hidden" : 1,
					"numinlets" : 1
				}

			}
, 			{
				"box" : 				{
					"maxclass" : "newobj",
					"text" : "route init",
					"patching_rect" : [ 611.0, 256.0, 57.0, 20.0 ],
					"numoutlets" : 2,
					"outlettype" : [ "", "" ],
					"id" : "obj-6",
					"fontname" : "Arial",
					"fontsize" : 12.0,
					"hidden" : 1,
					"numinlets" : 1
				}

			}
, 			{
				"box" : 				{
					"maxclass" : "inlet",
					"patching_rect" : [ 611.0, 224.0, 25.0, 25.0 ],
					"numoutlets" : 1,
					"outlettype" : [ "" ],
					"id" : "obj-2",
					"hidden" : 1,
					"numinlets" : 0,
					"comment" : ""
				}

			}
, 			{
				"box" : 				{
					"maxclass" : "textbutton",
					"patching_rect" : [ 611.0, 74.0, 71.0, 22.0 ],
					"numoutlets" : 3,
					"text" : "Mixboard",
					"outlettype" : [ "", "", "int" ],
					"id" : "obj-89",
					"fontname" : "Arial",
					"fontsize" : 12.0,
					"numinlets" : 1
				}

			}
, 			{
				"box" : 				{
					"maxclass" : "newobj",
					"text" : "dac~",
					"patching_rect" : [ 611.0, 200.0, 65.0, 20.0 ],
					"numoutlets" : 0,
					"id" : "obj-24",
					"fontname" : "Arial",
					"fontsize" : 12.0,
					"hidden" : 1,
					"numinlets" : 2
				}

			}
, 			{
				"box" : 				{
					"maxclass" : "newobj",
					"text" : "t open",
					"patching_rect" : [ 611.0, 109.0, 44.0, 20.0 ],
					"numoutlets" : 1,
					"outlettype" : [ "open" ],
					"id" : "obj-92",
					"fontname" : "Arial",
					"fontsize" : 12.0,
					"hidden" : 1,
					"numinlets" : 1
				}

			}
, 			{
				"box" : 				{
					"maxclass" : "newobj",
					"text" : "pcontrol",
					"patching_rect" : [ 611.0, 135.0, 53.0, 20.0 ],
					"numoutlets" : 1,
					"outlettype" : [ "" ],
					"id" : "obj-29",
					"fontname" : "Arial",
					"fontsize" : 12.0,
					"hidden" : 1,
					"numinlets" : 1
				}

			}
, 			{
				"box" : 				{
					"maxclass" : "newobj",
					"text" : "mixboard",
					"patching_rect" : [ 611.0, 158.0, 65.0, 20.0 ],
					"numoutlets" : 2,
					"outlettype" : [ "signal", "signal" ],
					"id" : "obj-86",
					"fontname" : "Arial",
					"fontsize" : 12.0,
					"hidden" : 1,
					"numinlets" : 1
				}

			}
, 			{
				"box" : 				{
					"maxclass" : "bpatcher",
					"patching_rect" : [ 99.0, 653.0, 473.0, 56.0 ],
					"numoutlets" : 0,
					"args" : [  ],
					"presentation" : 1,
					"name" : "player.controls.maxpat",
					"id" : "obj-30",
					"presentation_rect" : [ 14.0, 591.0, 247.0, 116.0 ],
					"numinlets" : 1
				}

			}
, 			{
				"box" : 				{
					"maxclass" : "fpic",
					"patching_rect" : [ -4.0, 2.0, 587.0, 740.0 ],
					"numoutlets" : 0,
					"pic" : "solutions.panel.png",
					"presentation" : 1,
					"id" : "obj-53",
					"presentation_rect" : [ -4.0, 2.0, 587.0, 740.0 ],
					"numinlets" : 1
				}

			}
 ],
		"lines" : [ 			{
				"patchline" : 				{
					"source" : [ "obj-12", 0 ],
					"destination" : [ "obj-25", 0 ],
					"hidden" : 0,
					"midpoints" : [  ]
				}

			}
, 			{
				"patchline" : 				{
					"source" : [ "obj-25", 0 ],
					"destination" : [ "obj-10", 0 ],
					"hidden" : 0,
					"midpoints" : [  ]
				}

			}
, 			{
				"patchline" : 				{
					"source" : [ "obj-10", 0 ],
					"destination" : [ "obj-26", 0 ],
					"hidden" : 0,
					"midpoints" : [  ]
				}

			}
, 			{
				"patchline" : 				{
					"source" : [ "obj-26", 2 ],
					"destination" : [ "obj-71", 0 ],
					"hidden" : 0,
					"midpoints" : [  ]
				}

			}
, 			{
				"patchline" : 				{
					"source" : [ "obj-110", 0 ],
					"destination" : [ "obj-111", 0 ],
					"hidden" : 0,
					"midpoints" : [  ]
				}

			}
, 			{
				"patchline" : 				{
					"source" : [ "obj-111", 0 ],
					"destination" : [ "obj-71", 1 ],
					"hidden" : 0,
					"midpoints" : [  ]
				}

			}
, 			{
				"patchline" : 				{
					"source" : [ "obj-89", 0 ],
					"destination" : [ "obj-92", 0 ],
					"hidden" : 1,
					"midpoints" : [  ]
				}

			}
, 			{
				"patchline" : 				{
					"source" : [ "obj-92", 0 ],
					"destination" : [ "obj-29", 0 ],
					"hidden" : 1,
					"midpoints" : [  ]
				}

			}
, 			{
				"patchline" : 				{
					"source" : [ "obj-29", 0 ],
					"destination" : [ "obj-86", 0 ],
					"hidden" : 1,
					"midpoints" : [  ]
				}

			}
, 			{
				"patchline" : 				{
					"source" : [ "obj-86", 0 ],
					"destination" : [ "obj-24", 0 ],
					"hidden" : 1,
					"midpoints" : [  ]
				}

			}
, 			{
				"patchline" : 				{
					"source" : [ "obj-86", 1 ],
					"destination" : [ "obj-24", 1 ],
					"hidden" : 1,
					"midpoints" : [  ]
				}

			}
, 			{
				"patchline" : 				{
					"source" : [ "obj-2", 0 ],
					"destination" : [ "obj-6", 0 ],
					"hidden" : 1,
					"midpoints" : [  ]
				}

			}
, 			{
				"patchline" : 				{
					"source" : [ "obj-6", 0 ],
					"destination" : [ "obj-7", 0 ],
					"hidden" : 1,
					"midpoints" : [  ]
				}

			}
, 			{
				"patchline" : 				{
					"source" : [ "obj-3", 0 ],
					"destination" : [ "obj-4", 0 ],
					"hidden" : 0,
					"midpoints" : [  ]
				}

			}
, 			{
				"patchline" : 				{
					"source" : [ "obj-4", 0 ],
					"destination" : [ "obj-24", 0 ],
					"hidden" : 0,
					"midpoints" : [ 726.5, 189.5, 620.5, 189.5 ]
				}

			}
 ]
	}

}
